999
dxflib 3.26.4.0
  0
SECTION
  2
HEADER
  9
$ACADVER
  1
AC1015
  9
$HANDSEED
  5
FFFF
  9
$DIMADEC
 70
0
  9
$DIMASZ
 40
2.5
  9
$DIMATFIT
 70
0
  9
$DIMAUNIT
 70
0
  9
$DIMAZIN
 70
2
  9
$DIMBLK
  1
0
  9
$DIMBLK1
  1
0
  9
$DIMBLK2
  1
0
  9
$DIMDEC
 70
4
  9
$DIMDLI
 40
5.0
  9
$DIMDSEP
 70
46
  9
$DIMEXE
 40
1.25
  9
$DIMEXO
 40
0.625
  9
$DIMGAP
 40
0.625
  9
$DIMLFAC
 40
1.0
  9
$DIMLUNIT
 70
2
  9
$DIMSCALE
 40
1.0
  9
$DIMTAD
 70
1
  9
$DIMTIH
 70
0
  9
$DIMTSZ
 40
0.0
  9
$DIMTXT
 40
2.5
  9
$DIMZIN
 70
8
  9
$DWGCODEPAGE
  3
ANSI_1252
  9
$INSUNITS
 70
4
  9
$LTSCALE
 40
1.0
  9
$MAXACTVP
 70
64
  9
$MEASUREMENT
 70
1
  9
$MIRRTEXT
 70
0
  9
$PDMODE
 70
0
  9
$PDSIZE
 40
0.0
  0
ENDSEC
  0
SECTION
  2
TABLES
  0
TABLE
  2
VPORT
  5
8
100
AcDbSymbolTable
 70
1
  0
VPORT
  5
30
100
AcDbSymbolTableRecord
100
AcDbViewportTableRecord
  2
*Active
 70
0
 10
0.0
 20
0.0
 11
1.0
 21
1.0
 12
286.3055555555554861
 22
148.5
 13
0.0
 23
0.0
 14
10.0
 24
10.0
 15
10.0
 25
10.0
 16
0.0
 26
0.0
 36
1.0
 17
0.0
 27
0.0
 37
0.0
 40
297.0
 41
1.92798353909465
 42
50.0
 43
0.0
 44
0.0
 50
0.0
 51
0.0
 71
0
 72
100
 73
1
 74
3
 75
1
 76
1
 77
0
 78
0
281
0
 65
1
110
0.0
120
0.0
130
0.0
111
1.0
121
0.0
131
0.0
112
0.0
122
1.0
132
0.0
 79
0
146
0.0
  0
ENDTAB
  0
TABLE
  2
LTYPE
  5
5
100
AcDbSymbolTable
 70
41
  0
LTYPE
  5
16
100
AcDbSymbolTableRecord
100
AcDbLinetypeTableRecord
  2
Continuous
 70
0
  3
Solid line
 72
65
 73
0
 40
0.0
  0
LTYPE
  5
31
100
AcDbSymbolTableRecord
100
AcDbLinetypeTableRecord
  2
ACAD_ISO03W100
 70
0
  3
ISO dash space __    __    __    __    __    __
 72
65
 73
2
 40
30.0
 49
12.0
 74
0
 49
-18.0
 74
0
  0
LTYPE
  5
32
100
AcDbSymbolTableRecord
100
AcDbLinetypeTableRecord
  2
DASHDOTX2
 70
0
  3
Dash dot (2x) ____  .  ____  .  ____  .  ___
 72
65
 73
4
 40
50.7999999999999972
 49
25.3999999999999986
 74
0
 49
-12.6499999999999986
 74
0
 49
0.1
 74
0
 49
-12.6499999999999986
 74
0
  0
LTYPE
  5
33
100
AcDbSymbolTableRecord
100
AcDbLinetypeTableRecord
  2
HIDDEN
 70
0
  3
Hidden __ __ __ __ __ __ __ __ __ __ __ __ __ __
 72
65
 73
2
 40
9.5249999999999986
 49
6.3499999999999996
 74
0
 49
-3.1749999999999998
 74
0
  0
LTYPE
  5
34
100
AcDbSymbolTableRecord
100
AcDbLinetypeTableRecord
  2
CENTERX2
 70
0
  3
Center (2x) ________  __  ________  __  _____
 72
65
 73
4
 40
101.6000000000000085
 49
63.5
 74
0
 49
-12.6999999999999993
 74
0
 49
12.6999999999999993
 74
0
 49
-12.6999999999999993
 74
0
  0
LTYPE
  5
35
100
AcDbSymbolTableRecord
100
AcDbLinetypeTableRecord
  2
ACAD_ISO06W100
 70
0
  3
ISO long-dash triple-dot ____ ... ____ ... ____
 72
65
 73
8
 40
36.0000000000000071
 49
24.0
 74
0
 49
-2.9500000000000002
 74
0
 49
0.1
 74
0
 49
-2.9000000000000004
 74
0
 49
0.1
 74
0
 49
-2.9000000000000004
 74
0
 49
0.1
 74
0
 49
-2.9500000000000002
 74
0
  0
LTYPE
  5
36
100
AcDbSymbolTableRecord
100
AcDbLinetypeTableRecord
  2
ACAD_ISO13W100
 70
0
  3
ISO double-dash double-dot __ __ . . __ __ . . _
 72
65
 73
8
 40
36.0000000000000071
 49
12.0
 74
0
 49
-3.0
 74
0
 49
12.0
 74
0
 49
-2.9500000000000002
 74
0
 49
0.1
 74
0
 49
-2.9000000000000004
 74
0
 49
0.1
 74
0
 49
-2.9500000000000002
 74
0
  0
LTYPE
  5
37
100
AcDbSymbolTableRecord
100
AcDbLinetypeTableRecord
  2
ACAD_ISO09W100
 70
0
  3
ISO long-dash double-short-dash ____ __ __ ____
 72
65
 73
6
 40
45.0
 49
24.0
 74
0
 49
-3.0
 74
0
 49
6.0
 74
0
 49
-3.0
 74
0
 49
6.0
 74
0
 49
-3.0
 74
0
  0
LTYPE
  5
38
100
AcDbSymbolTableRecord
100
AcDbLinetypeTableRecord
  2
ACAD_ISO15W100
 70
0
  3
ISO double-dash triple-dot __ __ . . . __ __ . .
 72
65
 73
10
 40
39.0000000000000071
 49
12.0
 74
0
 49
-3.0
 74
0
 49
12.0
 74
0
 49
-2.9500000000000002
 74
0
 49
0.1
 74
0
 49
-2.9000000000000004
 74
0
 49
0.1
 74
0
 49
-2.9000000000000004
 74
0
 49
0.1
 74
0
 49
-2.9500000000000002
 74
0
  0
LTYPE
  5
39
100
AcDbSymbolTableRecord
100
AcDbLinetypeTableRecord
  2
ACAD_ISO04W100
 70
0
  3
ISO long-dash dot ____ . ____ . ____ . ____ . _
 72
65
 73
4
 40
30.0
 49
24.0
 74
0
 49
-2.9500000000000002
 74
0
 49
0.1
 74
0
 49
-2.9500000000000002
 74
0
  0
LTYPE
  5
3A
100
AcDbSymbolTableRecord
100
AcDbLinetypeTableRecord
  2
DASHEDX2
 70
0
  3
Dashed (2x) ____  ____  ____  ____  ____  ___
 72
65
 73
2
 40
38.0999999999999943
 49
25.3999999999999986
 74
0
 49
-12.6999999999999993
 74
0
  0
LTYPE
  5
3B
100
AcDbSymbolTableRecord
100
AcDbLinetypeTableRecord
  2
DASHDOT2
 70
0
  3
Dash dot (.5x) _._._._._._._._._._._._._._._.
 72
65
 73
4
 40
12.6999999999999993
 49
6.3499999999999996
 74
0
 49
-3.125
 74
0
 49
0.1
 74
0
 49
-3.125
 74
0
  0
LTYPE
  5
3C
100
AcDbSymbolTableRecord
100
AcDbLinetypeTableRecord
  2
PHANTOM2
 70
0
  3
Phantom (.5x) ___ _ _ ___ _ _ ___ _ _ ___ _ _
 72
65
 73
6
 40
31.7500000000000036
 49
15.875
 74
0
 49
-3.1749999999999998
 74
0
 49
3.1749999999999998
 74
0
 49
-3.1749999999999998
 74
0
 49
3.1749999999999998
 74
0
 49
-3.1749999999999998
 74
0
  0
LTYPE
  5
3D
100
AcDbSymbolTableRecord
100
AcDbLinetypeTableRecord
  2
ACAD_ISO08W100
 70
0
  3
ISO long-dash short-dash ____ __ ____ __ ____ _
 72
65
 73
4
 40
36.0
 49
24.0
 74
0
 49
-3.0
 74
0
 49
6.0
 74
0
 49
-3.0
 74
0
  0
LTYPE
  5
14
100
AcDbSymbolTableRecord
100
AcDbLinetypeTableRecord
  2
BYBLOCK
 70
0
  3

 72
65
 73
0
 40
0.0
  0
LTYPE
  5
3E
100
AcDbSymbolTableRecord
100
AcDbLinetypeTableRecord
  2
ACAD_ISO12W100
 70
0
  3
ISO dash double-dot __ . . __ . . __ . . __ . . 
 72
65
 73
6
 40
21.0
 49
12.0
 74
0
 49
-2.9500000000000002
 74
0
 49
0.1
 74
0
 49
-2.9000000000000004
 74
0
 49
0.1
 74
0
 49
-2.9500000000000002
 74
0
  0
LTYPE
  5
3F
100
AcDbSymbolTableRecord
100
AcDbLinetypeTableRecord
  2
ACAD_ISO02W100
 70
0
  3
ISO dash __ __ __ __ __ __ __ __ __ __ __ __ __
 72
65
 73
2
 40
15.0
 49
12.0
 74
0
 49
-3.0
 74
0
  0
LTYPE
  5
40
100
AcDbSymbolTableRecord
100
AcDbLinetypeTableRecord
  2
BORDERX2
 70
0
  3
Border (2x) ____  ____  .  ____  ____  .  ___
 72
65
 73
6
 40
88.8999999999999773
 49
25.3999999999999986
 74
0
 49
-12.6999999999999993
 74
0
 49
25.3999999999999986
 74
0
 49
-12.6499999999999986
 74
0
 49
0.1
 74
0
 49
-12.6499999999999986
 74
0
  0
LTYPE
  5
41
100
AcDbSymbolTableRecord
100
AcDbLinetypeTableRecord
  2
DIVIDE2
 70
0
  3
Divide (.5x) __..__..__..__..__..__..__..__.._
 72
65
 73
6
 40
15.8749999999999982
 49
6.3499999999999996
 74
0
 49
-3.125
 74
0
 49
0.1
 74
0
 49
-3.0750000000000002
 74
0
 49
0.1
 74
0
 49
-3.125
 74
0
  0
LTYPE
  5
42
100
AcDbSymbolTableRecord
100
AcDbLinetypeTableRecord
  2
HIDDEN2
 70
0
  3
Hidden (.5x) _ _ _ _ _ _ _ _ _ _ _ _ _ _ _ _ _ 
 72
65
 73
2
 40
4.7624999999999993
 49
3.1749999999999998
 74
0
 49
-1.5874999999999999
 74
0
  0
LTYPE
  5
43
100
AcDbSymbolTableRecord
100
AcDbLinetypeTableRecord
  2
ACAD_ISO07W100
 70
0
  3
ISO dot . . . . . . . . . . . . . . . . . . . . 
 72
65
 73
2
 40
3.0
 49
0.1
 74
0
 49
-2.8999999999999999
 74
0
  0
LTYPE
  5
44
100
AcDbSymbolTableRecord
100
AcDbLinetypeTableRecord
  2
ACAD_ISO10W100
 70
0
  3
ISO dash dot __ . __ . __ . __ . __ . __ . __ . 
 72
65
 73
4
 40
18.0
 49
12.0
 74
0
 49
-2.9500000000000002
 74
0
 49
0.1
 74
0
 49
-2.9500000000000002
 74
0
  0
LTYPE
  5
45
100
AcDbSymbolTableRecord
100
AcDbLinetypeTableRecord
  2
CENTER2
 70
0
  3
Center (.5x) ___ _ ___ _ ___ _ ___ _ ___ _ ___
 72
65
 73
4
 40
28.5750000000000028
 49
19.0500000000000007
 74
0
 49
-3.1749999999999998
 74
0
 49
3.1749999999999998
 74
0
 49
-3.1749999999999998
 74
0
  0
LTYPE
  5
15
100
AcDbSymbolTableRecord
100
AcDbLinetypeTableRecord
  2
BYLAYER
 70
0
  3

 72
65
 73
0
 40
0.0
  0
LTYPE
  5
46
100
AcDbSymbolTableRecord
100
AcDbLinetypeTableRecord
  2
DOT
 70
0
  3
Dot . . . . . . . . . . . . . . . . . . . . . . . .
 72
65
 73
2
 40
6.3499999999999996
 49
0.1
 74
0
 49
-6.25
 74
0
  0
LTYPE
  5
47
100
AcDbSymbolTableRecord
100
AcDbLinetypeTableRecord
  2
PHANTOMX2
 70
0
  3
Phantom (2x) ____________    ____    ____   _
 72
65
 73
6
 40
127.0000000000000142
 49
63.5
 74
0
 49
-12.6999999999999993
 74
0
 49
12.6999999999999993
 74
0
 49
-12.6999999999999993
 74
0
 49
12.6999999999999993
 74
0
 49
-12.6999999999999993
 74
0
  0
LTYPE
  5
48
100
AcDbSymbolTableRecord
100
AcDbLinetypeTableRecord
  2
DIVIDE
 70
0
  3
Divide ____ . . ____ . . ____ . . ____ . . ____
 72
65
 73
6
 40
31.7500000000000036
 49
12.6999999999999993
 74
0
 49
-6.2999999999999998
 74
0
 49
0.1
 74
0
 49
-6.25
 74
0
 49
0.1
 74
0
 49
-6.2999999999999998
 74
0
  0
LTYPE
  5
49
100
AcDbSymbolTableRecord
100
AcDbLinetypeTableRecord
  2
DOT2
 70
0
  3
Dot (.5x) ........................................
 72
65
 73
2
 40
3.1749999999999998
 49
0.1
 74
0
 49
-3.0749999999999997
 74
0
  0
LTYPE
  5
4A
100
AcDbSymbolTableRecord
100
AcDbLinetypeTableRecord
  2
DIVIDEX2
 70
0
  3
Divide (2x) ________  .  .  ________  .  .  _
 72
65
 73
6
 40
63.5
 49
25.3999999999999986
 74
0
 49
-12.6499999999999986
 74
0
 49
0.1
 74
0
 49
-12.5999999999999979
 74
0
 49
0.1
 74
0
 49
-12.6499999999999986
 74
0
  0
LTYPE
  5
4B
100
AcDbSymbolTableRecord
100
AcDbLinetypeTableRecord
  2
DOTX2
 70
0
  3
Dot (2x) .  .  .  .  .  .  .  .  .  .  .  .  .  .
 72
65
 73
2
 40
12.6999999999999993
 49
0.1
 74
0
 49
-12.5999999999999996
 74
0
  0
LTYPE
  5
4C
100
AcDbSymbolTableRecord
100
AcDbLinetypeTableRecord
  2
BORDER2
 70
0
  3
Border (.5x) __.__.__.__.__.__.__.__.__.__.__.
 72
65
 73
6
 40
22.2250000000000014
 49
6.3499999999999996
 74
0
 49
-3.1749999999999998
 74
0
 49
6.3499999999999996
 74
0
 49
-3.125
 74
0
 49
0.1
 74
0
 49
-3.125
 74
0
  0
LTYPE
  5
4D
100
AcDbSymbolTableRecord
100
AcDbLinetypeTableRecord
  2
DASHED2
 70
0
  3
Dashed (.5x) _ _ _ _ _ _ _ _ _ _ _ _ _ _ _ _ _ 
 72
65
 73
2
 40
9.5249999999999986
 49
6.3499999999999996
 74
0
 49
-3.1749999999999998
 74
0
  0
LTYPE
  5
4E
100
AcDbSymbolTableRecord
100
AcDbLinetypeTableRecord
  2
CENTER
 70
0
  3
Center ____ _ ____ _ ____ _ ____ _ ____ _ ____
 72
65
 73
4
 40
50.8000000000000043
 49
31.75
 74
0
 49
-6.3499999999999996
 74
0
 49
6.3499999999999996
 74
0
 49
-6.3499999999999996
 74
0
  0
LTYPE
  5
4F
100
AcDbSymbolTableRecord
100
AcDbLinetypeTableRecord
  2
BORDER
 70
0
  3
Border __ __ . __ __ . __ __ . __ __ . __ __ .
 72
65
 73
6
 40
44.4499999999999957
 49
12.6999999999999993
 74
0
 49
-6.3499999999999996
 74
0
 49
12.6999999999999993
 74
0
 49
-6.2999999999999998
 74
0
 49
0.1
 74
0
 49
-6.2999999999999998
 74
0
  0
LTYPE
  5
50
100
AcDbSymbolTableRecord
100
AcDbLinetypeTableRecord
  2
HIDDENX2
 70
0
  3
Hidden (2x) ____ ____ ____ ____ ____ ____ ____ 
 72
65
 73
2
 40
19.0499999999999972
 49
12.6999999999999993
 74
0
 49
-6.3499999999999996
 74
0
  0
LTYPE
  5
51
100
AcDbSymbolTableRecord
100
AcDbLinetypeTableRecord
  2
ACAD_ISO05W100
 70
0
  3
ISO long-dash double-dot ____ .. ____ .. ____ . 
 72
65
 73
6
 40
33.0000000000000071
 49
24.0
 74
0
 49
-2.9500000000000002
 74
0
 49
0.1
 74
0
 49
-2.9000000000000004
 74
0
 49
0.1
 74
0
 49
-2.9500000000000002
 74
0
  0
LTYPE
  5
52
100
AcDbSymbolTableRecord
100
AcDbLinetypeTableRecord
  2
ACAD_ISO14W100
 70
0
  3
ISO dash triple-dot __ . . . __ . . . __ . . . _
 72
65
 73
8
 40
24.0000000000000036
 49
12.0
 74
0
 49
-2.9500000000000002
 74
0
 49
0.1
 74
0
 49
-2.9000000000000004
 74
0
 49
0.1
 74
0
 49
-2.9000000000000004
 74
0
 49
0.1
 74
0
 49
-2.9500000000000002
 74
0
  0
LTYPE
  5
53
100
AcDbSymbolTableRecord
100
AcDbLinetypeTableRecord
  2
ACAD_ISO11W100
 70
0
  3
ISO double-dash dot __ __ . __ __ . __ __ . __ _
 72
65
 73
6
 40
33.0
 49
12.0
 74
0
 49
-3.0
 74
0
 49
12.0
 74
0
 49
-2.9500000000000002
 74
0
 49
0.1
 74
0
 49
-2.9500000000000002
 74
0
  0
LTYPE
  5
54
100
AcDbSymbolTableRecord
100
AcDbLinetypeTableRecord
  2
DASHDOT
 70
0
  3
Dash dot __ . __ . __ . __ . __ . __ . __ . __
 72
65
 73
4
 40
25.4000000000000021
 49
12.6999999999999993
 74
0
 49
-6.2999999999999998
 74
0
 49
0.1
 74
0
 49
-6.2999999999999998
 74
0
  0
LTYPE
  5
55
100
AcDbSymbolTableRecord
100
AcDbLinetypeTableRecord
  2
PHANTOM
 70
0
  3
Phantom ______  __  __  ______  __  __  ______ 
 72
65
 73
6
 40
63.5000000000000071
 49
31.75
 74
0
 49
-6.3499999999999996
 74
0
 49
6.3499999999999996
 74
0
 49
-6.3499999999999996
 74
0
 49
6.3499999999999996
 74
0
 49
-6.3499999999999996
 74
0
  0
LTYPE
  5
56
100
AcDbSymbolTableRecord
100
AcDbLinetypeTableRecord
  2
DASHED
 70
0
  3
Dashed __ __ __ __ __ __ __ __ __ __ __ __ __ _
 72
65
 73
2
 40
19.0499999999999972
 49
12.6999999999999993
 74
0
 49
-6.3499999999999996
 74
0
  0
ENDTAB
  0
TABLE
  2
LAYER
  5
2
100
AcDbSymbolTable
 70
6
  0
LAYER
  5
10
100
AcDbSymbolTableRecord
100
AcDbLayerTableRecord
  2
0
 70
0
 62
54
420
8421376
  6
Continuous
370
20
390
F
  0
LAYER
  5
57
100
AcDbSymbolTableRecord
100
AcDbLayerTableRecord
  2
imperfections
 70
4
 62
2
420
16776960
  6
Continuous
370
9
390
F
  0
LAYER
  5
58
100
AcDbSymbolTableRecord
100
AcDbLayerTableRecord
  2
new-size
 70
0
 62
4
420
65535
  6
HIDDENX2
370
0
390
F
  0
LAYER
  5
59
100
AcDbSymbolTableRecord
100
AcDbLayerTableRecord
  2
sketch
 70
4
 62
14
420
8388608
  6
HIDDENX2
370
0
390
F
  0
LAYER
  5
5A
100
AcDbSymbolTableRecord
100
AcDbLayerTableRecord
  2
new-cuts
 70
0
 62
7
420
16777215
  6
Continuous
370
20
390
F
  0
LAYER
  5
5B
100
AcDbSymbolTableRecord
100
AcDbLayerTableRecord
  2
panel-borders
 70
0
 62
3
420
65280
  6
Continuous
370
0
390
F
  0
ENDTAB
  0
TABLE
  2
STYLE
  5
3
100
AcDbSymbolTable
 70
1
  0
STYLE
  5
5C
100
AcDbSymbolTableRecord
100
AcDbTextStyleTableRecord
  2
Standard
 70
0
 40
0.0
 41
1.0
 50
0.0
 71
0
 42
2.5
  3

  4

1001
ACAD
1000
txt
1071
0
  0
ENDTAB
  0
TABLE
  2
VIEW
  5
6
100
AcDbSymbolTable
 70
0
  0
ENDTAB
  0
TABLE
  2
UCS
  5
7
100
AcDbSymbolTable
 70
0
  0
ENDTAB
  0
TABLE
  2
APPID
  5
9
100
AcDbSymbolTable
 70
1
  0
APPID
  5
12
100
AcDbSymbolTableRecord
100
AcDbRegAppTableRecord
  2
ACAD
 70
0
  0
APPID
  5
5D
100
AcDbSymbolTableRecord
100
AcDbRegAppTableRecord
  2
QCAD
 70
0
  0
ENDTAB
  0
TABLE
  2
DIMSTYLE
  5
A
100
AcDbSymbolTable
 70
1
100
AcDbDimStyleTable
 71
0
  0
DIMSTYLE
105
27
100
AcDbSymbolTableRecord
100
AcDbDimStyleTableRecord
  2
Standard
 41
2.5
 42
0.625
 43
3.75
 44
1.25
 70
0
 73
0
 74
0
 77
1
 78
8
140
2.5
141
2.5
143
0.03937007874016
147
0.625
171
3
172
1
271
2
272
2
274
3
278
44
283
0
284
8
340
5C
  0
ENDTAB
  0
TABLE
  2
BLOCK_RECORD
  5
1
100
AcDbSymbolTable
 70
1
  0
BLOCK_RECORD
  5
1F
100
AcDbSymbolTableRecord
100
AcDbBlockTableRecord
  2
*Model_Space
340
22
  0
BLOCK_RECORD
  5
1B
100
AcDbSymbolTableRecord
100
AcDbBlockTableRecord
  2
*Paper_Space
340
1E
  0
BLOCK_RECORD
  5
23
100
AcDbSymbolTableRecord
100
AcDbBlockTableRecord
  2
*Paper_Space0
340
26
  0
BLOCK_RECORD
  5
5E
100
AcDbSymbolTableRecord
100
AcDbBlockTableRecord
  2
hole
340
0
  0
BLOCK_RECORD
  5
5F
100
AcDbSymbolTableRecord
100
AcDbBlockTableRecord
  2
hole-direct
340
0
  0
ENDTAB
  0
ENDSEC
  0
SECTION
  2
BLOCKS
  0
BLOCK
  5
20
100
AcDbEntity
  8
0
100
AcDbBlockBegin
  2
*Model_Space
 70
0
 10
0.0
 20
0.0
 30
0.0
  3
*Model_Space
  1

  0
ENDBLK
  5
21
100
AcDbEntity
  8
0
100
AcDbBlockEnd
  0
BLOCK
  5
1C
100
AcDbEntity
 67
1
  8
0
100
AcDbBlockBegin
  2
*Paper_Space
 70
0
 10
0.0
 20
0.0
 30
0.0
  3
*Paper_Space
  1

  0
ENDBLK
  5
1D
100
AcDbEntity
 67
1
  8
0
100
AcDbBlockEnd
  0
BLOCK
  5
24
100
AcDbEntity
  8
0
100
AcDbBlockBegin
  2
*Paper_Space0
 70
0
 10
0.0
 20
0.0
 30
0.0
  3
*Paper_Space0
  1

  0
ENDBLK
  5
25
100
AcDbEntity
  8
0
100
AcDbBlockEnd
  0
BLOCK
  5
60
100
AcDbEntity
  8
0
100
AcDbBlockBegin
  2
hole
 70
0
 10
0.0
 20
0.0
 30
0.0
  3
hole
  1

  0
CIRCLE
  5
61
100
AcDbEntity
  8
new-cuts
 62
256
370
-1
 48
1.0
  6
BYLAYER
100
AcDbCircle
 10
10.0
 20
10.0
 30
0.0
 40
1.0
  0
ENDBLK
  5
62
100
AcDbEntity
  8
0
100
AcDbBlockEnd
  0
BLOCK
  5
63
100
AcDbEntity
  8
0
100
AcDbBlockBegin
  2
hole-direct
 70
0
 10
0.0
 20
0.0
 30
0.0
  3
hole-direct
  1

  0
CIRCLE
  5
64
100
AcDbEntity
  8
new-cuts
 62
256
370
-1
 48
1.0
  6
BYLAYER
100
AcDbCircle
 10
0.0
 20
10.0
 30
0.0
 40
1.0
  0
ENDBLK
  5
65
100
AcDbEntity
  8
0
100
AcDbBlockEnd
  0
ENDSEC
  0
SECTION
  2
ENTITIES
  0
LINE
  5
66
100
AcDbEntity
  8
sketch
 62
256
370
-1
 48
1.0
  6
BYLAYER
100
AcDbLine
 10
-280.0000000000001137
 20
0.0
 30
0.0
 11
279.9999999999998863
 21
0.0
 31
0.0
  0
LINE
  5
67
100
AcDbEntity
  8
sketch
 62
256
370
-1
 48
1.0
  6
BYLAYER
100
AcDbLine
 10
279.9999999999998863
 20
0.0
 30
0.0
 11
829.9999999999998863
 21
0.0
 31
0.0
  0
LINE
  5
68
100
AcDbEntity
  8
sketch
 62
256
370
-1
 48
1.0
  6
BYLAYER
100
AcDbLine
 10
-830.0000000000001137
 20
0.0
 30
0.0
 11
-280.0000000000001137
 21
0.0
 31
0.0
  0
LINE
  5
69
100
AcDbEntity
  8
sketch
 62
256
370
-1
 48
1.0
  6
BYLAYER
100
AcDbLine
 10
-1075.0
 20
0.0
 30
0.0
 11
-830.0000000000001137
 21
0.0
 31
0.0
  0
LINE
  5
6A
100
AcDbEntity
  8
sketch
 62
256
370
-1
 48
1.0
  6
BYLAYER
100
AcDbLine
 10
829.9999999999998863
 20
0.0
 30
0.0
 11
1075.0
 21
0.0
 31
0.0
  0
LINE
  5
6B
100
AcDbEntity
  8
sketch
 62
256
370
-1
 48
1.0
  6
BYLAYER
100
AcDbLine
 10
-1500.0
 20
470.0
 30
0.0
 11
1500.0
 21
470.0
 31
0.0
  0
LINE
  5
6C
100
AcDbEntity
  8
sketch
 62
256
370
-1
 48
1.0
  6
BYLAYER
100
AcDbLine
 10
-1500.0
 20
870.0
 30
0.0
 11
1500.0
 21
870.0
 31
0.0
  0
LINE
  5
6D
100
AcDbEntity
  8
sketch
 62
256
370
-1
 48
1.0
  6
BYLAYER
100
AcDbLine
 10
-1500.0
 20
598.0
 30
0.0
 11
1500.0
 21
598.0
 31
0.0
  0
LINE
  5
6E
100
AcDbEntity
  8
sketch
 62
256
370
-1
 48
1.0
  6
BYLAYER
100
AcDbLine
 10
-1500.0
 20
630.0
 30
0.0
 11
1500.0
 21
630.0
 31
0.0
  0
LINE
  5
6F
100
AcDbEntity
  8
sketch
 62
256
370
-1
 48
1.0
  6
BYLAYER
100
AcDbLine
 10
-1500.0
 20
523.0
 30
0.0
 11
1500.0
 21
523.0
 31
0.0
  0
LINE
  5
70
100
AcDbEntity
  8
0
 62
256
370
-1
 48
1.0
  6
BYLAYER
100
AcDbLine
 10
-1075.0
 20
530.0
 30
0.0
 11
-830.0000000000001137
 21
480.0
 31
0.0
  0
LINE
  5
71
100
AcDbEntity
  8
imperfections
 62
256
370
-1
 48
1.0
  6
BYLAYER
100
AcDbLine
 10
-1050.0
 20
530.0
 30
0.0
 11
-785.0
 21
480.0
 31
0.0
  0
LINE
  5
72
100
AcDbEntity
  8
imperfections
 62
256
370
-1
 48
1.0
  6
BYLAYER
100
AcDbLine
 10
-280.0000000000000568
 20
470.0
 30
0.0
 11
279.9999999999999432
 21
470.0
 31
0.0
  0
LINE
  5
73
100
AcDbEntity
  8
0
 62
256
370
-1
 48
1.0
  6
BYLAYER
100
AcDbLine
 10
829.9999999999998863
 20
470.0
 30
0.0
 11
1075.0
 21
515.0
 31
0.0
  0
LINE
  5
74
100
AcDbEntity
  8
imperfections
 62
256
370
-1
 48
1.0
  6
BYLAYER
100
AcDbLine
 10
775.0
 20
470.0
 30
0.0
 11
1040.0
 21
515.0
 31
0.0
  0
LINE
  5
75
100
AcDbEntity
  8
sketch
 62
256
370
-1
 48
1.0
  6
BYLAYER
100
AcDbLine
 10
-1075.0
 20
0.0
 30
0.0
 11
-1075.0
 21
1200.0
 31
0.0
  0
LINE
  5
76
100
AcDbEntity
  8
sketch
 62
256
370
-1
 48
1.0
  6
BYLAYER
100
AcDbLine
 10
-830.0000000000001137
 20
0.0
 30
0.0
 11
-830.0
 21
1200.0
 31
0.0
  0
LINE
  5
77
100
AcDbEntity
  8
sketch
 62
256
370
-1
 48
1.0
  6
BYLAYER
100
AcDbLine
 10
-280.0000000000001137
 20
0.0
 30
0.0
 11
-280.0000000000000568
 21
1200.0
 31
0.0
  0
LINE
  5
78
100
AcDbEntity
  8
sketch
 62
256
370
-1
 48
1.0
  6
BYLAYER
100
AcDbLine
 10
279.9999999999998863
 20
0.0
 30
0.0
 11
279.9999999999999432
 21
1200.0
 31
0.0
  0
LINE
  5
79
100
AcDbEntity
  8
sketch
 62
256
370
-1
 48
1.0
  6
BYLAYER
100
AcDbLine
 10
829.9999999999998863
 20
0.0
 30
0.0
 11
830.0
 21
1200.0
 31
0.0
  0
LINE
  5
7A
100
AcDbEntity
  8
sketch
 62
256
370
-1
 48
1.0
  6
BYLAYER
100
AcDbLine
 10
1075.0
 20
0.0
 30
0.0
 11
1075.0
 21
1200.0
 31
0.0
  0
LINE
  5
7B
100
AcDbEntity
  8
sketch
 62
256
370
-1
 48
1.0
  6
BYLAYER
100
AcDbLine
 10
-830.0000000000001137
 20
630.0
 30
0.0
 11
-280.0000000000000568
 21
630.0
 31
0.0
  0
LINE
  5
7C
100
AcDbEntity
  8
sketch
 62
256
370
-1
 48
1.0
  6
BYLAYER
100
AcDbLine
 10
279.9999999999999432
 20
630.0
 30
0.0
 11
829.9999999999998863
 21
630.0
 31
0.0
  0
LINE
  5
7D
100
AcDbEntity
  8
sketch
 62
256
370
-1
 48
1.0
  6
BYLAYER
100
AcDbLine
 10
-360.0000000000001137
 20
530.0
 30
0.0
 11
-360.0000000000001137
 21
730.0
 31
0.0
  0
LINE
  5
7E
100
AcDbEntity
  8
sketch
 62
256
370
-1
 48
1.0
  6
BYLAYER
100
AcDbLine
 10
749.9999999999998863
 20
530.0
 30
0.0
 11
749.9999999999998863
 21
730.0
 31
0.0
  0
LINE
  5
7F
100
AcDbEntity
  8
sketch
 62
256
370
-1
 48
1.0
  6
BYLAYER
100
AcDbLine
 10
-750.0000000000001137
 20
530.0
 30
0.0
 11
-750.0000000000001137
 21
730.0
 31
0.0
  0
LINE
  5
80
100
AcDbEntity
  8
sketch
 62
256
370
-1
 48
1.0
  6
BYLAYER
100
AcDbLine
 10
359.9999999999998863
 20
530.0
 30
0.0
 11
359.9999999999998863
 21
730.0
 31
0.0
  0
LINE
  5
81
100
AcDbEntity
  8
0
 62
256
370
-1
 48
1.0
  6
BYLAYER
100
AcDbLine
 10
-1075.0
 20
523.0
 30
0.0
 11
-830.0000000000001137
 21
523.0
 31
0.0
  0
LINE
  5
82
100
AcDbEntity
  8
0
 62
256
370
-1
 48
1.0
  6
BYLAYER
100
AcDbLine
 10
-830.0000000000001137
 20
523.0
 30
0.0
 11
-830.0000000000001137
 21
598.0
 31
0.0
  0
LINE
  5
83
100
AcDbEntity
  8
0
 62
256
370
-1
 48
1.0
  6
BYLAYER
100
AcDbLine
 10
-830.0000000000001137
 20
598.0
 30
0.0
 11
-750.0000000000001137
 21
598.0
 31
0.0
  0
LINE
  5
84
100
AcDbEntity
  8
0
 62
256
370
-1
 48
1.0
  6
BYLAYER
100
AcDbLine
 10
-750.0000000000001137
 20
598.0
 30
0.0
 11
-750.0000000000001137
 21
630.0
 31
0.0
  0
LINE
  5
85
100
AcDbEntity
  8
0
 62
256
370
-1
 48
1.0
  6
BYLAYER
100
AcDbLine
 10
-750.0000000000001137
 20
630.0
 30
0.0
 11
-360.0000000000001705
 21
630.0
 31
0.0
  0
LINE
  5
86
100
AcDbEntity
  8
0
 62
256
370
-1
 48
1.0
  6
BYLAYER
100
AcDbLine
 10
-360.0000000000001705
 20
630.0
 30
0.0
 11
-360.0000000000001705
 21
598.0
 31
0.0
  0
LINE
  5
87
100
AcDbEntity
  8
0
 62
256
370
-1
 48
1.0
  6
BYLAYER
100
AcDbLine
 10
-360.0000000000001705
 20
598.0
 30
0.0
 11
-280.0000000000000568
 21
598.0
 31
0.0
  0
LINE
  5
88
100
AcDbEntity
  8
0
 62
256
370
-1
 48
1.0
  6
BYLAYER
100
AcDbLine
 10
-280.0000000000000568
 20
598.0
 30
0.0
 11
-280.0000000000000568
 21
470.0
 31
0.0
  0
LINE
  5
89
100
AcDbEntity
  8
0
 62
256
370
-1
 48
1.0
  6
BYLAYER
100
AcDbLine
 10
-280.0000000000000568
 20
470.0
 30
0.0
 11
279.9999999999999432
 21
470.0
 31
0.0
  0
LINE
  5
8A
100
AcDbEntity
  8
0
 62
256
370
-1
 48
1.0
  6
BYLAYER
100
AcDbLine
 10
279.9999999999999432
 20
470.0
 30
0.0
 11
279.9999999999999432
 21
598.0
 31
0.0
  0
LINE
  5
8B
100
AcDbEntity
  8
0
 62
256
370
-1
 48
1.0
  6
BYLAYER
100
AcDbLine
 10
279.9999999999999432
 20
598.0
 30
0.0
 11
359.9999999999998295
 21
598.0
 31
0.0
  0
LINE
  5
8C
100
AcDbEntity
  8
0
 62
256
370
-1
 48
1.0
  6
BYLAYER
100
AcDbLine
 10
359.9999999999998295
 20
598.0
 30
0.0
 11
359.9999999999998295
 21
630.0
 31
0.0
  0
LINE
  5
8D
100
AcDbEntity
  8
0
 62
256
370
-1
 48
1.0
  6
BYLAYER
100
AcDbLine
 10
359.9999999999998295
 20
630.0
 30
0.0
 11
749.9999999999998863
 21
630.0
 31
0.0
  0
LINE
  5
8E
100
AcDbEntity
  8
0
 62
256
370
-1
 48
1.0
  6
BYLAYER
100
AcDbLine
 10
749.9999999999998863
 20
630.0
 30
0.0
 11
749.9999999999998863
 21
598.0
 31
0.0
  0
LINE
  5
8F
100
AcDbEntity
  8
0
 62
256
370
-1
 48
1.0
  6
BYLAYER
100
AcDbLine
 10
749.9999999999998863
 20
598.0
 30
0.0
 11
829.9999999999998863
 21
598.0
 31
0.0
  0
LINE
  5
90
100
AcDbEntity
  8
0
 62
256
370
-1
 48
1.0
  6
BYLAYER
100
AcDbLine
 10
829.9999999999998863
 20
598.0
 30
0.0
 11
829.9999999999998863
 21
523.0
 31
0.0
  0
LINE
  5
91
100
AcDbEntity
  8
0
 62
256
370
-1
 48
1.0
  6
BYLAYER
100
AcDbLine
 10
829.9999999999998863
 20
523.0
 30
0.0
 11
1075.0
 21
523.0
 31
0.0
  0
LINE
  5
92
100
AcDbEntity
  8
sketch
 62
256
370
-1
 48
1.0
  6
BYLAYER
100
AcDbLine
 10
-685.0000000000001137
 20
0.0
 30
0.0
 11
-685.0
 21
1200.0
 31
0.0
  0
LINE
  5
93
100
AcDbEntity
  8
sketch
 62
256
370
-1
 48
1.0
  6
BYLAYER
100
AcDbLine
 10
684.9999999999998863
 20
0.0000000000000178
 30
0.0
 11
685.0
 21
1200.0
 31
0.0
  0
LINE
  5
94
100
AcDbEntity
  8
0
 62
256
370
-1
 48
1.0
  6
BYLAYER
100
AcDbLine
 10
-685.0
 20
870.0
 30
0.0
 11
685.0
 21
870.0
 31
0.0
  0
LINE
  5
95
100
AcDbEntity
  8
sketch
 62
256
370
-1
 48
1.0
  6
BYLAYER
100
AcDbLine
 10
-795.0000000000001137
 20
0.0000000000000135
 30
0.0
 11
-795.0
 21
1200.0
 31
0.0
  0
LINE
  5
96
100
AcDbEntity
  8
sketch
 62
256
370
-1
 48
1.0
  6
BYLAYER
100
AcDbLine
 10
794.9999999999998863
 20
0.0000000000000178
 30
0.0
 11
795.0
 21
1200.0
 31
0.0
  0
LINE
  5
97
100
AcDbEntity
  8
sketch
 62
256
370
-1
 48
1.0
  6
BYLAYER
100
AcDbLine
 10
907.9999999999998863
 20
0.0
 30
0.0
 11
908.0
 21
1200.0
 31
0.0
  0
LINE
  5
98
100
AcDbEntity
  8
sketch
 62
256
370
-1
 48
1.0
  6
BYLAYER
100
AcDbLine
 10
-908.0000000000001137
 20
0.0000000000000096
 30
0.0
 11
-908.0
 21
1200.0
 31
0.0
  0
LINE
  5
99
100
AcDbEntity
  8
sketch
 62
256
370
-1
 48
1.0
  6
BYLAYER
100
AcDbLine
 10
-1500.0
 20
703.0
 30
0.0
 11
1500.0
 21
703.0
 31
0.0
  0
LINE
  5
9A
100
AcDbEntity
  8
sketch
 62
256
370
-1
 48
1.0
  6
BYLAYER
100
AcDbLine
 10
-1500.0
 20
845.0
 30
0.0
 11
1500.0
 21
845.0
 31
0.0
  0
LINE
  5
9B
100
AcDbEntity
  8
0
 62
256
370
-1
 48
1.0
  6
BYLAYER
100
AcDbLine
 10
685.0
 20
870.0
 30
0.0
 11
795.0
 21
845.0
 31
0.0
  0
LINE
  5
9C
100
AcDbEntity
  8
0
 62
256
370
-1
 48
1.0
  6
BYLAYER
100
AcDbLine
 10
795.0
 20
845.0
 30
0.0
 11
908.0
 21
703.0
 31
0.0
  0
LINE
  5
9D
100
AcDbEntity
  8
0
 62
256
370
-1
 48
1.0
  6
BYLAYER
100
AcDbLine
 10
-685.0
 20
870.0
 30
0.0
 11
-795.0
 21
845.0
 31
0.0
  0
LINE
  5
9E
100
AcDbEntity
  8
0
 62
256
370
-1
 48
1.0
  6
BYLAYER
100
AcDbLine
 10
-795.0
 20
845.0
 30
0.0
 11
-908.0
 21
703.0
 31
0.0
  0
LINE
  5
9F
100
AcDbEntity
  8
new-size
 62
256
370
-1
 48
1.0
  6
BYLAYER
100
AcDbLine
 10
-760.0000000000002274
 20
845.0
 30
0.0
 11
-863.0
 21
703.0
 31
0.0
  0
LINE
  5
A0
100
AcDbEntity
  8
new-size
 62
256
370
-1
 48
1.0
  6
BYLAYER
100
AcDbLine
 10
760.0000000000004547
 20
844.9999999999998863
 30
0.0
 11
863.0000000000002274
 21
702.9999999999997726
 31
0.0
  0
LINE
  5
A1
100
AcDbEntity
  8
sketch
 62
256
370
-1
 48
1.0
  6
BYLAYER
100
AcDbLine
 10
851.9999999999998863
 20
0.0000000000000069
 30
0.0
 11
852.0
 21
1200.0
 31
0.0
  0
LINE
  5
A2
100
AcDbEntity
  8
sketch
 62
256
370
-1
 48
1.0
  6
BYLAYER
100
AcDbLine
 10
-852.0000000000001137
 20
0.0000000000000096
 30
0.0
 11
-852.0
 21
1200.0
 31
0.0
  0
CIRCLE
  5
A3
100
AcDbEntity
  8
sketch
 62
256
370
-1
 48
1.0
  6
BYLAYER
100
AcDbCircle
 10
-877.0000000000001137
 20
678.0
 30
0.0
 40
25.0
  0
CIRCLE
  5
A4
100
AcDbEntity
  8
sketch
 62
256
370
-1
 48
1.0
  6
BYLAYER
100
AcDbCircle
 10
876.9999999999998863
 20
678.0
 30
0.0
 40
25.0
  0
LINE
  5
A5
100
AcDbEntity
  8
0
 62
256
370
-1
 48
1.0
  6
BYLAYER
100
AcDbLine
 10
908.0
 20
703.0
 30
0.0
 11
877.0
 21
703.0
 31
0.0
  0
ARC
  5
A6
100
AcDbEntity
  8
0
 62
256
370
-1
 48
1.0
  6
BYLAYER
100
AcDbCircle
 10
876.9999999999998863
 20
678.0
 30
0.0
 40
25.0
100
AcDbArc
 50
89.9999999999997442
 51
270.0
  0
ARC
  5
A7
100
AcDbEntity
  8
0
 62
256
370
-1
 48
1.0
  6
BYLAYER
100
AcDbCircle
 10
-877.0000000000001137
 20
678.0
 30
0.0
 40
25.0
100
AcDbArc
 50
270.0
 51
90.0
  0
ARC
  5
A8
100
AcDbEntity
  8
new-size
 62
256
370
-1
 48
1.0
  6
BYLAYER
100
AcDbCircle
 10
-832.0
 20
678.0
 30
0.0
 40
25.0
100
AcDbArc
 50
270.0
 51
90.0
  0
ARC
  5
A9
100
AcDbEntity
  8
new-size
 62
256
370
-1
 48
1.0
  6
BYLAYER
100
AcDbCircle
 10
832.0000000000002274
 20
677.9999999999998863
 30
0.0
 40
25.0
100
AcDbArc
 50
90.0
 51
270.0
  0
LINE
  5
AA
100
AcDbEntity
  8
0
 62
256
370
-1
 48
1.0
  6
BYLAYER
100
AcDbLine
 10
-908.0000000000002274
 20
702.9999999999998863
 30
0.0
 11
-877.0000000000001137
 21
703.0
 31
0.0
  0
LINE
  5
AB
100
AcDbEntity
  8
new-size
 62
256
370
-1
 48
1.0
  6
BYLAYER
100
AcDbLine
 10
-863.0000000000002274
 20
703.0
 30
0.0
 11
-832.0
 21
703.0
 31
0.0
  0
LINE
  5
AC
100
AcDbEntity
  8
new-size
 62
256
370
-1
 48
1.0
  6
BYLAYER
100
AcDbLine
 10
863.0000000000004547
 20
702.9999999999998863
 30
0.0
 11
832.0000000000002274
 21
702.9999999999998863
 31
0.0
  0
LINE
  5
AD
100
AcDbEntity
  8
sketch
 62
256
370
-1
 48
1.0
  6
BYLAYER
100
AcDbLine
 10
-1500.0
 20
653.0
 30
0.0
 11
1500.0
 21
653.0
 31
0.0
  0
LINE
  5
AE
100
AcDbEntity
  8
sketch
 62
256
370
-1
 48
1.0
  6
BYLAYER
100
AcDbLine
 10
1030.0
 20
0.0
 30
0.0
 11
1030.0
 21
1200.0
 31
0.0
  0
LINE
  5
AF
100
AcDbEntity
  8
sketch
 62
256
370
-1
 48
1.0
  6
BYLAYER
100
AcDbLine
 10
-1030.0
 20
0.0000000000000245
 30
0.0
 11
-1030.0
 21
1200.0
 31
0.0
  0
LINE
  5
B0
100
AcDbEntity
  8
0
 62
256
370
-1
 48
1.0
  6
BYLAYER
100
AcDbLine
 10
877.0
 20
653.0
 30
0.0
 11
1030.0
 21
653.0
 31
0.0
  0
LINE
  5
B1
100
AcDbEntity
  8
0
 62
256
370
-1
 48
1.0
  6
BYLAYER
100
AcDbLine
 10
1030.0
 20
653.0
 30
0.0
 11
1075.0
 21
523.0
 31
0.0
  0
LINE
  5
B2
100
AcDbEntity
  8
0
 62
256
370
-1
 48
1.0
  6
BYLAYER
100
AcDbLine
 10
-877.0000000000001137
 20
653.0
 30
0.0
 11
-1030.0
 21
653.0
 31
0.0
  0
LINE
  5
B3
100
AcDbEntity
  8
new-size
 62
256
370
-1
 48
1.0
  6
BYLAYER
100
AcDbLine
 10
-832.0
 20
653.0
 30
0.0
 11
-1010.0
 21
653.0
 31
0.0
  0
LINE
  5
B4
100
AcDbEntity
  8
0
 62
256
370
-1
 48
1.0
  6
BYLAYER
100
AcDbLine
 10
-1030.0
 20
653.0
 30
0.0
 11
-1075.0
 21
523.0
 31
0.0
  0
LINE
  5
B5
100
AcDbEntity
  8
sketch
 62
256
370
-1
 48
1.0
  6
BYLAYER
100
AcDbLine
 10
474.9999999999998863
 20
0.0000000000000435
 30
0.0
 11
475.0
 21
1200.0
 31
0.0
  0
LINE
  5
B6
100
AcDbEntity
  8
sketch
 62
256
370
-1
 48
1.0
  6
BYLAYER
100
AcDbLine
 10
264.9999999999998863
 20
0.0000000000000692
 30
0.0
 11
265.0
 21
1200.0
 31
0.0
  0
LINE
  5
B7
100
AcDbEntity
  8
sketch
 62
256
370
-1
 48
1.0
  6
BYLAYER
100
AcDbLine
 10
-475.0000000000001137
 20
0.0
 30
0.0
 11
-475.0
 21
1200.0
 31
0.0
  0
LINE
  5
B8
100
AcDbEntity
  8
sketch
 62
256
370
-1
 48
1.0
  6
BYLAYER
100
AcDbLine
 10
-265.0000000000001137
 20
0.0
 30
0.0
 11
-265.0
 21
1200.0
 31
0.0
  0
LINE
  5
B9
100
AcDbEntity
  8
panel-borders
 62
256
370
-1
 48
1.0
  6
BYLAYER
100
AcDbLine
 10
-265.0000000000000568
 20
870.0
 30
0.0
 11
-265.0000000000000568
 21
638.0
 31
0.0
  0
LINE
  5
BA
100
AcDbEntity
  8
panel-borders
 62
256
370
-1
 48
1.0
  6
BYLAYER
100
AcDbLine
 10
-265.0000000000000568
 20
638.0
 30
0.0
 11
-280.0000000000000568
 21
638.0
 31
0.0
  0
LINE
  5
BB
100
AcDbEntity
  8
panel-borders
 62
256
370
-1
 48
1.0
  6
BYLAYER
100
AcDbLine
 10
-280.0000000000000568
 20
638.0
 30
0.0
 11
-280.0000000000000568
 21
598.0
 31
0.0
  0
LINE
  5
BC
100
AcDbEntity
  8
panel-borders
 62
256
370
-1
 48
1.0
  6
BYLAYER
100
AcDbLine
 10
264.9999999999999432
 20
870.0
 30
0.0
 11
264.9999999999999432
 21
638.0
 31
0.0
  0
LINE
  5
BD
100
AcDbEntity
  8
panel-borders
 62
256
370
-1
 48
1.0
  6
BYLAYER
100
AcDbLine
 10
264.9999999999999432
 20
638.0
 30
0.0
 11
279.9999999999999432
 21
638.0
 31
0.0
  0
LINE
  5
BE
100
AcDbEntity
  8
panel-borders
 62
256
370
-1
 48
1.0
  6
BYLAYER
100
AcDbLine
 10
279.9999999999999432
 20
638.0
 30
0.0
 11
279.9999999999999432
 21
598.0
 31
0.0
  0
LINE
  5
BF
100
AcDbEntity
  8
sketch
 62
256
370
-1
 48
1.0
  6
BYLAYER
100
AcDbLine
 10
103.9999999999991331
 20
-830.0
 30
0.0
 11
103.9999999999998721
 21
2170.0
 31
0.0
  0
LINE
  5
C0
100
AcDbEntity
  8
sketch
 62
256
370
-1
 48
1.0
  6
BYLAYER
100
AcDbLine
 10
-103.999999999998991
 20
2170.0
 30
0.0
 11
-103.9999999999997016
 21
-830.0
 31
0.0
  0
LINE
  5
C1
100
AcDbEntity
  8
sketch
 62
256
370
-1
 48
1.0
  6
BYLAYER
100
AcDbLine
 10
-475.0
 20
870.0
 30
0.0
 11
-475.0
 21
630.0
 31
0.0
  0
LINE
  5
C2
100
AcDbEntity
  8
sketch
 62
256
370
-1
 48
1.0
  6
BYLAYER
100
AcDbLine
 10
-663.0
 20
644.0
 30
0.0
 11
-287.0
 21
644.0
 31
0.0
  0
LINE
  5
C3
100
AcDbEntity
  8
sketch
 62
256
370
-1
 48
1.0
  6
BYLAYER
100
AcDbLine
 10
-287.0
 20
644.0
 30
0.0
 11
-287.0
 21
856.0
 31
0.0
  0
LINE
  5
C4
100
AcDbEntity
  8
sketch
 62
256
370
-1
 48
1.0
  6
BYLAYER
100
AcDbLine
 10
-287.0
 20
856.0
 30
0.0
 11
-663.0
 21
856.0
 31
0.0
  0
LINE
  5
C5
100
AcDbEntity
  8
sketch
 62
256
370
-1
 48
1.0
  6
BYLAYER
100
AcDbLine
 10
-663.0
 20
856.0
 30
0.0
 11
-663.0
 21
644.0
 31
0.0
  0
LINE
  5
C6
100
AcDbEntity
  8
sketch
 62
256
370
-1
 48
1.0
  6
BYLAYER
100
AcDbLine
 10
475.0
 20
870.0
 30
0.0
 11
475.0
 21
630.0
 31
0.0
  0
LINE
  5
C7
100
AcDbEntity
  8
sketch
 62
256
370
-1
 48
1.0
  6
BYLAYER
100
AcDbLine
 10
287.0
 20
644.0
 30
0.0
 11
663.0
 21
644.0
 31
0.0
  0
LINE
  5
C8
100
AcDbEntity
  8
sketch
 62
256
370
-1
 48
1.0
  6
BYLAYER
100
AcDbLine
 10
663.0
 20
644.0
 30
0.0
 11
663.0
 21
856.0
 31
0.0
  0
LINE
  5
C9
100
AcDbEntity
  8
sketch
 62
256
370
-1
 48
1.0
  6
BYLAYER
100
AcDbLine
 10
663.0
 20
856.0
 30
0.0
 11
287.0
 21
856.0
 31
0.0
  0
LINE
  5
CA
100
AcDbEntity
  8
sketch
 62
256
370
-1
 48
1.0
  6
BYLAYER
100
AcDbLine
 10
287.0
 20
856.0
 30
0.0
 11
287.0
 21
644.0
 31
0.0
  0
LINE
  5
CB
100
AcDbEntity
  8
sketch
 62
256
370
-1
 48
1.0
  6
BYLAYER
100
AcDbLine
 10
-0.0
 20
870.0
 30
0.0
 11
-0.0
 21
470.0
 31
0.0
  0
LINE
  5
CC
100
AcDbEntity
  8
sketch
 62
256
370
-1
 48
1.0
  6
BYLAYER
100
AcDbLine
 10
105.9999999999998153
 20
481.9999999999998863
 30
0.0
 11
106.0000000000000853
 21
858.0
 31
0.0
  0
LINE
  5
CD
100
AcDbEntity
  8
sketch
 62
256
370
-1
 48
1.0
  6
BYLAYER
100
AcDbLine
 10
106.0000000000000853
 20
858.0
 30
0.0
 11
-106.0000000000000142
 21
858.0
 31
0.0
  0
LINE
  5
CE
100
AcDbEntity
  8
sketch
 62
256
370
-1
 48
1.0
  6
BYLAYER
100
AcDbLine
 10
-106.0000000000000142
 20
858.0
 30
0.0
 11
-105.9999999999998863
 21
481.9999999999999432
 31
0.0
  0
LINE
  5
CF
100
AcDbEntity
  8
sketch
 62
256
370
-1
 48
1.0
  6
BYLAYER
100
AcDbLine
 10
-105.9999999999998863
 20
481.9999999999999432
 30
0.0
 11
105.9999999999998153
 21
481.9999999999998863
 31
0.0
  0
INSERT
  5
D0
100
AcDbEntity
  8
new-cuts
 62
256
370
-1
 48
1.0
  6
BYLAYER
100
AcDbBlockReference
  2
hole
 10
-704.9999999999998863
 20
630.0
 30
0.0
  0
INSERT
  5
D1
100
AcDbEntity
  8
0
 62
256
370
-1
 48
1.0
  6
BYLAYER
100
AcDbBlockReference
  2
hole
 10
-360.0000000000001137
 20
630.0
 30
0.0
 41
1.0
 42
-1.0
 43
1.0
 50
180.0
  0
INSERT
  5
D2
100
AcDbEntity
  8
0
 62
256
370
-1
 48
1.0
  6
BYLAYER
100
AcDbBlockReference
  2
hole
 10
-669.9999999999995453
 20
870.0
 30
0.0
 41
1.0
 42
-1.0
 43
1.0
  0
INSERT
  5
D3
100
AcDbEntity
  8
0
 62
256
370
-1
 48
1.0
  6
BYLAYER
100
AcDbBlockReference
  2
hole
 10
-265.0000000000000568
 20
870.0
 30
0.0
 50
180.0
  0
INSERT
  5
D4
100
AcDbEntity
  8
0
 62
256
370
-1
 48
1.0
  6
BYLAYER
100
AcDbBlockReference
  2
hole
 10
670.0
 20
870.0
 30
0.0
 50
180.0
  0
INSERT
  5
D5
100
AcDbEntity
  8
0
 62
256
370
-1
 48
1.0
  6
BYLAYER
100
AcDbBlockReference
  2
hole
 10
264.9999999999999432
 20
870.0
 30
0.0
 41
1.0
 42
-1.0
 43
1.0
  0
INSERT
  5
D6
100
AcDbEntity
  8
0
 62
256
370
-1
 48
1.0
  6
BYLAYER
100
AcDbBlockReference
  2
hole
 10
359.9999999999998863
 20
630.0
 30
0.0
  0
INSERT
  5
D7
100
AcDbEntity
  8
0
 62
256
370
-1
 48
1.0
  6
BYLAYER
100
AcDbBlockReference
  2
hole
 10
695.0000000000001137
 20
630.0
 30
0.0
 41
1.0
 42
-1.0
 43
1.0
 50
180.0
 44
1.0
 45
1.0
  0
INSERT
  5
D8
100
AcDbEntity
  8
0
 62
256
370
-1
 48
1.0
  6
BYLAYER
100
AcDbBlockReference
  2
hole
 10
-1010.0
 20
630.0
 30
0.0
  0
INSERT
  5
D9
100
AcDbEntity
  8
0
 62
256
370
-1
 48
1.0
  6
BYLAYER
100
AcDbBlockReference
  2
hole
 10
1000.0
 20
630.0
 30
0.0
 41
1.0
 42
-1.0
 43
1.0
 50
180.0
  0
INSERT
  5
DA
100
AcDbEntity
  8
0
 62
256
370
-1
 48
1.0
  6
BYLAYER
100
AcDbBlockReference
  2
hole
 10
-784.9999999999998863
 20
630.0
 30
0.0
 41
1.0
 42
-1.0
 43
1.0
 50
180.0
  0
INSERT
  5
DB
100
AcDbEntity
  8
0
 62
256
370
-1
 48
1.0
  6
BYLAYER
100
AcDbBlockReference
  2
hole
 10
785.0000000000001137
 20
630.0
 30
0.0
  0
INSERT
  5
DC
100
AcDbEntity
  8
0
 62
256
370
-1
 48
1.0
  6
BYLAYER
100
AcDbBlockReference
  2
hole-direct
 10
-280.0000000000000568
 20
598.0
 30
0.0
 50
270.0
  0
INSERT
  5
DD
100
AcDbEntity
  8
0
 62
256
370
-1
 48
1.0
  6
BYLAYER
100
AcDbBlockReference
  2
hole-direct
 10
279.9999999999999432
 20
598.0
 30
0.0
 41
1.0
 42
-1.0
 43
1.0
 50
270.0
  0
INSERT
  5
DE
100
AcDbEntity
  8
0
 62
256
370
-1
 48
1.0
  6
BYLAYER
100
AcDbBlockReference
  2
hole
 10
-265.0000000000000568
 20
870.0
 30
0.0
 50
270.0
  0
INSERT
  5
DF
100
AcDbEntity
  8
new-cuts
 62
256
370
-1
 48
1.0
  6
BYLAYER
100
AcDbBlockReference
  2
hole
 10
264.9999999999999432
 20
870.0
 30
0.0
 41
1.0
 42
-1.0
 43
1.0
 50
270.0
  0
LINE
  5
E0
100
AcDbEntity
  8
0
 62
256
370
-1
 48
1.0
  6
BYLAYER
100
AcDbLine
 10
-830.0
 20
480.0
 30
0.0
 11
-830.0
 21
523.0
 31
0.0
  0
LINE
  5
E1
100
AcDbEntity
  8
imperfections
 62
256
370
-1
 48
1.0
  6
BYLAYER
100
AcDbLine
 10
-784.9999999999998863
 20
480.0
 30
0.0
 11
-784.9999999999998863
 21
523.0
 31
0.0
  0
LINE
  5
E2
100
AcDbEntity
  8
0
 62
256
370
-1
 48
1.0
  6
BYLAYER
100
AcDbLine
 10
830.0
 20
470.0
 30
0.0
 11
829.9999999999998863
 21
523.0
 31
0.0
  0
LINE
  5
E3
100
AcDbEntity
  8
imperfections
 62
256
370
-1
 48
1.0
  6
BYLAYER
100
AcDbLine
 10
775.0000000000001137
 20
470.0
 30
0.0
 11
775.0
 21
523.0
 31
0.0
  0
LINE
  5
E4
100
AcDbEntity
  8
0
 62
256
370
-1
 48
1.0
  6
BYLAYER
100
AcDbLine
 10
1075.0
 20
515.0
 30
0.0
 11
1075.0
 21
523.0
 31
0.0
  0
LINE
  5
E5
100
AcDbEntity
  8
imperfections
 62
256
370
-1
 48
1.0
  6
BYLAYER
100
AcDbLine
 10
1040.0
 20
515.0
 30
0.0
 11
1040.0
 21
523.0
 31
0.0
  0
LINE
  5
E6
100
AcDbEntity
  8
sketch
 62
256
370
-1
 48
1.0
  6
BYLAYER
100
AcDbLine
 10
-475.0
 20
750.0000000000001137
 30
0.0
 11
-685.0
 21
750.0000000000001137
 31
0.0
  0
LINE
  5
E7
100
AcDbEntity
  8
sketch
 62
256
370
-1
 48
1.0
  6
BYLAYER
100
AcDbLine
 10
-475.0
 20
750.0000000000001137
 30
0.0
 11
-265.0000000000000568
 21
750.0000000000001137
 31
0.0
  0
LINE
  5
E8
100
AcDbEntity
  8
0
 62
256
370
-1
 48
1.0
  6
BYLAYER
100
AcDbLine
 10
-663.0
 20
662.5000000000001137
 30
0.0
 11
-488.0
 21
662.5000000000001137
 31
0.0
  0
LINE
  5
E9
100
AcDbEntity
  8
0
 62
256
370
-1
 48
1.0
  6
BYLAYER
100
AcDbLine
 10
-488.0
 20
662.5000000000001137
 30
0.0
 11
-488.0
 21
837.5000000000001137
 31
0.0
  0
LINE
  5
EA
100
AcDbEntity
  8
0
 62
256
370
-1
 48
1.0
  6
BYLAYER
100
AcDbLine
 10
-488.0
 20
837.5000000000001137
 30
0.0
 11
-663.0
 21
837.5000000000001137
 31
0.0
  0
LINE
  5
EB
100
AcDbEntity
  8
0
 62
256
370
-1
 48
1.0
  6
BYLAYER
100
AcDbLine
 10
-663.0
 20
837.5000000000001137
 30
0.0
 11
-663.0
 21
662.5000000000001137
 31
0.0
  0
LINE
  5
EC
100
AcDbEntity
  8
0
 62
256
370
-1
 48
1.0
  6
BYLAYER
100
AcDbLine
 10
-462.0
 20
662.5000000000001137
 30
0.0
 11
-287.0
 21
662.5000000000001137
 31
0.0
  0
LINE
  5
ED
100
AcDbEntity
  8
0
 62
256
370
-1
 48
1.0
  6
BYLAYER
100
AcDbLine
 10
-287.0
 20
662.5000000000001137
 30
0.0
 11
-287.0
 21
837.5000000000001137
 31
0.0
  0
LINE
  5
EE
100
AcDbEntity
  8
0
 62
256
370
-1
 48
1.0
  6
BYLAYER
100
AcDbLine
 10
-287.0
 20
837.5000000000001137
 30
0.0
 11
-462.0
 21
837.5000000000001137
 31
0.0
  0
LINE
  5
EF
100
AcDbEntity
  8
0
 62
256
370
-1
 48
1.0
  6
BYLAYER
100
AcDbLine
 10
-462.0
 20
837.5000000000001137
 30
0.0
 11
-462.0
 21
662.5000000000001137
 31
0.0
  0
LINE
  5
F0
100
AcDbEntity
  8
0
 62
256
370
-1
 48
1.0
  6
BYLAYER
100
AcDbLine
 10
488.0
 20
662.5
 30
0.0
 11
663.0
 21
662.5
 31
0.0
  0
LINE
  5
F1
100
AcDbEntity
  8
0
 62
256
370
-1
 48
1.0
  6
BYLAYER
100
AcDbLine
 10
663.0
 20
662.5
 30
0.0
 11
663.0
 21
837.5
 31
0.0
  0
LINE
  5
F2
100
AcDbEntity
  8
0
 62
256
370
-1
 48
1.0
  6
BYLAYER
100
AcDbLine
 10
663.0
 20
837.5
 30
0.0
 11
488.0
 21
837.5
 31
0.0
  0
LINE
  5
F3
100
AcDbEntity
  8
0
 62
256
370
-1
 48
1.0
  6
BYLAYER
100
AcDbLine
 10
488.0
 20
837.5
 30
0.0
 11
488.0
 21
662.5
 31
0.0
  0
LINE
  5
F4
100
AcDbEntity
  8
0
 62
256
370
-1
 48
1.0
  6
BYLAYER
100
AcDbLine
 10
287.0
 20
662.5
 30
0.0
 11
462.0
 21
662.5
 31
0.0
  0
LINE
  5
F5
100
AcDbEntity
  8
0
 62
256
370
-1
 48
1.0
  6
BYLAYER
100
AcDbLine
 10
462.0
 20
662.5
 30
0.0
 11
462.0
 21
837.5
 31
0.0
  0
LINE
  5
F6
100
AcDbEntity
  8
0
 62
256
370
-1
 48
1.0
  6
BYLAYER
100
AcDbLine
 10
462.0
 20
837.5
 30
0.0
 11
287.0
 21
837.5
 31
0.0
  0
LINE
  5
F7
100
AcDbEntity
  8
0
 62
256
370
-1
 48
1.0
  6
BYLAYER
100
AcDbLine
 10
287.0
 20
837.5
 30
0.0
 11
287.0
 21
662.5
 31
0.0
  0
LINE
  5
F8
100
AcDbEntity
  8
sketch
 62
256
370
-1
 48
1.0
  6
BYLAYER
100
AcDbLine
 10
-1500.0
 20
837.5000000000002274
 30
0.0
 11
1500.0
 21
837.5000000000002274
 31
0.0
  0
LINE
  5
F9
100
AcDbEntity
  8
sketch
 62
256
370
-1
 48
1.0
  6
BYLAYER
100
AcDbLine
 10
-815.0000000000001137
 20
0.0
 30
0.0
 11
-815.0
 21
1200.0
 31
0.0
  0
LINE
  5
FA
100
AcDbEntity
  8
sketch
 62
256
370
-1
 48
1.0
  6
BYLAYER
100
AcDbLine
 10
-1500.0
 20
690.0
 30
0.0
 11
1500.0
 21
690.0
 31
0.0
  0
LINE
  5
FB
100
AcDbEntity
  8
0
 62
256
370
-1
 48
1.0
  6
BYLAYER
100
AcDbLine
 10
-815.0000000000001137
 20
690.0
 30
0.0
 11
-685.0000000000001137
 21
690.0
 31
0.0
  0
XLINE
  5
FC
100
AcDbEntity
  8
sketch
 62
256
370
-1
 48
1.0
  6
BYLAYER
100
AcDbLine
 10
-679.5972495088408323
 20
846.2278978388998212
 30
0.0
 11
-110.0
 21
-25.0
 31
0.0
  0
LINE
  5
FD
100
AcDbEntity
  8
sketch
 62
256
370
-1
 48
1.0
  6
BYLAYER
100
AcDbLine
 10
-782.8192086964443206
 20
835.3068350894239984
 30
0.0
 11
-895.8192086964443206
 21
693.3068350894239984
 31
0.0
  0
LINE
  5
FE
100
AcDbEntity
  8
0
 62
256
370
-1
 48
1.0
  6
BYLAYER
100
AcDbLine
 10
-815.0000000000001137
 20
690.0
 30
0.0
 11
-815.0000000000001137
 21
794.8672566371681114
 31
0.0
  0
LINE
  5
FF
100
AcDbEntity
  8
0
 62
256
370
-1
 48
1.0
  6
BYLAYER
100
AcDbLine
 10
-815.0000000000001137
 20
794.8672566371681114
 30
0.0
 11
-795.0000000000001137
 21
820.0
 31
0.0
  0
CIRCLE
  5
100
100
AcDbEntity
  8
sketch
 62
256
370
-1
 48
1.0
  6
BYLAYER
100
AcDbCircle
 10
-705.0
 20
819.9445196860391434
 30
0.0
 40
20.0
  0
ARC
  5
101
100
AcDbEntity
  8
0
 62
256
370
-1
 48
1.0
  6
BYLAYER
100
AcDbCircle
 10
-705.0
 20
819.9445196860391434
 30
0.0
 40
20.0
100
AcDbArc
 50
0.0
 51
102.8042660652867255
  0
LINE
  5
102
100
AcDbEntity
  8
0
 62
256
370
-1
 48
1.0
  6
BYLAYER
100
AcDbLine
 10
-795.0000000000001137
 20
820.0000000000001137
 30
0.0
 11
-709.4324220717793423
 21
839.4471768018682951
 31
0.0
  0
LINE
  5
103
100
AcDbEntity
  8
0
 62
256
370
-1
 48
1.0
  6
BYLAYER
100
AcDbLine
 10
-685.0
 20
819.9445196860391434
 30
0.0
 11
-685.0
 21
690.0
 31
0.0
  0
XLINE
  5
104
100
AcDbEntity
  8
sketch
 62
256
370
-1
 48
1.0
  6
BYLAYER
100
AcDbLine
 10
679.5972495088408323
 20
846.2278978388998212
 30
0.0
 11
110.0
 21
-25.0
 31
0.0
  0
XLINE
  5
105
100
AcDbEntity
  8
sketch
 62
256
370
-1
 48
1.0
  6
BYLAYER
100
AcDbLine
 10
782.8192086964443206
 20
835.3068350894239984
 30
0.0
 11
113.0
 21
-142.0
 31
0.0
  0
LINE
  5
106
100
AcDbEntity
  8
sketch
 62
256
370
-1
 48
1.0
  6
BYLAYER
100
AcDbLine
 10
814.9999999999998863
 20
0.0000000000000018
 30
0.0
 11
815.0
 21
1200.0
 31
0.0
  0
CIRCLE
  5
107
100
AcDbEntity
  8
sketch
 62
256
370
-1
 48
1.0
  6
BYLAYER
100
AcDbCircle
 10
705.0
 20
819.9445196860391434
 30
0.0
 40
20.0
  0
LINE
  5
108
100
AcDbEntity
  8
0
 62
256
370
-1
 48
1.0
  6
BYLAYER
100
AcDbLine
 10
685.0
 20
819.9445196860391434
 30
0.0
 11
684.9999999999998863
 21
690.0
 31
0.0
  0
LINE
  5
109
100
AcDbEntity
  8
0
 62
256
370
-1
 48
1.0
  6
BYLAYER
100
AcDbLine
 10
685.0
 20
690.0
 30
0.0
 11
814.9999999999998863
 21
690.0
 31
0.0
  0
LINE
  5
10A
100
AcDbEntity
  8
0
 62
256
370
-1
 48
1.0
  6
BYLAYER
100
AcDbLine
 10
814.9999999999998863
 20
690.0
 30
0.0
 11
814.9999999999998863
 21
794.8672566371682251
 31
0.0
  0
LINE
  5
10B
100
AcDbEntity
  8
0
 62
256
370
-1
 48
1.0
  6
BYLAYER
100
AcDbLine
 10
814.9999999999998863
 20
794.8672566371682251
 30
0.0
 11
795.0
 21
820.0
 31
0.0
  0
LINE
  5
10C
100
AcDbEntity
  8
0
 62
256
370
-1
 48
1.0
  6
BYLAYER
100
AcDbLine
 10
795.0
 20
820.0
 30
0.0
 11
709.4324220717793423
 21
839.4471768018682951
 31
0.0
  0
ARC
  5
10D
100
AcDbEntity
  8
0
 62
256
370
-1
 48
1.0
  6
BYLAYER
100
AcDbCircle
 10
705.0
 20
819.9445196860391434
 30
0.0
 40
19.9999999999999538
100
AcDbArc
 50
77.1957339347132887
 51
180.0
  0
LINE
  5
10E
100
AcDbEntity
  8
sketch
 62
256
370
-1
 48
1.0
  6
BYLAYER
100
AcDbLine
 10
-930.0
 20
630.0
 30
0.0
 11
-930.0
 21
523.0
 31
0.0
  0
CIRCLE
  5
10F
100
AcDbEntity
  8
sketch
 62
256
370
-1
 48
1.0
  6
BYLAYER
100
AcDbCircle
 10
-930.0
 20
576.5
 30
0.0
 40
40.0
  0
CIRCLE
  5
110
100
AcDbEntity
  8
sketch
 62
256
370
-1
 48
1.0
  6
BYLAYER
100
AcDbCircle
 10
930.0
 20
576.5
 30
0.0
 40
40.0
  0
LINE
  5
111
100
AcDbEntity
  8
new-cuts
 62
256
370
-1
 48
1.0
  6
BYLAYER
100
AcDbLine
 10
-889.9999999999998863
 20
561.5883117545687355
 30
0.0
 11
-889.9999999999998863
 21
591.4116882454312645
 31
0.0
  0
LINE
  5
112
100
AcDbEntity
  8
new-cuts
 62
256
370
-1
 48
1.0
  6
BYLAYER
100
AcDbLine
 10
970.0000000000001137
 20
561.5883117545687355
 30
0.0
 11
970.0000000000001137
 21
591.4116882454312645
 31
0.0
  0
ARC
  5
113
100
AcDbEntity
  8
new-cuts
 62
256
370
-1
 48
1.0
  6
BYLAYER
100
AcDbCircle
 10
-893.9999999999998863
 20
591.4116882454312645
 30
0.0
 40
4.0
100
AcDbArc
 50
0.0
 51
45.0
  0
ARC
  5
114
100
AcDbEntity
  8
new-cuts
 62
256
370
-1
 48
1.0
  6
BYLAYER
100
AcDbCircle
 10
966.0000000000001137
 20
591.4116882454312645
 30
0.0
 40
4.0
100
AcDbArc
 50
0.0
 51
45.0
  0
LINE
  5
115
100
AcDbEntity
  8
new-cuts
 62
256
370
-1
 48
1.0
  6
BYLAYER
100
AcDbLine
 10
-891.1715728752536734
 20
594.2401153701774774
 30
0.0
 11
-912.2598846298225226
 21
615.3284271247460993
 31
0.0
  0
LINE
  5
116
100
AcDbEntity
  8
new-cuts
 62
256
370
-1
 48
1.0
  6
BYLAYER
100
AcDbLine
 10
968.8284271247463266
 20
594.2401153701774774
 30
0.0
 11
947.7401153701774774
 21
615.3284271247460993
 31
0.0
  0
ARC
  5
117
100
AcDbEntity
  8
new-cuts
 62
256
370
-1
 48
1.0
  6
BYLAYER
100
AcDbCircle
 10
-915.0883117545686218
 20
612.4999999999998863
 30
0.0
 40
4.0
100
AcDbArc
 50
45.0000000000011582
 51
90.0
  0
ARC
  5
118
100
AcDbEntity
  8
new-cuts
 62
256
370
-1
 48
1.0
  6
BYLAYER
100
AcDbCircle
 10
944.9116882454313782
 20
612.4999999999998863
 30
0.0
 40
4.0
100
AcDbArc
 50
45.0000000000011582
 51
90.0
  0
LINE
  5
119
100
AcDbEntity
  8
new-cuts
 62
256
370
-1
 48
1.0
  6
BYLAYER
100
AcDbLine
 10
-915.0883117545686218
 20
616.4999999999998863
 30
0.0
 11
-944.9116882454316055
 21
616.4999999999998863
 31
0.0
  0
LINE
  5
11A
100
AcDbEntity
  8
new-cuts
 62
256
370
-1
 48
1.0
  6
BYLAYER
100
AcDbLine
 10
944.9116882454313782
 20
616.4999999999998863
 30
0.0
 11
915.0883117545683945
 21
616.4999999999998863
 31
0.0
  0
ARC
  5
11B
100
AcDbEntity
  8
new-cuts
 62
256
370
-1
 48
1.0
  6
BYLAYER
100
AcDbCircle
 10
-944.9116882454316055
 20
612.4999999999998863
 30
0.0
 40
4.0
100
AcDbArc
 50
90.0
 51
135.0000000000011369
  0
ARC
  5
11C
100
AcDbEntity
  8
new-cuts
 62
256
370
-1
 48
1.0
  6
BYLAYER
100
AcDbCircle
 10
915.0883117545683945
 20
612.4999999999998863
 30
0.0
 40
4.0
100
AcDbArc
 50
90.0
 51
135.0000000000011369
  0
LINE
  5
11D
100
AcDbEntity
  8
new-cuts
 62
256
370
-1
 48
1.0
  6
BYLAYER
100
AcDbLine
 10
-947.7401153701778185
 20
615.3284271247459856
 30
0.0
 11
-968.8284271247462129
 21
594.2401153701775911
 31
0.0
  0
LINE
  5
11E
100
AcDbEntity
  8
new-cuts
 62
256
370
-1
 48
1.0
  6
BYLAYER
100
AcDbLine
 10
912.2598846298221815
 20
615.3284271247459856
 30
0.0
 11
891.1715728752537871
 21
594.2401153701775911
 31
0.0
  0
ARC
  5
11F
100
AcDbEntity
  8
new-cuts
 62
256
370
-1
 48
1.0
  6
BYLAYER
100
AcDbCircle
 10
-966.0
 20
591.4116882454313782
 30
0.0
 40
4.0
100
AcDbArc
 50
135.0
 51
180.0
  0
ARC
  5
120
100
AcDbEntity
  8
new-cuts
 62
256
370
-1
 48
1.0
  6
BYLAYER
100
AcDbCircle
 10
894.0
 20
591.4116882454313782
 30
0.0
 40
4.0
100
AcDbArc
 50
135.0
 51
180.0
  0
LINE
  5
121
100
AcDbEntity
  8
new-cuts
 62
256
370
-1
 48
1.0
  6
BYLAYER
100
AcDbLine
 10
-970.0
 20
591.4116882454313782
 30
0.0
 11
-970.0
 21
561.5883117545685081
 31
0.0
  0
LINE
  5
122
100
AcDbEntity
  8
new-cuts
 62
256
370
-1
 48
1.0
  6
BYLAYER
100
AcDbLine
 10
890.0
 20
591.4116882454313782
 30
0.0
 11
890.0
 21
561.5883117545685081
 31
0.0
  0
ARC
  5
123
100
AcDbEntity
  8
new-cuts
 62
256
370
-1
 48
1.0
  6
BYLAYER
100
AcDbCircle
 10
-966.0
 20
561.5883117545685081
 30
0.0
 40
4.0
100
AcDbArc
 50
180.0
 51
224.9999999999988347
  0
ARC
  5
124
100
AcDbEntity
  8
new-cuts
 62
256
370
-1
 48
1.0
  6
BYLAYER
100
AcDbCircle
 10
894.0
 20
561.5883117545685081
 30
0.0
 40
4.0
100
AcDbArc
 50
180.0
 51
224.9999999999988347
  0
LINE
  5
125
100
AcDbEntity
  8
new-cuts
 62
256
370
-1
 48
1.0
  6
BYLAYER
100
AcDbLine
 10
-968.8284271247462129
 20
558.7598846298224089
 30
0.0
 11
-947.7401153701775911
 21
537.6715728752537871
 31
0.0
  0
LINE
  5
126
100
AcDbEntity
  8
new-cuts
 62
256
370
-1
 48
1.0
  6
BYLAYER
100
AcDbLine
 10
891.1715728752537871
 20
558.7598846298224089
 30
0.0
 11
912.2598846298224089
 21
537.6715728752537871
 31
0.0
  0
ARC
  5
127
100
AcDbEntity
  8
new-cuts
 62
256
370
-1
 48
1.0
  6
BYLAYER
100
AcDbCircle
 10
-944.9116882454313782
 20
540.5
 30
0.0
 40
4.0
100
AcDbArc
 50
225.0
 51
270.0
  0
ARC
  5
128
100
AcDbEntity
  8
new-cuts
 62
256
370
-1
 48
1.0
  6
BYLAYER
100
AcDbCircle
 10
915.0883117545686218
 20
540.5
 30
0.0
 40
4.0
100
AcDbArc
 50
225.0
 51
270.0
  0
LINE
  5
129
100
AcDbEntity
  8
new-cuts
 62
256
370
-1
 48
1.0
  6
BYLAYER
100
AcDbLine
 10
-944.9116882454313782
 20
536.5
 30
0.0
 11
-915.0883117545687355
 21
536.5
 31
0.0
  0
LINE
  5
12A
100
AcDbEntity
  8
new-cuts
 62
256
370
-1
 48
1.0
  6
BYLAYER
100
AcDbLine
 10
915.0883117545686218
 20
536.5
 30
0.0
 11
944.9116882454312645
 21
536.5
 31
0.0
  0
ARC
  5
12B
100
AcDbEntity
  8
new-cuts
 62
256
370
-1
 48
1.0
  6
BYLAYER
100
AcDbCircle
 10
-915.0883117545687355
 20
540.5
 30
0.0
 40
4.0
100
AcDbArc
 50
270.0
 51
315.0000000000011369
  0
ARC
  5
12C
100
AcDbEntity
  8
new-cuts
 62
256
370
-1
 48
1.0
  6
BYLAYER
100
AcDbCircle
 10
944.9116882454312645
 20
540.5
 30
0.0
 40
4.0
100
AcDbArc
 50
270.0
 51
315.0000000000011369
  0
LINE
  5
12D
100
AcDbEntity
  8
new-cuts
 62
256
370
-1
 48
1.0
  6
BYLAYER
100
AcDbLine
 10
-912.2598846298225226
 20
537.6715728752539007
 30
0.0
 11
-891.1715728752536734
 21
558.7598846298225226
 31
0.0
  0
LINE
  5
12E
100
AcDbEntity
  8
new-cuts
 62
256
370
-1
 48
1.0
  6
BYLAYER
100
AcDbLine
 10
947.7401153701774774
 20
537.6715728752539007
 30
0.0
 11
968.8284271247463266
 21
558.7598846298225226
 31
0.0
  0
ARC
  5
12F
100
AcDbEntity
  8
new-cuts
 62
256
370
-1
 48
1.0
  6
BYLAYER
100
AcDbCircle
 10
-893.9999999999998863
 20
561.5883117545687355
 30
0.0
 40
4.0
100
AcDbArc
 50
315.0
 51
0.0
  0
ARC
  5
130
100
AcDbEntity
  8
new-cuts
 62
256
370
-1
 48
1.0
  6
BYLAYER
100
AcDbCircle
 10
966.0000000000001137
 20
561.5883117545687355
 30
0.0
 40
4.0
100
AcDbArc
 50
315.0
 51
0.0
  0
LINE
  5
131
100
AcDbEntity
  8
sketch
 62
256
370
-1
 48
1.0
  6
BYLAYER
100
AcDbLine
 10
930.0
 20
630.0
 30
0.0
 11
930.0
 21
523.0
 31
0.0
  0
LINE
  5
132
100
AcDbEntity
  8
0
 62
256
370
-1
 48
1.0
  6
BYLAYER
100
AcDbLine
 10
-87.5
 20
481.9999999999999432
 30
0.0
 11
87.5
 21
481.9999999999999432
 31
0.0
  0
LINE
  5
133
100
AcDbEntity
  8
0
 62
256
370
-1
 48
1.0
  6
BYLAYER
100
AcDbLine
 10
87.5
 20
481.9999999999999432
 30
0.0
 11
87.5
 21
657.0
 31
0.0
  0
LINE
  5
134
100
AcDbEntity
  8
0
 62
256
370
-1
 48
1.0
  6
BYLAYER
100
AcDbLine
 10
87.5
 20
657.0
 30
0.0
 11
-87.5
 21
657.0
 31
0.0
  0
LINE
  5
135
100
AcDbEntity
  8
0
 62
256
370
-1
 48
1.0
  6
BYLAYER
100
AcDbLine
 10
-87.5
 20
657.0
 30
0.0
 11
-87.5
 21
481.9999999999999432
 31
0.0
  0
LINE
  5
136
100
AcDbEntity
  8
0
 62
256
370
-1
 48
1.0
  6
BYLAYER
100
AcDbLine
 10
-87.5
 20
675.0
 30
0.0
 11
87.5
 21
675.0
 31
0.0
  0
LINE
  5
137
100
AcDbEntity
  8
0
 62
256
370
-1
 48
1.0
  6
BYLAYER
100
AcDbLine
 10
87.5
 20
675.0
 30
0.0
 11
87.5
 21
850.0
 31
0.0
  0
LINE
  5
138
100
AcDbEntity
  8
0
 62
256
370
-1
 48
1.0
  6
BYLAYER
100
AcDbLine
 10
87.5
 20
850.0
 30
0.0
 11
-87.5
 21
850.0
 31
0.0
  0
LINE
  5
139
100
AcDbEntity
  8
0
 62
256
370
-1
 48
1.0
  6
BYLAYER
100
AcDbLine
 10
-87.5
 20
850.0
 30
0.0
 11
-87.5
 21
675.0
 31
0.0
  0
LINE
  5
13A
100
AcDbEntity
  8
sketch
 62
256
370
-1
 48
1.0
  6
BYLAYER
100
AcDbLine
 10
-119.9999999999996589
 20
2170.0
 30
0.0
 11
-120.0000000000003695
 21
-830.0
 31
0.0
  0
LINE
  5
13B
100
AcDbEntity
  8
sketch
 62
256
370
-1
 48
1.0
  6
BYLAYER
100
AcDbLine
 10
119.9999999999996163
 20
-830.0
 30
0.0
 11
120.0000000000003553
 21
2170.0
 31
0.0
  0
LINE
  5
13C
100
AcDbEntity
  8
new-cuts
 62
256
370
-1
 48
1.0
  6
BYLAYER
100
AcDbLine
 10
123.9999999999999574
 20
480.0
 30
0.0
 11
245.9999999999999432
 21
480.0
 31
0.0
  0
ARC
  5
13D
100
AcDbEntity
  8
new-cuts
 62
256
370
-1
 48
1.0
  6
BYLAYER
100
AcDbCircle
 10
245.9999999999999432
 20
484.0
 30
0.0
 40
4.0
100
AcDbArc
 50
270.0
 51
0.0
  0
LINE
  5
13E
100
AcDbEntity
  8
new-cuts
 62
256
370
-1
 48
1.0
  6
BYLAYER
100
AcDbLine
 10
249.9999999999999432
 20
484.0
 30
0.0
 11
249.9999999999999432
 21
556.0
 31
0.0
  0
ARC
  5
13F
100
AcDbEntity
  8
new-cuts
 62
256
370
-1
 48
1.0
  6
BYLAYER
100
AcDbCircle
 10
245.9999999999999432
 20
556.0
 30
0.0
 40
4.0
100
AcDbArc
 50
0.0
 51
90.0
  0
LINE
  5
140
100
AcDbEntity
  8
new-cuts
 62
256
370
-1
 48
1.0
  6
BYLAYER
100
AcDbLine
 10
245.9999999999999432
 20
560.0
 30
0.0
 11
123.9999999999999574
 21
560.0
 31
0.0
  0
ARC
  5
141
100
AcDbEntity
  8
new-cuts
 62
256
370
-1
 48
1.0
  6
BYLAYER
100
AcDbCircle
 10
123.9999999999999574
 20
556.0
 30
0.0
 40
4.0
100
AcDbArc
 50
90.0
 51
180.0
  0
LINE
  5
142
100
AcDbEntity
  8
new-cuts
 62
256
370
-1
 48
1.0
  6
BYLAYER
100
AcDbLine
 10
119.9999999999999574
 20
556.0
 30
0.0
 11
119.9999999999999574
 21
484.0
 31
0.0
  0
ARC
  5
143
100
AcDbEntity
  8
new-cuts
 62
256
370
-1
 48
1.0
  6
BYLAYER
100
AcDbCircle
 10
123.9999999999999574
 20
484.0
 30
0.0
 40
4.0
100
AcDbArc
 50
180.0
 51
270.0
  0
LINE
  5
144
100
AcDbEntity
  8
new-cuts
 62
256
370
-1
 48
1.0
  6
BYLAYER
100
AcDbLine
 10
-246.0000000000000568
 20
480.0
 30
0.0
 11
-124.0000000000000426
 21
480.0
 31
0.0
  0
ARC
  5
145
100
AcDbEntity
  8
new-cuts
 62
256
370
-1
 48
1.0
  6
BYLAYER
100
AcDbCircle
 10
-124.0000000000000426
 20
484.0
 30
0.0
 40
4.0
100
AcDbArc
 50
270.0
 51
0.0
  0
LINE
  5
146
100
AcDbEntity
  8
new-cuts
 62
256
370
-1
 48
1.0
  6
BYLAYER
100
AcDbLine
 10
-120.0000000000000426
 20
484.0
 30
0.0
 11
-120.0000000000000426
 21
556.0
 31
0.0
  0
ARC
  5
147
100
AcDbEntity
  8
new-cuts
 62
256
370
-1
 48
1.0
  6
BYLAYER
100
AcDbCircle
 10
-124.0000000000000426
 20
556.0
 30
0.0
 40
4.0
100
AcDbArc
 50
0.0
 51
90.0
  0
LINE
  5
148
100
AcDbEntity
  8
new-cuts
 62
256
370
-1
 48
1.0
  6
BYLAYER
100
AcDbLine
 10
-124.0000000000000426
 20
560.0
 30
0.0
 11
-246.0000000000000568
 21
560.0
 31
0.0
  0
ARC
  5
149
100
AcDbEntity
  8
new-cuts
 62
256
370
-1
 48
1.0
  6
BYLAYER
100
AcDbCircle
 10
-246.0000000000000568
 20
556.0
 30
0.0
 40
4.0
100
AcDbArc
 50
90.0
 51
180.0
  0
LINE
  5
14A
100
AcDbEntity
  8
new-cuts
 62
256
370
-1
 48
1.0
  6
BYLAYER
100
AcDbLine
 10
-250.0000000000000568
 20
556.0
 30
0.0
 11
-250.0000000000000568
 21
484.0
 31
0.0
  0
ARC
  5
14B
100
AcDbEntity
  8
new-cuts
 62
256
370
-1
 48
1.0
  6
BYLAYER
100
AcDbCircle
 10
-246.0000000000000568
 20
484.0
 30
0.0
 40
4.0
100
AcDbArc
 50
180.0
 51
270.0
  0
LINE
  5
14C
100
AcDbEntity
  8
sketch
 62
256
370
-1
 48
1.0
  6
BYLAYER
100
AcDbLine
 10
-1500.0
 20
680.0
 30
0.0
 11
1500.0
 21
680.0
 31
0.0
  0
LINE
  5
14D
100
AcDbEntity
  8
sketch
 62
256
370
-1
 48
1.0
  6
BYLAYER
100
AcDbLine
 10
-120.0
 20
680.0
 30
0.0
 11
-190.0
 21
680.0
 31
0.0
  0
LINE
  5
14E
100
AcDbEntity
  8
sketch
 62
256
370
-1
 48
1.0
  6
BYLAYER
100
AcDbLine
 10
-190.0
 20
680.0
 30
0.0
 11
-190.0
 21
750.0
 31
0.0
  0
LINE
  5
14F
100
AcDbEntity
  8
sketch
 62
256
370
-1
 48
1.0
  6
BYLAYER
100
AcDbLine
 10
-190.0
 20
750.0
 30
0.0
 11
-120.0
 21
750.0
 31
0.0
  0
LINE
  5
150
100
AcDbEntity
  8
sketch
 62
256
370
-1
 48
1.0
  6
BYLAYER
100
AcDbLine
 10
-120.0
 20
750.0
 30
0.0
 11
-120.0
 21
680.0
 31
0.0
  0
LINE
  5
151
100
AcDbEntity
  8
sketch
 62
256
370
-1
 48
1.0
  6
BYLAYER
100
AcDbLine
 10
119.9999999999999716
 20
680.0
 30
0.0
 11
190.0
 21
680.0
 31
0.0
  0
LINE
  5
152
100
AcDbEntity
  8
sketch
 62
256
370
-1
 48
1.0
  6
BYLAYER
100
AcDbLine
 10
190.0
 20
680.0
 30
0.0
 11
190.0
 21
750.0
 31
0.0
  0
LINE
  5
153
100
AcDbEntity
  8
sketch
 62
256
370
-1
 48
1.0
  6
BYLAYER
100
AcDbLine
 10
190.0
 20
750.0
 30
0.0
 11
119.9999999999999716
 21
750.0
 31
0.0
  0
LINE
  5
154
100
AcDbEntity
  8
sketch
 62
256
370
-1
 48
1.0
  6
BYLAYER
100
AcDbLine
 10
119.9999999999999716
 20
750.0
 30
0.0
 11
119.9999999999999716
 21
680.0
 31
0.0
  0
LINE
  5
155
100
AcDbEntity
  8
new-cuts
 62
256
370
-1
 48
1.0
  6
BYLAYER
100
AcDbLine
 10
-190.0
 20
740.0
 30
0.0
 11
-180.0
 21
750.0
 31
0.0
  0
LINE
  5
156
100
AcDbEntity
  8
new-cuts
 62
256
370
-1
 48
1.0
  6
BYLAYER
100
AcDbLine
 10
-180.0
 20
750.0
 30
0.0
 11
-130.0
 21
750.0
 31
0.0
  0
LINE
  5
157
100
AcDbEntity
  8
new-cuts
 62
256
370
-1
 48
1.0
  6
BYLAYER
100
AcDbLine
 10
-130.0
 20
750.0
 30
0.0
 11
-120.0
 21
740.0
 31
0.0
  0
LINE
  5
158
100
AcDbEntity
  8
new-cuts
 62
256
370
-1
 48
1.0
  6
BYLAYER
100
AcDbLine
 10
-120.0
 20
740.0
 30
0.0
 11
-120.0
 21
690.0
 31
0.0
  0
LINE
  5
159
100
AcDbEntity
  8
new-cuts
 62
256
370
-1
 48
1.0
  6
BYLAYER
100
AcDbLine
 10
-120.0
 20
690.0
 30
0.0
 11
-130.0
 21
680.0
 31
0.0
  0
LINE
  5
15A
100
AcDbEntity
  8
new-cuts
 62
256
370
-1
 48
1.0
  6
BYLAYER
100
AcDbLine
 10
-130.0
 20
680.0
 30
0.0
 11
-180.0
 21
680.0
 31
0.0
  0
LINE
  5
15B
100
AcDbEntity
  8
new-cuts
 62
256
370
-1
 48
1.0
  6
BYLAYER
100
AcDbLine
 10
-180.0
 20
680.0
 30
0.0
 11
-190.0
 21
690.0
 31
0.0
  0
LINE
  5
15C
100
AcDbEntity
  8
new-cuts
 62
256
370
-1
 48
1.0
  6
BYLAYER
100
AcDbLine
 10
-190.0
 20
690.0
 30
0.0
 11
-190.0
 21
740.0
 31
0.0
  0
LINE
  5
15D
100
AcDbEntity
  8
new-cuts
 62
256
370
-1
 48
1.0
  6
BYLAYER
100
AcDbLine
 10
120.0
 20
740.0
 30
0.0
 11
130.0
 21
750.0
 31
0.0
  0
LINE
  5
15E
100
AcDbEntity
  8
new-cuts
 62
256
370
-1
 48
1.0
  6
BYLAYER
100
AcDbLine
 10
130.0
 20
750.0
 30
0.0
 11
180.0
 21
750.0
 31
0.0
  0
LINE
  5
15F
100
AcDbEntity
  8
new-cuts
 62
256
370
-1
 48
1.0
  6
BYLAYER
100
AcDbLine
 10
180.0
 20
750.0
 30
0.0
 11
190.0
 21
740.0
 31
0.0
  0
LINE
  5
160
100
AcDbEntity
  8
new-cuts
 62
256
370
-1
 48
1.0
  6
BYLAYER
100
AcDbLine
 10
190.0
 20
740.0
 30
0.0
 11
190.0
 21
690.0
 31
0.0
  0
LINE
  5
161
100
AcDbEntity
  8
new-cuts
 62
256
370
-1
 48
1.0
  6
BYLAYER
100
AcDbLine
 10
190.0
 20
690.0
 30
0.0
 11
180.0
 21
680.0
 31
0.0
  0
LINE
  5
162
100
AcDbEntity
  8
new-cuts
 62
256
370
-1
 48
1.0
  6
BYLAYER
100
AcDbLine
 10
180.0
 20
680.0
 30
0.0
 11
130.0
 21
680.0
 31
0.0
  0
LINE
  5
163
100
AcDbEntity
  8
new-cuts
 62
256
370
-1
 48
1.0
  6
BYLAYER
100
AcDbLine
 10
130.0
 20
680.0
 30
0.0
 11
119.9999999999999858
 21
690.0
 31
0.0
  0
LINE
  5
164
100
AcDbEntity
  8
new-cuts
 62
256
370
-1
 48
1.0
  6
BYLAYER
100
AcDbLine
 10
119.9999999999999858
 20
690.0
 30
0.0
 11
120.0000000000000142
 21
740.0
 31
0.0
  0
LINE
  5
165
100
AcDbEntity
  8
sketch
 62
256
370
-1
 48
1.0
  6
BYLAYER
100
AcDbLine
 10
-120.0000000000000142
 20
670.0
 30
0.0
 11
-190.0
 21
670.0
 31
0.0
  0
LINE
  5
166
100
AcDbEntity
  8
sketch
 62
256
370
-1
 48
1.0
  6
BYLAYER
100
AcDbLine
 10
-190.0
 20
670.0
 30
0.0
 11
-190.0
 21
570.0
 31
0.0
  0
LINE
  5
167
100
AcDbEntity
  8
sketch
 62
256
370
-1
 48
1.0
  6
BYLAYER
100
AcDbLine
 10
-190.0
 20
570.0
 30
0.0
 11
-120.0000000000000142
 21
570.0
 31
0.0
  0
LINE
  5
168
100
AcDbEntity
  8
sketch
 62
256
370
-1
 48
1.0
  6
BYLAYER
100
AcDbLine
 10
-120.0000000000000142
 20
570.0
 30
0.0
 11
-120.0000000000000142
 21
670.0
 31
0.0
  0
LINE
  5
169
100
AcDbEntity
  8
new-cuts
 62
256
370
-1
 48
1.0
  6
BYLAYER
100
AcDbLine
 10
-180.0
 20
670.0
 30
0.0
 11
-190.0
 21
660.0
 31
0.0
  0
LINE
  5
16A
100
AcDbEntity
  8
new-cuts
 62
256
370
-1
 48
1.0
  6
BYLAYER
100
AcDbLine
 10
-190.0
 20
660.0
 30
0.0
 11
-190.0
 21
580.0
 31
0.0
  0
LINE
  5
16B
100
AcDbEntity
  8
new-cuts
 62
256
370
-1
 48
1.0
  6
BYLAYER
100
AcDbLine
 10
-190.0
 20
580.0
 30
0.0
 11
-180.0
 21
570.0
 31
0.0
  0
LINE
  5
16C
100
AcDbEntity
  8
new-cuts
 62
256
370
-1
 48
1.0
  6
BYLAYER
100
AcDbLine
 10
-180.0
 20
570.0
 30
0.0
 11
-130.0
 21
570.0
 31
0.0
  0
LINE
  5
16D
100
AcDbEntity
  8
new-cuts
 62
256
370
-1
 48
1.0
  6
BYLAYER
100
AcDbLine
 10
-130.0
 20
570.0
 30
0.0
 11
-120.0
 21
580.0
 31
0.0
  0
LINE
  5
16E
100
AcDbEntity
  8
new-cuts
 62
256
370
-1
 48
1.0
  6
BYLAYER
100
AcDbLine
 10
-120.0
 20
580.0
 30
0.0
 11
-120.0
 21
660.0
 31
0.0
  0
LINE
  5
16F
100
AcDbEntity
  8
new-cuts
 62
256
370
-1
 48
1.0
  6
BYLAYER
100
AcDbLine
 10
-120.0
 20
660.0
 30
0.0
 11
-130.0
 21
670.0
 31
0.0
  0
LINE
  5
170
100
AcDbEntity
  8
new-cuts
 62
256
370
-1
 48
1.0
  6
BYLAYER
100
AcDbLine
 10
-130.0
 20
670.0
 30
0.0
 11
-179.9999999999999432
 21
670.0
 31
0.0
  0
LINE
  5
171
100
AcDbEntity
  8
sketch
 62
256
370
-1
 48
1.0
  6
BYLAYER
100
AcDbLine
 10
119.9999999999999858
 20
670.0
 30
0.0
 11
180.0
 21
670.0
 31
0.0
  0
LINE
  5
172
100
AcDbEntity
  8
sketch
 62
256
370
-1
 48
1.0
  6
BYLAYER
100
AcDbLine
 10
180.0
 20
670.0
 30
0.0
 11
180.0
 21
570.0
 31
0.0
  0
LINE
  5
173
100
AcDbEntity
  8
sketch
 62
256
370
-1
 48
1.0
  6
BYLAYER
100
AcDbLine
 10
180.0
 20
570.0
 30
0.0
 11
119.9999999999999858
 21
570.0
 31
0.0
  0
LINE
  5
174
100
AcDbEntity
  8
sketch
 62
256
370
-1
 48
1.0
  6
BYLAYER
100
AcDbLine
 10
119.9999999999999858
 20
570.0
 30
0.0
 11
119.9999999999999858
 21
670.0
 31
0.0
  0
LINE
  5
175
100
AcDbEntity
  8
new-cuts
 62
256
370
-1
 48
1.0
  6
BYLAYER
100
AcDbLine
 10
120.0
 20
660.0
 30
0.0
 11
130.0
 21
670.0
 31
0.0
  0
LINE
  5
176
100
AcDbEntity
  8
new-cuts
 62
256
370
-1
 48
1.0
  6
BYLAYER
100
AcDbLine
 10
130.0
 20
670.0
 30
0.0
 11
170.0
 21
670.0
 31
0.0
  0
LINE
  5
177
100
AcDbEntity
  8
new-cuts
 62
256
370
-1
 48
1.0
  6
BYLAYER
100
AcDbLine
 10
170.0
 20
670.0
 30
0.0
 11
180.0
 21
660.0
 31
0.0
  0
LINE
  5
178
100
AcDbEntity
  8
new-cuts
 62
256
370
-1
 48
1.0
  6
BYLAYER
100
AcDbLine
 10
180.0
 20
660.0
 30
0.0
 11
180.0
 21
580.0
 31
0.0
  0
LINE
  5
179
100
AcDbEntity
  8
new-cuts
 62
256
370
-1
 48
1.0
  6
BYLAYER
100
AcDbLine
 10
180.0
 20
580.0
 30
0.0
 11
170.0
 21
570.0
 31
0.0
  0
LINE
  5
17A
100
AcDbEntity
  8
new-cuts
 62
256
370
-1
 48
1.0
  6
BYLAYER
100
AcDbLine
 10
170.0
 20
570.0
 30
0.0
 11
130.0
 21
570.0
 31
0.0
  0
LINE
  5
17B
100
AcDbEntity
  8
new-cuts
 62
256
370
-1
 48
1.0
  6
BYLAYER
100
AcDbLine
 10
130.0
 20
570.0
 30
0.0
 11
120.0
 21
580.0
 31
0.0
  0
LINE
  5
17C
100
AcDbEntity
  8
new-cuts
 62
256
370
-1
 48
1.0
  6
BYLAYER
100
AcDbLine
 10
120.0
 20
580.0
 30
0.0
 11
120.0
 21
660.0
 31
0.0
  0
LINE
  5
17D
100
AcDbEntity
  8
sketch
 62
256
370
-1
 48
1.0
  6
BYLAYER
100
AcDbLine
 10
190.0
 20
570.0
 30
0.0
 11
250.0
 21
570.0
 31
0.0
  0
LINE
  5
17E
100
AcDbEntity
  8
sketch
 62
256
370
-1
 48
1.0
  6
BYLAYER
100
AcDbLine
 10
250.0
 20
570.0
 30
0.0
 11
250.0
 21
630.0
 31
0.0
  0
LINE
  5
17F
100
AcDbEntity
  8
sketch
 62
256
370
-1
 48
1.0
  6
BYLAYER
100
AcDbLine
 10
250.0
 20
630.0
 30
0.0
 11
190.0
 21
630.0
 31
0.0
  0
LINE
  5
180
100
AcDbEntity
  8
sketch
 62
256
370
-1
 48
1.0
  6
BYLAYER
100
AcDbLine
 10
190.0
 20
630.0
 30
0.0
 11
190.0
 21
570.0
 31
0.0
  0
LINE
  5
181
100
AcDbEntity
  8
new-cuts
 62
256
370
-1
 48
1.0
  6
BYLAYER
100
AcDbLine
 10
190.0
 20
620.0
 30
0.0
 11
200.0
 21
630.0
 31
0.0
  0
LINE
  5
182
100
AcDbEntity
  8
new-cuts
 62
256
370
-1
 48
1.0
  6
BYLAYER
100
AcDbLine
 10
200.0
 20
630.0
 30
0.0
 11
240.0
 21
630.0
 31
0.0
  0
LINE
  5
183
100
AcDbEntity
  8
new-cuts
 62
256
370
-1
 48
1.0
  6
BYLAYER
100
AcDbLine
 10
240.0
 20
630.0
 30
0.0
 11
250.0
 21
620.0
 31
0.0
  0
LINE
  5
184
100
AcDbEntity
  8
new-cuts
 62
256
370
-1
 48
1.0
  6
BYLAYER
100
AcDbLine
 10
250.0
 20
620.0
 30
0.0
 11
250.0
 21
580.0
 31
0.0
  0
LINE
  5
185
100
AcDbEntity
  8
new-cuts
 62
256
370
-1
 48
1.0
  6
BYLAYER
100
AcDbLine
 10
250.0
 20
580.0
 30
0.0
 11
240.0
 21
570.0
 31
0.0
  0
LINE
  5
186
100
AcDbEntity
  8
new-cuts
 62
256
370
-1
 48
1.0
  6
BYLAYER
100
AcDbLine
 10
240.0
 20
570.0
 30
0.0
 11
200.0
 21
570.0
 31
0.0
  0
LINE
  5
187
100
AcDbEntity
  8
new-cuts
 62
256
370
-1
 48
1.0
  6
BYLAYER
100
AcDbLine
 10
200.0
 20
570.0
 30
0.0
 11
190.0
 21
580.0
 31
0.0
  0
LINE
  5
188
100
AcDbEntity
  8
new-cuts
 62
256
370
-1
 48
1.0
  6
BYLAYER
100
AcDbLine
 10
190.0
 20
580.0
 30
0.0
 11
190.0
 21
620.0
 31
0.0
  0
LINE
  5
189
100
AcDbEntity
  8
sketch
 62
256
370
-1
 48
1.0
  6
BYLAYER
100
AcDbLine
 10
110.0
 20
760.0
 30
0.0
 11
300.0
 21
760.0
 31
0.0
  0
LINE
  5
18A
100
AcDbEntity
  8
sketch
 62
256
370
-1
 48
1.0
  6
BYLAYER
100
AcDbLine
 10
200.0
 20
770.0
 30
0.0
 11
200.0
 21
670.0
 31
0.0
  0
LINE
  5
18B
100
AcDbEntity
  8
sketch
 62
256
370
-1
 48
1.0
  6
BYLAYER
100
AcDbLine
 10
90.0
 20
860.0
 30
0.0
 11
264.9999999999999432
 21
860.0
 31
0.0
  0
LINE
  5
18C
100
AcDbEntity
  8
sketch
 62
256
370
-1
 48
1.0
  6
BYLAYER
100
AcDbLine
 10
250.0
 20
880.0
 30
0.0
 11
250.0
 21
660.0
 31
0.0
  0
LINE
  5
18D
100
AcDbEntity
  8
new-cuts
 62
256
370
-1
 48
1.0
  6
BYLAYER
100
AcDbLine
 10
240.0
 20
860.0
 30
0.0
 11
240.0
 21
850.0
 31
0.0
  0
LINE
  5
18E
100
AcDbEntity
  8
new-cuts
 62
256
370
-1
 48
1.0
  6
BYLAYER
100
AcDbLine
 10
240.0
 20
850.0
 30
0.0
 11
250.0
 21
850.0
 31
0.0
  0
LINE
  5
18F
100
AcDbEntity
  8
new-cuts
 62
256
370
-1
 48
1.0
  6
BYLAYER
100
AcDbLine
 10
250.0
 20
850.0
 30
0.0
 11
250.0
 21
700.0
 31
0.0
  0
LINE
  5
190
100
AcDbEntity
  8
new-cuts
 62
256
370
-1
 48
1.0
  6
BYLAYER
100
AcDbLine
 10
250.0
 20
700.0
 30
0.0
 11
240.0
 21
700.0
 31
0.0
  0
LINE
  5
191
100
AcDbEntity
  8
new-cuts
 62
256
370
-1
 48
1.0
  6
BYLAYER
100
AcDbLine
 10
240.0
 20
700.0
 30
0.0
 11
239.9999999999997726
 21
690.0
 31
0.0
  0
LINE
  5
192
100
AcDbEntity
  8
new-cuts
 62
256
370
-1
 48
1.0
  6
BYLAYER
100
AcDbLine
 10
239.9999999999997726
 20
690.0
 30
0.0
 11
200.0
 21
690.0
 31
0.0
  0
LINE
  5
193
100
AcDbEntity
  8
new-cuts
 62
256
370
-1
 48
1.0
  6
BYLAYER
100
AcDbLine
 10
200.0
 20
690.0
 30
0.0
 11
200.0
 21
760.0
 31
0.0
  0
LINE
  5
194
100
AcDbEntity
  8
new-cuts
 62
256
370
-1
 48
1.0
  6
BYLAYER
100
AcDbLine
 10
200.0
 20
760.0
 30
0.0
 11
130.0
 21
760.0
 31
0.0
  0
LINE
  5
195
100
AcDbEntity
  8
new-cuts
 62
256
370
-1
 48
1.0
  6
BYLAYER
100
AcDbLine
 10
130.0
 20
760.0
 30
0.0
 11
130.0
 21
770.0
 31
0.0
  0
LINE
  5
196
100
AcDbEntity
  8
new-cuts
 62
256
370
-1
 48
1.0
  6
BYLAYER
100
AcDbLine
 10
130.0
 20
770.0
 30
0.0
 11
120.0000000000000142
 21
770.0
 31
0.0
  0
LINE
  5
197
100
AcDbEntity
  8
new-cuts
 62
256
370
-1
 48
1.0
  6
BYLAYER
100
AcDbLine
 10
120.0000000000000142
 20
770.0
 30
0.0
 11
120.0
 21
850.0
 31
0.0
  0
LINE
  5
198
100
AcDbEntity
  8
new-cuts
 62
256
370
-1
 48
1.0
  6
BYLAYER
100
AcDbLine
 10
120.0
 20
850.0
 30
0.0
 11
130.0
 21
850.0
 31
0.0
  0
LINE
  5
199
100
AcDbEntity
  8
new-cuts
 62
256
370
-1
 48
1.0
  6
BYLAYER
100
AcDbLine
 10
130.0
 20
850.0
 30
0.0
 11
130.0
 21
860.0
 31
0.0
  0
LINE
  5
19A
100
AcDbEntity
  8
new-cuts
 62
256
370
-1
 48
1.0
  6
BYLAYER
100
AcDbLine
 10
130.0
 20
860.0
 30
0.0
 11
240.0
 21
860.0
 31
0.0
  0
LINE
  5
19B
100
AcDbEntity
  8
new-cuts
 62
256
370
-1
 48
1.0
  6
BYLAYER
100
AcDbLine
 10
-250.0
 20
720.0
 30
0.0
 11
-210.0
 21
720.0
 31
0.0
  0
LINE
  5
19C
100
AcDbEntity
  8
new-cuts
 62
256
370
-1
 48
1.0
  6
BYLAYER
100
AcDbLine
 10
-210.0
 20
720.0
 30
0.0
 11
-210.0
 21
710.0
 31
0.0
  0
LINE
  5
19D
100
AcDbEntity
  8
new-cuts
 62
256
370
-1
 48
1.0
  6
BYLAYER
100
AcDbLine
 10
-210.0
 20
710.0
 30
0.0
 11
-200.0
 21
710.0
 31
0.0
  0
LINE
  5
19E
100
AcDbEntity
  8
new-cuts
 62
256
370
-1
 48
1.0
  6
BYLAYER
100
AcDbLine
 10
-200.0
 20
710.0
 30
0.0
 11
-200.0
 21
640.0
 31
0.0
  0
LINE
  5
19F
100
AcDbEntity
  8
new-cuts
 62
256
370
-1
 48
1.0
  6
BYLAYER
100
AcDbLine
 10
-200.0
 20
640.0
 30
0.0
 11
-240.0
 21
640.0
 31
0.0
  0
LINE
  5
1A0
100
AcDbEntity
  8
new-cuts
 62
256
370
-1
 48
1.0
  6
BYLAYER
100
AcDbLine
 10
-240.0
 20
640.0
 30
0.0
 11
-240.0
 21
650.0
 31
0.0
  0
LINE
  5
1A1
100
AcDbEntity
  8
new-cuts
 62
256
370
-1
 48
1.0
  6
BYLAYER
100
AcDbLine
 10
-240.0
 20
650.0
 30
0.0
 11
-250.0
 21
650.0
 31
0.0
  0
LINE
  5
1A2
100
AcDbEntity
  8
new-cuts
 62
256
370
-1
 48
1.0
  6
BYLAYER
100
AcDbLine
 10
-250.0
 20
650.0
 30
0.0
 11
-250.0
 21
720.0
 31
0.0
  0
LINE
  5
1A3
100
AcDbEntity
  8
new-size
 62
256
370
-1
 48
1.0
  6
BYLAYER
100
AcDbLine
 10
-280.0
 20
0.0
 30
0.0
 11
280.0
 21
0.0
 31
0.0
  0
LINE
  5
1A4
100
AcDbEntity
  8
new-size
 62
256
370
-1
 48
1.0
  6
BYLAYER
100
AcDbLine
 10
280.0
 20
0.0
 30
0.0
 11
775.0
 21
0.0
 31
0.0
  0
LINE
  5
1A5
100
AcDbEntity
  8
new-size
 62
256
370
-1
 48
1.0
  6
BYLAYER
100
AcDbLine
 10
775.0
 20
0.0
 30
0.0
 11
1040.0
 21
0.0
 31
0.0
  0
LINE
  5
1A6
100
AcDbEntity
  8
new-cuts
 62
256
370
-1
 48
1.0
  6
BYLAYER
100
AcDbLine
 10
-785.0
 20
0.0
 30
0.0
 11
-280.0
 21
0.0
 31
0.0
  0
LINE
  5
1A7
100
AcDbEntity
  8
new-size
 62
256
370
-1
 48
1.0
  6
BYLAYER
100
AcDbLine
 10
-1050.0
 20
0.0
 30
0.0
 11
-785.0
 21
0.0
 31
0.0
  0
LINE
  5
1A8
100
AcDbEntity
  8
new-size
 62
256
370
-1
 48
1.0
  6
BYLAYER
100
AcDbLine
 10
0.0
 20
100.0
 30
0.0
 11
0.0
 21
-100.0
 31
0.0
  0
LINE
  5
1A9
100
AcDbEntity
  8
new-size
 62
256
370
-1
 48
1.0
  6
BYLAYER
100
AcDbLine
 10
-785.0
 20
0.0
 30
0.0
 11
-784.9999999999998863
 21
1000.0
 31
0.0
  0
LINE
  5
1AA
100
AcDbEntity
  8
new-size
 62
256
370
-1
 48
1.0
  6
BYLAYER
100
AcDbLine
 10
785.0
 20
-0.0000000000001137
 30
0.0
 11
785.0
 21
999.9999999999997726
 31
0.0
  0
LINE
  5
1AB
100
AcDbEntity
  8
new-size
 62
256
370
-1
 48
1.0
  6
BYLAYER
100
AcDbLine
 10
-1050.0
 20
0.0
 30
0.0
 11
-1050.0
 21
1000.0
 31
0.0
  0
LINE
  5
1AC
100
AcDbEntity
  8
new-size
 62
256
370
-1
 48
1.0
  6
BYLAYER
100
AcDbLine
 10
-280.0000000000001137
 20
0.0
 30
0.0
 11
-280.0000000000000568
 21
1000.0
 31
0.0
  0
LINE
  5
1AD
100
AcDbEntity
  8
new-size
 62
256
370
-1
 48
1.0
  6
BYLAYER
100
AcDbLine
 10
279.9999999999998863
 20
0.0
 30
0.0
 11
279.9999999999999432
 21
1000.0
 31
0.0
  0
LINE
  5
1AE
100
AcDbEntity
  8
new-size
 62
256
370
-1
 48
1.0
  6
BYLAYER
100
AcDbLine
 10
775.0
 20
0.0
 30
0.0
 11
775.0000000000001137
 21
1000.0
 31
0.0
  0
LINE
  5
1AF
100
AcDbEntity
  8
new-size
 62
256
370
-1
 48
1.0
  6
BYLAYER
100
AcDbLine
 10
1040.0
 20
0.0
 30
0.0
 11
1040.0
 21
1000.0
 31
0.0
  0
LINE
  5
1B0
100
AcDbEntity
  8
new-cuts
 62
256
370
-1
 48
1.0
  6
BYLAYER
100
AcDbLine
 10
-1050.0
 20
523.0
 30
0.0
 11
-785.0
 21
523.0
 31
0.0
  0
LINE
  5
1B1
100
AcDbEntity
  8
new-cuts
 62
256
370
-1
 48
1.0
  6
BYLAYER
100
AcDbLine
 10
775.0
 20
523.0
 30
0.0
 11
1040.0
 21
523.0
 31
0.0
  0
LINE
  5
1B2
100
AcDbEntity
  8
new-cuts
 62
256
370
-1
 48
1.0
  6
BYLAYER
100
AcDbLine
 10
-785.0
 20
523.0
 30
0.0
 11
-784.9999999999998863
 21
598.0
 31
0.0
  0
LINE
  5
1B3
100
AcDbEntity
  8
new-cuts
 62
256
370
-1
 48
1.0
  6
BYLAYER
100
AcDbLine
 10
785.0000000000002274
 20
522.9999999999998863
 30
0.0
 11
785.0
 21
597.9999999999998863
 31
0.0
  0
LINE
  5
1B4
100
AcDbEntity
  8
new-cuts
 62
256
370
-1
 48
1.0
  6
BYLAYER
100
AcDbLine
 10
775.0
 20
523.0
 30
0.0
 11
775.0
 21
598.0
 31
0.0
  0
LINE
  5
1B5
100
AcDbEntity
  8
new-size
 62
256
370
-1
 48
1.0
  6
BYLAYER
100
AcDbLine
 10
695.0
 20
0.0000000000000098
 30
0.0
 11
695.0000000000001137
 21
1000.0
 31
0.0
  0
LINE
  5
1B6
100
AcDbEntity
  8
new-size
 62
256
370
-1
 48
1.0
  6
BYLAYER
100
AcDbLine
 10
-705.0
 20
0.0
 30
0.0
 11
-704.9999999999998863
 21
1000.0
 31
0.0
  0
LINE
  5
1B7
100
AcDbEntity
  8
new-size
 62
256
370
-1
 48
1.0
  6
BYLAYER
100
AcDbLine
 10
705.0
 20
-0.0000000000001137
 30
0.0
 11
705.0
 21
999.9999999999997726
 31
0.0
  0
LINE
  5
1B8
100
AcDbEntity
  8
new-cuts
 62
256
370
-1
 48
1.0
  6
BYLAYER
100
AcDbLine
 10
-785.0
 20
598.0
 30
0.0
 11
-704.9999999999998863
 21
598.0
 31
0.0
  0
LINE
  5
1B9
100
AcDbEntity
  8
new-cuts
 62
256
370
-1
 48
1.0
  6
BYLAYER
100
AcDbLine
 10
785.0000000000002274
 20
597.9999999999998863
 30
0.0
 11
705.0
 21
597.9999999999998863
 31
0.0
  0
LINE
  5
1BA
100
AcDbEntity
  8
new-cuts
 62
256
370
-1
 48
1.0
  6
BYLAYER
100
AcDbLine
 10
-704.9999999999998863
 20
598.0
 30
0.0
 11
-705.0
 21
630.0
 31
0.0
  0
LINE
  5
1BB
100
AcDbEntity
  8
new-cuts
 62
256
370
-1
 48
1.0
  6
BYLAYER
100
AcDbLine
 10
705.0
 20
597.9999999999998863
 30
0.0
 11
705.0
 21
629.9999999999998863
 31
0.0
  0
LINE
  5
1BC
100
AcDbEntity
  8
new-cuts
 62
256
370
-1
 48
1.0
  6
BYLAYER
100
AcDbLine
 10
-705.0
 20
630.0
 30
0.0
 11
-360.0000000000001137
 21
630.0
 31
0.0
  0
LINE
  5
1BD
100
AcDbEntity
  8
new-cuts
 62
256
370
-1
 48
1.0
  6
BYLAYER
100
AcDbLine
 10
-360.0000000000001137
 20
630.0
 30
0.0
 11
-360.0000000000001705
 21
598.0
 31
0.0
  0
LINE
  5
1BE
100
AcDbEntity
  8
new-cuts
 62
256
370
-1
 48
1.0
  6
BYLAYER
100
AcDbLine
 10
-360.0000000000001705
 20
598.0
 30
0.0
 11
-280.0000000000000568
 21
598.0
 31
0.0
  0
LINE
  5
1BF
100
AcDbEntity
  8
new-cuts
 62
256
370
-1
 48
1.0
  6
BYLAYER
100
AcDbLine
 10
-280.0000000000000568
 20
598.0
 30
0.0
 11
-280.0000000000000568
 21
470.0
 31
0.0
  0
LINE
  5
1C0
100
AcDbEntity
  8
new-cuts
 62
256
370
-1
 48
1.0
  6
BYLAYER
100
AcDbLine
 10
-280.0000000000000568
 20
470.0
 30
0.0
 11
279.9999999999999432
 21
470.0
 31
0.0
  0
LINE
  5
1C1
100
AcDbEntity
  8
new-cuts
 62
256
370
-1
 48
1.0
  6
BYLAYER
100
AcDbLine
 10
279.9999999999999432
 20
470.0
 30
0.0
 11
279.9999999999999432
 21
598.0
 31
0.0
  0
LINE
  5
1C2
100
AcDbEntity
  8
new-cuts
 62
256
370
-1
 48
1.0
  6
BYLAYER
100
AcDbLine
 10
279.9999999999999432
 20
598.0
 30
0.0
 11
359.9999999999998295
 21
598.0
 31
0.0
  0
LINE
  5
1C3
100
AcDbEntity
  8
new-cuts
 62
256
370
-1
 48
1.0
  6
BYLAYER
100
AcDbLine
 10
359.9999999999998295
 20
598.0
 30
0.0
 11
359.9999999999998863
 21
630.0
 31
0.0
  0
LINE
  5
1C4
100
AcDbEntity
  8
new-cuts
 62
256
370
-1
 48
1.0
  6
BYLAYER
100
AcDbLine
 10
359.9999999999998863
 20
630.0
 30
0.0
 11
695.0000000000001137
 21
630.0
 31
0.0
  0
LINE
  5
1C5
100
AcDbEntity
  8
new-cuts
 62
256
370
-1
 48
1.0
  6
BYLAYER
100
AcDbLine
 10
695.0000000000001137
 20
630.0
 30
0.0
 11
695.0000000000001137
 21
598.0
 31
0.0
  0
LINE
  5
1C6
100
AcDbEntity
  8
new-cuts
 62
256
370
-1
 48
1.0
  6
BYLAYER
100
AcDbLine
 10
695.0000000000001137
 20
598.0
 30
0.0
 11
775.0000000000001137
 21
598.0
 31
0.0
  0
LINE
  5
1C7
100
AcDbEntity
  8
new-cuts
 62
256
370
-1
 48
1.0
  6
BYLAYER
100
AcDbLine
 10
-655.0
 20
662.5000000000001137
 30
0.0
 11
-480.0
 21
662.5000000000001137
 31
0.0
  0
LINE
  5
1C8
100
AcDbEntity
  8
new-cuts
 62
256
370
-1
 48
1.0
  6
BYLAYER
100
AcDbLine
 10
-480.0
 20
662.5000000000001137
 30
0.0
 11
-480.0
 21
837.5000000000001137
 31
0.0
  0
LINE
  5
1C9
100
AcDbEntity
  8
new-cuts
 62
256
370
-1
 48
1.0
  6
BYLAYER
100
AcDbLine
 10
-480.0
 20
837.5000000000001137
 30
0.0
 11
-655.0
 21
837.5000000000001137
 31
0.0
  0
LINE
  5
1CA
100
AcDbEntity
  8
new-cuts
 62
256
370
-1
 48
1.0
  6
BYLAYER
100
AcDbLine
 10
-655.0
 20
837.5000000000001137
 30
0.0
 11
-655.0
 21
662.5000000000001137
 31
0.0
  0
LINE
  5
1CB
100
AcDbEntity
  8
new-cuts
 62
256
370
-1
 48
1.0
  6
BYLAYER
100
AcDbLine
 10
655.0000000000002274
 20
837.5
 30
0.0
 11
655.0000000000002274
 21
662.5
 31
0.0
  0
LINE
  5
1CC
100
AcDbEntity
  8
new-cuts
 62
256
370
-1
 48
1.0
  6
BYLAYER
100
AcDbLine
 10
-462.0
 20
662.5000000000002274
 30
0.0
 11
-287.0
 21
662.5000000000002274
 31
0.0
  0
LINE
  5
1CD
100
AcDbEntity
  8
new-cuts
 62
256
370
-1
 48
1.0
  6
BYLAYER
100
AcDbLine
 10
-287.0
 20
662.5000000000002274
 30
0.0
 11
-287.0
 21
837.5000000000002274
 31
0.0
  0
LINE
  5
1CE
100
AcDbEntity
  8
new-cuts
 62
256
370
-1
 48
1.0
  6
BYLAYER
100
AcDbLine
 10
-287.0
 20
837.5000000000002274
 30
0.0
 11
-462.0
 21
837.5000000000002274
 31
0.0
  0
LINE
  5
1CF
100
AcDbEntity
  8
new-cuts
 62
256
370
-1
 48
1.0
  6
BYLAYER
100
AcDbLine
 10
-462.0
 20
837.5000000000002274
 30
0.0
 11
-462.0
 21
662.5000000000002274
 31
0.0
  0
LINE
  5
1D0
100
AcDbEntity
  8
new-cuts
 62
256
370
-1
 48
1.0
  6
BYLAYER
100
AcDbLine
 10
-87.5
 20
675.0
 30
0.0
 11
87.5
 21
675.0
 31
0.0
  0
LINE
  5
1D1
100
AcDbEntity
  8
new-cuts
 62
256
370
-1
 48
1.0
  6
BYLAYER
100
AcDbLine
 10
87.5
 20
675.0
 30
0.0
 11
87.5
 21
850.0
 31
0.0
  0
LINE
  5
1D2
100
AcDbEntity
  8
new-cuts
 62
256
370
-1
 48
1.0
  6
BYLAYER
100
AcDbLine
 10
87.5
 20
850.0
 30
0.0
 11
-87.5
 21
850.0
 31
0.0
  0
LINE
  5
1D3
100
AcDbEntity
  8
new-cuts
 62
256
370
-1
 48
1.0
  6
BYLAYER
100
AcDbLine
 10
-87.5
 20
850.0
 30
0.0
 11
-87.5
 21
675.0
 31
0.0
  0
LINE
  5
1D4
100
AcDbEntity
  8
new-cuts
 62
256
370
-1
 48
1.0
  6
BYLAYER
100
AcDbLine
 10
-87.5
 20
481.9999999999998863
 30
0.0
 11
87.5
 21
481.9999999999998863
 31
0.0
  0
LINE
  5
1D5
100
AcDbEntity
  8
new-cuts
 62
256
370
-1
 48
1.0
  6
BYLAYER
100
AcDbLine
 10
87.5
 20
481.9999999999998863
 30
0.0
 11
87.5
 21
657.0
 31
0.0
  0
LINE
  5
1D6
100
AcDbEntity
  8
new-cuts
 62
256
370
-1
 48
1.0
  6
BYLAYER
100
AcDbLine
 10
87.5
 20
657.0
 30
0.0
 11
-87.5
 21
657.0
 31
0.0
  0
LINE
  5
1D7
100
AcDbEntity
  8
new-cuts
 62
256
370
-1
 48
1.0
  6
BYLAYER
100
AcDbLine
 10
-87.5
 20
657.0
 30
0.0
 11
-87.5
 21
481.9999999999998863
 31
0.0
  0
LINE
  5
1D8
100
AcDbEntity
  8
new-cuts
 62
256
370
-1
 48
1.0
  6
BYLAYER
100
AcDbLine
 10
287.0
 20
662.5
 30
0.0
 11
462.0
 21
662.5
 31
0.0
  0
LINE
  5
1D9
100
AcDbEntity
  8
new-cuts
 62
256
370
-1
 48
1.0
  6
BYLAYER
100
AcDbLine
 10
462.0
 20
662.5
 30
0.0
 11
462.0
 21
837.5000000000001137
 31
0.0
  0
LINE
  5
1DA
100
AcDbEntity
  8
new-cuts
 62
256
370
-1
 48
1.0
  6
BYLAYER
100
AcDbLine
 10
462.0
 20
837.5000000000001137
 30
0.0
 11
287.0
 21
837.5000000000001137
 31
0.0
  0
LINE
  5
1DB
100
AcDbEntity
  8
new-cuts
 62
256
370
-1
 48
1.0
  6
BYLAYER
100
AcDbLine
 10
287.0
 20
837.5000000000001137
 30
0.0
 11
287.0
 21
662.5
 31
0.0
  0
LINE
  5
1DC
100
AcDbEntity
  8
new-cuts
 62
256
370
-1
 48
1.0
  6
BYLAYER
100
AcDbLine
 10
479.9999999999999432
 20
662.5
 30
0.0
 11
655.0
 21
662.5
 31
0.0
  0
LINE
  5
1DD
100
AcDbEntity
  8
new-cuts
 62
256
370
-1
 48
1.0
  6
BYLAYER
100
AcDbLine
 10
655.0
 20
837.5000000000002274
 30
0.0
 11
479.9999999999999432
 21
837.5000000000002274
 31
0.0
  0
LINE
  5
1DE
100
AcDbEntity
  8
new-cuts
 62
256
370
-1
 48
1.0
  6
BYLAYER
100
AcDbLine
 10
479.9999999999999432
 20
837.5000000000002274
 30
0.0
 11
479.9999999999999432
 21
662.5
 31
0.0
  0
LINE
  5
1DF
100
AcDbEntity
  8
new-size
 62
256
370
-1
 48
1.0
  6
BYLAYER
100
AcDbLine
 10
-480.0000000000001137
 20
0.0000000000000006
 30
0.0
 11
-480.0
 21
1200.0
 31
0.0
  0
LINE
  5
1E0
100
AcDbEntity
  8
new-size
 62
256
370
-1
 48
1.0
  6
BYLAYER
100
AcDbLine
 10
-670.0
 20
0.0
 30
0.0
 11
-669.9999999999998863
 21
1000.0
 31
0.0
  0
LINE
  5
1E1
100
AcDbEntity
  8
new-size
 62
256
370
-1
 48
1.0
  6
BYLAYER
100
AcDbLine
 10
670.0
 20
0.0
 30
0.0
 11
670.0
 21
999.9999999999997726
 31
0.0
  0
LINE
  5
1E2
100
AcDbEntity
  8
new-size
 62
256
370
-1
 48
1.0
  6
BYLAYER
100
AcDbLine
 10
-775.0
 20
0.0
 30
0.0
 11
-774.9999999999998863
 21
1000.0
 31
0.0
  0
LINE
  5
1E3
100
AcDbEntity
  8
new-size
 62
256
370
-1
 48
1.0
  6
BYLAYER
100
AcDbLine
 10
775.0
 20
-0.0000000000001137
 30
0.0
 11
775.0
 21
1000.0
 31
0.0
  0
LINE
  5
1E4
100
AcDbEntity
  8
new-size
 62
256
370
-1
 48
1.0
  6
BYLAYER
100
AcDbLine
 10
-830.0
 20
750.0
 30
0.0
 11
-630.0
 21
750.0
 31
0.0
  0
LINE
  5
1E5
100
AcDbEntity
  8
new-cuts
 62
256
370
-1
 48
1.0
  6
BYLAYER
100
AcDbLine
 10
-774.9999999999998863
 20
750.0
 30
0.0
 11
-669.9999999999998863
 21
750.0000000000001137
 31
0.0
  0
LINE
  5
1E6
100
AcDbEntity
  8
new-cuts
 62
256
370
-1
 48
1.0
  6
BYLAYER
100
AcDbLine
 10
775.0
 20
749.9999999999998863
 30
0.0
 11
670.0
 21
750.0
 31
0.0
  0
CIRCLE
  5
1E7
100
AcDbEntity
  8
new-size
 62
256
370
-1
 48
1.0
  6
BYLAYER
100
AcDbCircle
 10
-684.9999999999998863
 20
822.5000000000001137
 30
0.0
 40
15.0
  0
CIRCLE
  5
1E8
100
AcDbEntity
  8
new-size
 62
256
370
-1
 48
1.0
  6
BYLAYER
100
AcDbCircle
 10
685.0
 20
822.5
 30
0.0
 40
15.0
  0
LINE
  5
1E9
100
AcDbEntity
  8
new-cuts
 62
256
370
-1
 48
1.0
  6
BYLAYER
100
AcDbLine
 10
-669.9999999999998863
 20
750.0
 30
0.0
 11
-669.9999999999998863
 21
822.5000000000001137
 31
0.0
  0
LINE
  5
1EA
100
AcDbEntity
  8
new-cuts
 62
256
370
-1
 48
1.0
  6
BYLAYER
100
AcDbLine
 10
670.0
 20
749.9999999999998863
 30
0.0
 11
670.0
 21
822.5
 31
0.0
  0
LINE
  5
1EB
100
AcDbEntity
  8
new-cuts
 62
256
370
-1
 48
1.0
  6
BYLAYER
100
AcDbLine
 10
-760.0000000000002274
 20
845.0
 30
0.0
 11
-669.9999999999998863
 21
870.0
 31
0.0
  0
LINE
  5
1EC
100
AcDbEntity
  8
new-cuts
 62
256
370
-1
 48
1.0
  6
BYLAYER
100
AcDbLine
 10
760.0000000000004547
 20
844.9999999999998863
 30
0.0
 11
670.0
 21
869.9999999999998863
 31
0.0
  0
LINE
  5
1ED
100
AcDbEntity
  8
new-cuts
 62
256
370
-1
 48
1.0
  6
BYLAYER
100
AcDbLine
 10
-760.0
 20
845.0
 30
0.0
 11
-862.9999999999997726
 21
703.0
 31
0.0
  0
LINE
  5
1EE
100
AcDbEntity
  8
new-cuts
 62
256
370
-1
 48
1.0
  6
BYLAYER
100
AcDbLine
 10
760.0000000000002274
 20
844.9999999999998863
 30
0.0
 11
862.9999999999997726
 21
702.9999999999998863
 31
0.0
  0
LINE
  5
1EF
100
AcDbEntity
  8
new-size
 62
256
370
-1
 48
1.0
  6
BYLAYER
100
AcDbLine
 10
-747.8578754050510042
 20
836.1926842726778659
 30
0.0
 11
-850.8578754050507769
 21
694.1926842726778659
 31
0.0
  0
LINE
  5
1F0
100
AcDbEntity
  8
new-size
 62
256
370
-1
 48
1.0
  6
BYLAYER
100
AcDbLine
 10
747.8578754050511179
 20
836.1926842726777522
 30
0.0
 11
850.8578754050508905
 21
694.1926842726777522
 31
0.0
  0
LINE
  5
1F1
100
AcDbEntity
  8
new-size
 62
256
370
-1
 48
1.0
  6
BYLAYER
100
AcDbLine
 10
-670.0
 20
842.2346180768912518
 30
0.0
 11
-762.0151809222431893
 21
816.6748455984903785
 31
0.0
  0
LINE
  5
1F2
100
AcDbEntity
  8
new-size
 62
256
370
-1
 48
1.0
  6
BYLAYER
100
AcDbLine
 10
670.0000000000002274
 20
842.2346180768911381
 30
0.0
 11
762.0151809222434167
 21
816.6748455984902648
 31
0.0
  0
LINE
  5
1F3
100
AcDbEntity
  8
new-cuts
 62
256
370
-1
 48
1.0
  6
BYLAYER
100
AcDbLine
 10
-774.9999999999998863
 20
750.0
 30
0.0
 11
-775.0
 21
798.7734445398356229
 31
0.0
  0
LINE
  5
1F4
100
AcDbEntity
  8
new-cuts
 62
256
370
-1
 48
1.0
  6
BYLAYER
100
AcDbLine
 10
775.0
 20
749.9999999999998863
 30
0.0
 11
775.0000000000002274
 21
798.7734445398355092
 31
0.0
  0
LINE
  5
1F5
100
AcDbEntity
  8
new-cuts
 62
256
370
-1
 48
1.0
  6
BYLAYER
100
AcDbLine
 10
-775.0
 20
798.7734445398356229
 30
0.0
 11
-762.0151809222434167
 21
816.6748455984903785
 31
0.0
  0
LINE
  5
1F6
100
AcDbEntity
  8
new-cuts
 62
256
370
-1
 48
1.0
  6
BYLAYER
100
AcDbLine
 10
775.0000000000002274
 20
798.7734445398355092
 30
0.0
 11
762.0151809222436441
 21
816.6748455984902648
 31
0.0
  0
LINE
  5
1F7
100
AcDbEntity
  8
new-cuts
 62
256
370
-1
 48
1.0
  6
BYLAYER
100
AcDbLine
 10
-762.0151809222434167
 20
816.6748455984903785
 30
0.0
 11
-689.014657956791325
 21
836.9527686444491792
 31
0.0
  0
LINE
  5
1F8
100
AcDbEntity
  8
new-cuts
 62
256
370
-1
 48
1.0
  6
BYLAYER
100
AcDbLine
 10
762.0151809222436441
 20
816.6748455984902648
 30
0.0
 11
689.0146579567915524
 21
836.9527686444491792
 31
0.0
  0
ARC
  5
1F9
100
AcDbEntity
  8
new-cuts
 62
256
370
-1
 48
1.0
  6
BYLAYER
100
AcDbCircle
 10
-684.9999999999998863
 20
822.5000000000001137
 30
0.0
 40
15.0
100
AcDbArc
 50
0.0
 51
105.5241109967543878
  0
ARC
  5
1FA
100
AcDbEntity
  8
new-cuts
 62
256
370
-1
 48
1.0
  6
BYLAYER
100
AcDbCircle
 10
685.0
 20
822.5
 30
0.0
 40
15.0
100
AcDbArc
 50
74.4758890032456264
 51
180.0
  0
LINE
  5
1FB
100
AcDbEntity
  8
new-size
 62
256
370
-1
 48
1.0
  6
BYLAYER
100
AcDbLine
 10
-1010.0
 20
0.0
 30
0.0
 11
-1010.0
 21
1000.0
 31
0.0
  0
LINE
  5
1FC
100
AcDbEntity
  8
new-cuts
 62
256
370
-1
 48
1.0
  6
BYLAYER
100
AcDbLine
 10
-1050.0
 20
523.0
 30
0.0
 11
-1010.0
 21
653.0
 31
0.0
  0
LINE
  5
1FD
100
AcDbEntity
  8
new-cuts
 62
256
370
-1
 48
1.0
  6
BYLAYER
100
AcDbLine
 10
-1010.0
 20
653.0
 30
0.0
 11
-832.0
 21
653.0
 31
0.0
  0
LINE
  5
1FE
100
AcDbEntity
  8
new-cuts
 62
256
370
-1
 48
1.0
  6
BYLAYER
100
AcDbLine
 10
-832.0
 20
703.0
 30
0.0
 11
-862.9999999999997726
 21
703.0
 31
0.0
  0
LINE
  5
1FF
100
AcDbEntity
  8
new-cuts
 62
256
370
-1
 48
1.0
  6
BYLAYER
100
AcDbLine
 10
832.0000000000002274
 20
702.9999999999998863
 30
0.0
 11
862.9999999999997726
 21
702.9999999999998863
 31
0.0
  0
ARC
  5
200
100
AcDbEntity
  8
new-cuts
 62
256
370
-1
 48
1.0
  6
BYLAYER
100
AcDbCircle
 10
-832.0
 20
678.0
 30
0.0
 40
25.0
100
AcDbArc
 50
270.0
 51
90.0
  0
ARC
  5
201
100
AcDbEntity
  8
new-cuts
 62
256
370
-1
 48
1.0
  6
BYLAYER
100
AcDbCircle
 10
832.0000000000002274
 20
677.9999999999998863
 30
0.0
 40
25.0
100
AcDbArc
 50
90.0
 51
270.0
  0
DIMENSION
  5
202
100
AcDbEntity
  8
new-size
 62
256
370
-1
 48
1.0
  6
BYLAYER
100
AcDbDimension
 10
-280.0000000000000568
 20
1056.7939547907337783
 30
0.0
 11
-492.5
 21
1058.6689547907337783
 31
0.0
 70
1
 71
8
 72
2
 74
0
 75
0
 41
1.0
 42
0.0
  1

  3
Standard
100
AcDbAlignedDimension
 13
-280.0000000000000568
 23
1000.0
 33
0.0
 14
-704.9999999999998863
 24
1000.0
 34
0.0
1001
ACAD
1000
DSTYLE
1002
{
1070
144
1040
1.0
1070
40
1040
1.0
1002
}
  0
DIMENSION
  5
203
100
AcDbEntity
  8
new-size
 62
256
370
-1
 48
1.0
  6
BYLAYER
100
AcDbDimension
 10
279.9999999999999432
 20
1097.5416844655594559
 30
0.0
 11
527.5
 21
1099.4166844655594559
 31
0.0
 70
1
 71
8
 72
2
 74
0
 75
0
 41
1.0
 42
0.0
  1

  3
Standard
100
AcDbAlignedDimension
 13
279.9999999999999432
 23
1000.0
 33
0.0
 14
775.0000000000001137
 24
1000.0
 34
0.0
1001
ACAD
1000
DSTYLE
1002
{
1070
144
1040
1.0
1070
40
1040
1.0
1002
}
  0
DIMENSION
  5
204
100
AcDbEntity
  8
new-size
 62
256
370
-1
 48
1.0
  6
BYLAYER
100
AcDbDimension
 10
695.0000000000001137
 20
1060.0
 30
0.0
 11
487.5
 21
1061.875
 31
0.0
 70
1
 71
8
 72
2
 74
0
 75
0
 41
1.0
 42
0.0
  1

  3
Standard
100
AcDbAlignedDimension
 13
695.0000000000001137
 23
1000.0
 33
0.0
 14
279.9999999999999432
 24
1000.0
 34
0.0
1001
ACAD
1000
DSTYLE
1002
{
1070
144
1040
1.0
1070
40
1040
1.0
1002
}
  0
DIMENSION
  5
205
100
AcDbEntity
  8
new-size
 62
256
370
-1
 48
1.0
  6
BYLAYER
100
AcDbDimension
 10
-784.9999999999998863
 20
1100.0
 30
0.0
 11
-532.5
 21
1101.875
 31
0.0
 70
1
 71
8
 72
2
 74
0
 75
0
 41
1.0
 42
0.0
  1

  3
Standard
100
AcDbAlignedDimension
 13
-784.9999999999998863
 23
1000.0
 33
0.0
 14
-280.0000000000000568
 24
1000.0
 34
0.0
1001
ACAD
1000
DSTYLE
1002
{
1070
144
1040
1.0
1070
40
1040
1.0
1002
}
  0
DIMENSION
  5
206
100
AcDbEntity
  8
new-size
 62
256
370
-1
 48
1.0
  6
BYLAYER
100
AcDbDimension
 10
-774.9999999999998863
 20
1030.0
 30
0.0
 11
-722.4999999999998863
 21
1031.875
 31
0.0
 70
1
 71
8
 72
2
 74
0
 75
0
 41
1.0
 42
0.0
  1

  3
Standard
100
AcDbAlignedDimension
 13
-774.9999999999998863
 23
1000.0
 33
0.0
 14
-669.9999999999998863
 24
1000.0
 34
0.0
1001
ACAD
1000
DSTYLE
1002
{
1070
144
1040
1.0
1070
40
1040
1.0
1002
}
  0
DIMENSION
  5
207
100
AcDbEntity
  8
new-size
 62
256
370
-1
 48
1.0
  6
BYLAYER
100
AcDbDimension
 10
775.0
 20
1029.9999999999997726
 30
0.0
 11
722.5000000000002274
 21
1031.8749999999997726
 31
0.0
 70
1
 71
8
 72
2
 74
0
 75
0
 41
1.0
 42
0.0
  1

  3
Standard
100
AcDbAlignedDimension
 13
775.0000000000002274
 23
999.9999999999997726
 33
0.0
 14
670.0000000000002274
 24
999.9999999999997726
 34
0.0
1001
ACAD
1000
DSTYLE
1002
{
1070
144
1040
1.0
1070
40
1040
1.0
1002
}
  0
DIMENSION
  5
208
100
AcDbEntity
  8
new-size
 62
256
370
-1
 48
1.0
  6
BYLAYER
100
AcDbDimension
 10
-480.0
 20
990.0
 30
0.0
 11
-380.0
 21
991.875
 31
0.0
 70
1
 71
8
 72
2
 74
0
 75
0
 41
1.0
 42
0.0
  1

  3
Standard
100
AcDbAlignedDimension
 13
-480.0
 23
970.0
 33
0.0
 14
-280.0000000000000568
 24
970.0
 34
0.0
1001
ACAD
1000
DSTYLE
1002
{
1070
144
1040
1.0
1070
40
1040
1.0
1002
}
  0
LINE
  5
209
100
AcDbEntity
  8
new-size
 62
256
370
-1
 48
1.0
  6
BYLAYER
100
AcDbLine
 10
479.9999999999998863
 20
0.0
 30
0.0
 11
479.9999999999999432
 21
1000.0
 31
0.0
  0
LINE
  5
20A
100
AcDbEntity
  8
new-size
 62
256
370
-1
 48
1.0
  6
BYLAYER
100
AcDbLine
 10
-760.0000000000004547
 20
0.0
 30
0.0
 11
-760.0000000000003411
 21
1000.0
 31
0.0
  0
LINE
  5
20B
100
AcDbEntity
  8
new-size
 62
256
370
-1
 48
1.0
  6
BYLAYER
100
AcDbLine
 10
760.0000000000004547
 20
-0.0000000000001137
 30
0.0
 11
760.0000000000004547
 21
999.9999999999997726
 31
0.0
  0
LINE
  5
20C
100
AcDbEntity
  8
new-cuts
 62
256
370
-1
 48
1.0
  6
BYLAYER
100
AcDbLine
 10
-669.9999999999998863
 20
870.0
 30
0.0
 11
670.0
 21
870.0
 31
0.0
  0
LINE
  5
20D
100
AcDbEntity
  8
new-size
 62
256
370
-1
 48
1.0
  6
BYLAYER
100
AcDbLine
 10
1000.0
 20
0.0000000000000049
 30
0.0
 11
1000.0
 21
1000.0
 31
0.0
  0
LINE
  5
20E
100
AcDbEntity
  8
new-cuts
 62
256
370
-1
 48
1.0
  6
BYLAYER
100
AcDbLine
 10
832.0000000000002274
 20
652.9999999999998863
 30
0.0
 11
1000.0
 21
653.0
 31
0.0
  0
LINE
  5
20F
100
AcDbEntity
  8
new-cuts
 62
256
370
-1
 48
1.0
  6
BYLAYER
100
AcDbLine
 10
1000.0
 20
653.0
 30
0.0
 11
1040.0
 21
523.0
 31
0.0
  0
LINE
  5
210
100
AcDbEntity
  8
panel-borders
 62
256
370
-1
 48
1.0
  6
BYLAYER
100
AcDbLine
 10
-785.0
 20
810.5339805825244639
 30
0.0
 11
-784.9999999999998863
 21
598.0
 31
0.0
  0
LINE
  5
211
100
AcDbEntity
  8
panel-borders
 62
256
370
-1
 48
1.0
  6
BYLAYER
100
AcDbLine
 10
784.9999999999998863
 20
810.5339805825245776
 30
0.0
 11
784.9999999999998863
 21
597.9999999999998863
 31
0.0
  0
ENDSEC
  0
SECTION
  2
OBJECTS
  0
DICTIONARY
  5
C
100
AcDbDictionary
280
0
281
1
  3
ACAD_GROUP
350
D
  3
ACAD_LAYOUT
350
1A
  3
ACAD_MLINESTYLE
350
17
  3
ACAD_PLOTSETTINGS
350
19
  3
ACAD_PLOTSTYLENAME
350
E
  3
AcDbVariableDictionary
350
212
  3
QCAD_OBJECTS
350
213
  0
DICTIONARY
  5
D
100
AcDbDictionary
280
0
281
1
  0
ACDBDICTIONARYWDFLT
  5
E
100
AcDbDictionary
281
1
  3
Normal
350
F
100
AcDbDictionaryWithDefault
340
F
  0
ACDBPLACEHOLDER
  5
F
  0
DICTIONARY
  5
17
100
AcDbDictionary
280
0
281
1
  3
Standard
350
18
  0
MLINESTYLE
  5
18
100
AcDbMlineStyle
  2
STANDARD
 70
0
  3

 62
256
 51
90.0
 52
90.0
 71
2
 49
0.5
 62
256
  6
BYLAYER
 49
-0.5
 62
256
  6
BYLAYER
  0
DICTIONARY
  5
19
100
AcDbDictionary
280
0
281
1
  0
DICTIONARY
  5
1A
100
AcDbDictionary
281
1
  3
Layout1
350
1E
  3
Layout2
350
26
  3
Model
350
22
  0
LAYOUT
  5
1E
100
AcDbPlotSettings
  1

  2
none_device
  4

  6

 40
0.0
 41
0.0
 42
0.0
 43
0.0
 44
0.0
 45
0.0
 46
0.0
 47
0.0
 48
0.0
 49
0.0
140
0.0
141
0.0
142
1.0
143
1.0
 70
688
 72
0
 73
0
 74
5
  7

 75
16
147
1.0
148
0.0
149
0.0
100
AcDbLayout
  1
Layout1
 70
1
 71
1
 10
0.0
 20
0.0
 11
420.0
 21
297.0
 12
0.0
 22
0.0
 32
0.0
 14
100000000000000000000.0
 24
100000000000000000000.0
 34
100000000000000000000.0
 15
-100000000000000000000.0
 25
-100000000000000000000.0
 35
-100000000000000000000.0
146
0.0
 13
0.0
 23
0.0
 33
0.0
 16
1.0
 26
0.0
 36
0.0
 17
0.0
 27
1.0
 37
0.0
 76
0
330
1B
  0
LAYOUT
  5
22
100
AcDbPlotSettings
  1

  2
none_device
  4

  6

 40
0.0
 41
0.0
 42
0.0
 43
0.0
 44
0.0
 45
0.0
 46
0.0
 47
0.0
 48
0.0
 49
0.0
140
0.0
141
0.0
142
1.0
143
1.0
 70
1712
 72
0
 73
0
 74
0
  7

 75
0
147
1.0
148
0.0
149
0.0
100
AcDbLayout
  1
Model
 70
1
 71
0
 10
0.0
 20
0.0
 11
12.0
 21
9.0
 12
0.0
 22
0.0
 32
0.0
 14
0.0
 24
0.0
 34
0.0
 15
0.0
 25
0.0
 35
0.0
146
0.0
 13
0.0
 23
0.0
 33
0.0
 16
1.0
 26
0.0
 36
0.0
 17
0.0
 27
1.0
 37
0.0
 76
0
330
1F
  0
LAYOUT
  5
26
100
AcDbPlotSettings
  1

  2
none_device
  4

  6

 40
0.0
 41
0.0
 42
0.0
 43
0.0
 44
0.0
 45
0.0
 46
0.0
 47
0.0
 48
0.0
 49
0.0
140
0.0
141
0.0
142
1.0
143
1.0
 70
688
 72
0
 73
0
 74
5
  7

 75
16
147
1.0
148
0.0
149
0.0
100
AcDbLayout
  1
Layout2
 70
1
 71
2
 10
0.0
 20
0.0
 11
12.0
 21
9.0
 12
0.0
 22
0.0
 32
0.0
 14
0.0
 24
0.0
 34
0.0
 15
0.0
 25
0.0
 35
0.0
146
0.0
 13
0.0
 23
0.0
 33
0.0
 16
1.0
 26
0.0
 36
0.0
 17
0.0
 27
1.0
 37
0.0
 76
0
330
23
  0
DICTIONARY
  5
212
100
AcDbDictionary
281
1
  3
DIMASSOC
350
215
  3
HIDETEXT
350
214
  0
DICTIONARYVAR
  5
214
100
DictionaryVariables
280
0
  1
2
  0
DICTIONARYVAR
  5
215
100
DictionaryVariables
280
0
  1
1
  0
DICTIONARY
  5
213
100
AcDbDictionary
281
1
  3
ColorSettings/BackgroundColor
350
216
  3
ColorSettings/ColorMode
350
217
  3
Grid/DisplayGrid00
350
218
  3
Grid/DisplayGrid01
350
219
  3
Grid/DisplayGrid02
350
21A
  3
Grid/DisplayGrid03
350
21B
  3
Grid/GridSpacingX00
350
21C
  3
Grid/GridSpacingX01
350
21D
  3
Grid/GridSpacingX02
350
21E
  3
Grid/GridSpacingX03
350
21F
  3
Grid/GridSpacingY00
350
220
  3
Grid/GridSpacingY01
350
221
  3
Grid/GridSpacingY02
350
222
  3
Grid/GridSpacingY03
350
223
  3
Grid/IsometricGrid00
350
224
  3
Grid/IsometricGrid01
350
225
  3
Grid/IsometricGrid02
350
226
  3
Grid/IsometricGrid03
350
227
  3
Grid/IsometricProjection00
350
228
  3
Grid/IsometricProjection01
350
229
  3
Grid/IsometricProjection02
350
22A
  3
Grid/IsometricProjection03
350
22B
  3
Grid/MetaGridSpacingX00
350
22C
  3
Grid/MetaGridSpacingX01
350
22D
  3
Grid/MetaGridSpacingX02
350
22E
  3
Grid/MetaGridSpacingX03
350
22F
  3
Grid/MetaGridSpacingY00
350
230
  3
Grid/MetaGridSpacingY01
350
231
  3
Grid/MetaGridSpacingY02
350
232
  3
Grid/MetaGridSpacingY03
350
233
  3
MultiPageSettings/Columns
350
234
  3
MultiPageSettings/GlueMarginsBottom
350
235
  3
MultiPageSettings/GlueMarginsLeft
350
236
  3
MultiPageSettings/GlueMarginsRight
350
237
  3
MultiPageSettings/GlueMarginsTop
350
238
  3
MultiPageSettings/PrintCropMarks
350
239
  3
MultiPageSettings/Rows
350
23A
  3
PageSettings/OffsetX
350
23B
  3
PageSettings/OffsetY
350
23C
  3
PageSettings/PageOrientation
350
23D
  3
PageSettings/PaperHeight
350
23E
  3
PageSettings/PaperWidth
350
23F
  3
PageSettings/Scale
350
240
  3
PageSettings/ShowPaperBorders
350
241
  3
PageTagSettings/EnablePageTags
350
242
  3
PageTagSettings/TagAlignment
350
243
  3
PageTagSettings/TagFont
350
244
  3
PageTagSettings/TagPosition
350
245
  3
QCADVersion
350
246
  3
UnitSettings/PaperUnit
350
247
  3
ViewportCenter
350
248
  3
ViewportHeight
350
249
  3
ViewportWidth
350
24A
  0
XRECORD
  5
216
330
213
100
AcDbXrecord
280
1
1000
White
  0
XRECORD
  5
217
330
213
100
AcDbXrecord
280
1
1000
FullColor
  0
XRECORD
  5
218
330
213
100
AcDbXrecord
280
1
290
1
  0
XRECORD
  5
219
330
213
100
AcDbXrecord
280
1
290
1
  0
XRECORD
  5
21A
330
213
100
AcDbXrecord
280
1
290
1
  0
XRECORD
  5
21B
330
213
100
AcDbXrecord
280
1
290
1
  0
XRECORD
  5
21C
330
213
100
AcDbXrecord
280
1
1000
auto
  0
XRECORD
  5
21D
330
213
100
AcDbXrecord
280
1
1000
auto
  0
XRECORD
  5
21E
330
213
100
AcDbXrecord
280
1
1000
auto
  0
XRECORD
  5
21F
330
213
100
AcDbXrecord
280
1
1000
auto
  0
XRECORD
  5
220
330
213
100
AcDbXrecord
280
1
1000
auto
  0
XRECORD
  5
221
330
213
100
AcDbXrecord
280
1
1000
auto
  0
XRECORD
  5
222
330
213
100
AcDbXrecord
280
1
1000
auto
  0
XRECORD
  5
223
330
213
100
AcDbXrecord
280
1
1000
auto
  0
XRECORD
  5
224
330
213
100
AcDbXrecord
280
1
290
0
  0
XRECORD
  5
225
330
213
100
AcDbXrecord
280
1
290
0
  0
XRECORD
  5
226
330
213
100
AcDbXrecord
280
1
290
0
  0
XRECORD
  5
227
330
213
100
AcDbXrecord
280
1
290
0
  0
XRECORD
  5
228
330
213
100
AcDbXrecord
280
1
 90
65552
  0
XRECORD
  5
229
330
213
100
AcDbXrecord
280
1
 90
65537
  0
XRECORD
  5
22A
330
213
100
AcDbXrecord
280
1
 90
65537
  0
XRECORD
  5
22B
330
213
100
AcDbXrecord
280
1
 90
65537
  0
XRECORD
  5
22C
330
213
100
AcDbXrecord
280
1
1000
auto
  0
XRECORD
  5
22D
330
213
100
AcDbXrecord
280
1
1000
auto
  0
XRECORD
  5
22E
330
213
100
AcDbXrecord
280
1
1000
auto
  0
XRECORD
  5
22F
330
213
100
AcDbXrecord
280
1
1000
auto
  0
XRECORD
  5
230
330
213
100
AcDbXrecord
280
1
1000
auto
  0
XRECORD
  5
231
330
213
100
AcDbXrecord
280
1
1000
auto
  0
XRECORD
  5
232
330
213
100
AcDbXrecord
280
1
1000
auto
  0
XRECORD
  5
233
330
213
100
AcDbXrecord
280
1
1000
auto
  0
XRECORD
  5
234
330
213
100
AcDbXrecord
280
1
 90
1
  0
XRECORD
  5
235
330
213
100
AcDbXrecord
280
1
 40
10.0
  0
XRECORD
  5
236
330
213
100
AcDbXrecord
280
1
 40
10.0
  0
XRECORD
  5
237
330
213
100
AcDbXrecord
280
1
 40
10.0
  0
XRECORD
  5
238
330
213
100
AcDbXrecord
280
1
 40
10.0
  0
XRECORD
  5
239
330
213
100
AcDbXrecord
280
1
290
0
  0
XRECORD
  5
23A
330
213
100
AcDbXrecord
280
1
 90
1
  0
XRECORD
  5
23B
330
213
100
AcDbXrecord
280
1
 40
0.0
  0
XRECORD
  5
23C
330
213
100
AcDbXrecord
280
1
 40
0.0
  0
XRECORD
  5
23D
330
213
100
AcDbXrecord
280
1
1000
Portrait
  0
XRECORD
  5
23E
330
213
100
AcDbXrecord
280
1
 40
297.0
  0
XRECORD
  5
23F
330
213
100
AcDbXrecord
280
1
 40
210.0
  0
XRECORD
  5
240
330
213
100
AcDbXrecord
280
1
1000
1:1
  0
XRECORD
  5
241
330
213
100
AcDbXrecord
280
1
290
1
  0
XRECORD
  5
242
330
213
100
AcDbXrecord
280
1
290
0
  0
XRECORD
  5
243
330
213
100
AcDbXrecord
280
1
1000
Inside
  0
XRECORD
  5
244
330
213
100
AcDbXrecord
280
1
1000
Arial,10,-1,5,50,0,0,0,0,0
  0
XRECORD
  5
245
330
213
100
AcDbXrecord
280
1
1000
TopLeft
  0
XRECORD
  5
246
330
213
100
AcDbXrecord
280
1
1000
3.32.4
  0
XRECORD
  5
247
330
213
100
AcDbXrecord
280
1
 90
4
  0
XRECORD
  5
249
330
213
100
AcDbXrecord
280
1
 40
889.5667229511568621
  0
XRECORD
  5
24A
330
213
100
AcDbXrecord
280
1
 40
1563.7976704288255405
  0
ENDSEC
  0
EOF
