999
dxflib 3.26.4.0
  0
SECTION
  2
HEADER
  9
$ACADVER
  1
AC1015
  9
$HANDSEED
  5
FFFF
  9
$DIMADEC
 70
0
  9
$DIMASZ
 40
2.5
  9
$DIMATFIT
 70
0
  9
$DIMAUNIT
 70
0
  9
$DIMAZIN
 70
2
  9
$DIMBLK
  1
0
  9
$DIMBLK1
  1
0
  9
$DIMBLK2
  1
0
  9
$DIMDEC
 70
4
  9
$DIMDLI
 40
5.0
  9
$DIMDSEP
 70
46
  9
$DIMEXE
 40
1.25
  9
$DIMEXO
 40
0.625
  9
$DIMGAP
 40
0.625
  9
$DIMLFAC
 40
1.0
  9
$DIMLUNIT
 70
2
  9
$DIMSCALE
 40
1.0
  9
$DIMTAD
 70
1
  9
$DIMTIH
 70
0
  9
$DIMTSZ
 40
0.0
  9
$DIMTXT
 40
2.5
  9
$DIMZIN
 70
8
  9
$DWGCODEPAGE
  3
ANSI_1252
  9
$INSUNITS
 70
4
  9
$LTSCALE
 40
1.0
  9
$MAXACTVP
 70
64
  9
$MEASUREMENT
 70
1
  9
$MIRRTEXT
 70
0
  9
$PDMODE
 70
0
  9
$PDSIZE
 40
0.0
  0
ENDSEC
  0
SECTION
  2
TABLES
  0
TABLE
  2
VPORT
  5
8
100
AcDbSymbolTable
 70
1
  0
VPORT
  5
30
100
AcDbSymbolTableRecord
100
AcDbViewportTableRecord
  2
*Active
 70
0
 10
0.0
 20
0.0
 11
1.0
 21
1.0
 12
286.3055555555554861
 22
148.5
 13
0.0
 23
0.0
 14
10.0
 24
10.0
 15
10.0
 25
10.0
 16
0.0
 26
0.0
 36
1.0
 17
0.0
 27
0.0
 37
0.0
 40
297.0
 41
1.92798353909465
 42
50.0
 43
0.0
 44
0.0
 50
0.0
 51
0.0
 71
0
 72
100
 73
1
 74
3
 75
1
 76
1
 77
0
 78
0
281
0
 65
1
110
0.0
120
0.0
130
0.0
111
1.0
121
0.0
131
0.0
112
0.0
122
1.0
132
0.0
 79
0
146
0.0
  0
ENDTAB
  0
TABLE
  2
LTYPE
  5
5
100
AcDbSymbolTable
 70
41
  0
LTYPE
  5
16
100
AcDbSymbolTableRecord
100
AcDbLinetypeTableRecord
  2
Continuous
 70
0
  3
Solid line
 72
65
 73
0
 40
0.0
  0
LTYPE
  5
31
100
AcDbSymbolTableRecord
100
AcDbLinetypeTableRecord
  2
CENTERX2
 70
0
  3
Center (2x) ________  __  ________  __  _____
 72
65
 73
4
 40
101.6000000000000085
 49
63.5
 74
0
 49
-12.6999999999999993
 74
0
 49
12.6999999999999993
 74
0
 49
-12.6999999999999993
 74
0
  0
LTYPE
  5
32
100
AcDbSymbolTableRecord
100
AcDbLinetypeTableRecord
  2
ACAD_ISO14W100
 70
0
  3
ISO dash triple-dot __ . . . __ . . . __ . . . _
 72
65
 73
8
 40
24.0000000000000036
 49
12.0
 74
0
 49
-2.9500000000000002
 74
0
 49
0.1
 74
0
 49
-2.9000000000000004
 74
0
 49
0.1
 74
0
 49
-2.9000000000000004
 74
0
 49
0.1
 74
0
 49
-2.9500000000000002
 74
0
  0
LTYPE
  5
33
100
AcDbSymbolTableRecord
100
AcDbLinetypeTableRecord
  2
DASHDOTX2
 70
0
  3
Dash dot (2x) ____  .  ____  .  ____  .  ___
 72
65
 73
4
 40
50.7999999999999972
 49
25.3999999999999986
 74
0
 49
-12.6499999999999986
 74
0
 49
0.1
 74
0
 49
-12.6499999999999986
 74
0
  0
LTYPE
  5
34
100
AcDbSymbolTableRecord
100
AcDbLinetypeTableRecord
  2
ACAD_ISO11W100
 70
0
  3
ISO double-dash dot __ __ . __ __ . __ __ . __ _
 72
65
 73
6
 40
33.0
 49
12.0
 74
0
 49
-3.0
 74
0
 49
12.0
 74
0
 49
-2.9500000000000002
 74
0
 49
0.1
 74
0
 49
-2.9500000000000002
 74
0
  0
LTYPE
  5
35
100
AcDbSymbolTableRecord
100
AcDbLinetypeTableRecord
  2
CENTER2
 70
0
  3
Center (.5x) ___ _ ___ _ ___ _ ___ _ ___ _ ___
 72
65
 73
4
 40
28.5750000000000028
 49
19.0500000000000007
 74
0
 49
-3.1749999999999998
 74
0
 49
3.1749999999999998
 74
0
 49
-3.1749999999999998
 74
0
  0
LTYPE
  5
36
100
AcDbSymbolTableRecord
100
AcDbLinetypeTableRecord
  2
ACAD_ISO08W100
 70
0
  3
ISO long-dash short-dash ____ __ ____ __ ____ _
 72
65
 73
4
 40
36.0
 49
24.0
 74
0
 49
-3.0
 74
0
 49
6.0
 74
0
 49
-3.0
 74
0
  0
LTYPE
  5
37
100
AcDbSymbolTableRecord
100
AcDbLinetypeTableRecord
  2
DOT2
 70
0
  3
Dot (.5x) ........................................
 72
65
 73
2
 40
3.1749999999999998
 49
0.1
 74
0
 49
-3.0749999999999997
 74
0
  0
LTYPE
  5
15
100
AcDbSymbolTableRecord
100
AcDbLinetypeTableRecord
  2
BYLAYER
 70
0
  3

 72
65
 73
0
 40
0.0
  0
LTYPE
  5
38
100
AcDbSymbolTableRecord
100
AcDbLinetypeTableRecord
  2
DASHDOT
 70
0
  3
Dash dot __ . __ . __ . __ . __ . __ . __ . __
 72
65
 73
4
 40
25.4000000000000021
 49
12.6999999999999993
 74
0
 49
-6.2999999999999998
 74
0
 49
0.1
 74
0
 49
-6.2999999999999998
 74
0
  0
LTYPE
  5
39
100
AcDbSymbolTableRecord
100
AcDbLinetypeTableRecord
  2
BORDER2
 70
0
  3
Border (.5x) __.__.__.__.__.__.__.__.__.__.__.
 72
65
 73
6
 40
22.2250000000000014
 49
6.3499999999999996
 74
0
 49
-3.1749999999999998
 74
0
 49
6.3499999999999996
 74
0
 49
-3.125
 74
0
 49
0.1
 74
0
 49
-3.125
 74
0
  0
LTYPE
  5
3A
100
AcDbSymbolTableRecord
100
AcDbLinetypeTableRecord
  2
PHANTOMX2
 70
0
  3
Phantom (2x) ____________    ____    ____   _
 72
65
 73
6
 40
127.0000000000000142
 49
63.5
 74
0
 49
-12.6999999999999993
 74
0
 49
12.6999999999999993
 74
0
 49
-12.6999999999999993
 74
0
 49
12.6999999999999993
 74
0
 49
-12.6999999999999993
 74
0
  0
LTYPE
  5
3B
100
AcDbSymbolTableRecord
100
AcDbLinetypeTableRecord
  2
DASHED
 70
0
  3
Dashed __ __ __ __ __ __ __ __ __ __ __ __ __ _
 72
65
 73
2
 40
19.0499999999999972
 49
12.6999999999999993
 74
0
 49
-6.3499999999999996
 74
0
  0
LTYPE
  5
14
100
AcDbSymbolTableRecord
100
AcDbLinetypeTableRecord
  2
BYBLOCK
 70
0
  3

 72
65
 73
0
 40
0.0
  0
LTYPE
  5
3C
100
AcDbSymbolTableRecord
100
AcDbLinetypeTableRecord
  2
HIDDEN2
 70
0
  3
Hidden (.5x) _ _ _ _ _ _ _ _ _ _ _ _ _ _ _ _ _ 
 72
65
 73
2
 40
4.7624999999999993
 49
3.1749999999999998
 74
0
 49
-1.5874999999999999
 74
0
  0
LTYPE
  5
3D
100
AcDbSymbolTableRecord
100
AcDbLinetypeTableRecord
  2
ACAD_ISO09W100
 70
0
  3
ISO long-dash double-short-dash ____ __ __ ____
 72
65
 73
6
 40
45.0
 49
24.0
 74
0
 49
-3.0
 74
0
 49
6.0
 74
0
 49
-3.0
 74
0
 49
6.0
 74
0
 49
-3.0
 74
0
  0
LTYPE
  5
3E
100
AcDbSymbolTableRecord
100
AcDbLinetypeTableRecord
  2
ACAD_ISO10W100
 70
0
  3
ISO dash dot __ . __ . __ . __ . __ . __ . __ . 
 72
65
 73
4
 40
18.0
 49
12.0
 74
0
 49
-2.9500000000000002
 74
0
 49
0.1
 74
0
 49
-2.9500000000000002
 74
0
  0
LTYPE
  5
3F
100
AcDbSymbolTableRecord
100
AcDbLinetypeTableRecord
  2
PHANTOM
 70
0
  3
Phantom ______  __  __  ______  __  __  ______ 
 72
65
 73
6
 40
63.5000000000000071
 49
31.75
 74
0
 49
-6.3499999999999996
 74
0
 49
6.3499999999999996
 74
0
 49
-6.3499999999999996
 74
0
 49
6.3499999999999996
 74
0
 49
-6.3499999999999996
 74
0
  0
LTYPE
  5
40
100
AcDbSymbolTableRecord
100
AcDbLinetypeTableRecord
  2
PHANTOM2
 70
0
  3
Phantom (.5x) ___ _ _ ___ _ _ ___ _ _ ___ _ _
 72
65
 73
6
 40
31.7500000000000036
 49
15.875
 74
0
 49
-3.1749999999999998
 74
0
 49
3.1749999999999998
 74
0
 49
-3.1749999999999998
 74
0
 49
3.1749999999999998
 74
0
 49
-3.1749999999999998
 74
0
  0
LTYPE
  5
41
100
AcDbSymbolTableRecord
100
AcDbLinetypeTableRecord
  2
ACAD_ISO03W100
 70
0
  3
ISO dash space __    __    __    __    __    __
 72
65
 73
2
 40
30.0
 49
12.0
 74
0
 49
-18.0
 74
0
  0
LTYPE
  5
42
100
AcDbSymbolTableRecord
100
AcDbLinetypeTableRecord
  2
BORDERX2
 70
0
  3
Border (2x) ____  ____  .  ____  ____  .  ___
 72
65
 73
6
 40
88.8999999999999773
 49
25.3999999999999986
 74
0
 49
-12.6999999999999993
 74
0
 49
25.3999999999999986
 74
0
 49
-12.6499999999999986
 74
0
 49
0.1
 74
0
 49
-12.6499999999999986
 74
0
  0
LTYPE
  5
43
100
AcDbSymbolTableRecord
100
AcDbLinetypeTableRecord
  2
ACAD_ISO04W100
 70
0
  3
ISO long-dash dot ____ . ____ . ____ . ____ . _
 72
65
 73
4
 40
30.0
 49
24.0
 74
0
 49
-2.9500000000000002
 74
0
 49
0.1
 74
0
 49
-2.9500000000000002
 74
0
  0
LTYPE
  5
44
100
AcDbSymbolTableRecord
100
AcDbLinetypeTableRecord
  2
DIVIDE2
 70
0
  3
Divide (.5x) __..__..__..__..__..__..__..__.._
 72
65
 73
6
 40
15.8749999999999982
 49
6.3499999999999996
 74
0
 49
-3.125
 74
0
 49
0.1
 74
0
 49
-3.0750000000000002
 74
0
 49
0.1
 74
0
 49
-3.125
 74
0
  0
LTYPE
  5
45
100
AcDbSymbolTableRecord
100
AcDbLinetypeTableRecord
  2
BORDER
 70
0
  3
Border __ __ . __ __ . __ __ . __ __ . __ __ .
 72
65
 73
6
 40
44.4499999999999957
 49
12.6999999999999993
 74
0
 49
-6.3499999999999996
 74
0
 49
12.6999999999999993
 74
0
 49
-6.2999999999999998
 74
0
 49
0.1
 74
0
 49
-6.2999999999999998
 74
0
  0
LTYPE
  5
46
100
AcDbSymbolTableRecord
100
AcDbLinetypeTableRecord
  2
DOT
 70
0
  3
Dot . . . . . . . . . . . . . . . . . . . . . . . .
 72
65
 73
2
 40
6.3499999999999996
 49
0.1
 74
0
 49
-6.25
 74
0
  0
LTYPE
  5
47
100
AcDbSymbolTableRecord
100
AcDbLinetypeTableRecord
  2
ACAD_ISO06W100
 70
0
  3
ISO long-dash triple-dot ____ ... ____ ... ____
 72
65
 73
8
 40
36.0000000000000071
 49
24.0
 74
0
 49
-2.9500000000000002
 74
0
 49
0.1
 74
0
 49
-2.9000000000000004
 74
0
 49
0.1
 74
0
 49
-2.9000000000000004
 74
0
 49
0.1
 74
0
 49
-2.9500000000000002
 74
0
  0
LTYPE
  5
48
100
AcDbSymbolTableRecord
100
AcDbLinetypeTableRecord
  2
DASHDOT2
 70
0
  3
Dash dot (.5x) _._._._._._._._._._._._._._._.
 72
65
 73
4
 40
12.6999999999999993
 49
6.3499999999999996
 74
0
 49
-3.125
 74
0
 49
0.1
 74
0
 49
-3.125
 74
0
  0
LTYPE
  5
49
100
AcDbSymbolTableRecord
100
AcDbLinetypeTableRecord
  2
DASHEDX2
 70
0
  3
Dashed (2x) ____  ____  ____  ____  ____  ___
 72
65
 73
2
 40
38.0999999999999943
 49
25.3999999999999986
 74
0
 49
-12.6999999999999993
 74
0
  0
LTYPE
  5
4A
100
AcDbSymbolTableRecord
100
AcDbLinetypeTableRecord
  2
DIVIDE
 70
0
  3
Divide ____ . . ____ . . ____ . . ____ . . ____
 72
65
 73
6
 40
31.7500000000000036
 49
12.6999999999999993
 74
0
 49
-6.2999999999999998
 74
0
 49
0.1
 74
0
 49
-6.25
 74
0
 49
0.1
 74
0
 49
-6.2999999999999998
 74
0
  0
LTYPE
  5
4B
100
AcDbSymbolTableRecord
100
AcDbLinetypeTableRecord
  2
DOTX2
 70
0
  3
Dot (2x) .  .  .  .  .  .  .  .  .  .  .  .  .  .
 72
65
 73
2
 40
12.6999999999999993
 49
0.1
 74
0
 49
-12.5999999999999996
 74
0
  0
LTYPE
  5
4C
100
AcDbSymbolTableRecord
100
AcDbLinetypeTableRecord
  2
ACAD_ISO05W100
 70
0
  3
ISO long-dash double-dot ____ .. ____ .. ____ . 
 72
65
 73
6
 40
33.0000000000000071
 49
24.0
 74
0
 49
-2.9500000000000002
 74
0
 49
0.1
 74
0
 49
-2.9000000000000004
 74
0
 49
0.1
 74
0
 49
-2.9500000000000002
 74
0
  0
LTYPE
  5
4D
100
AcDbSymbolTableRecord
100
AcDbLinetypeTableRecord
  2
DIVIDEX2
 70
0
  3
Divide (2x) ________  .  .  ________  .  .  _
 72
65
 73
6
 40
63.5
 49
25.3999999999999986
 74
0
 49
-12.6499999999999986
 74
0
 49
0.1
 74
0
 49
-12.5999999999999979
 74
0
 49
0.1
 74
0
 49
-12.6499999999999986
 74
0
  0
LTYPE
  5
4E
100
AcDbSymbolTableRecord
100
AcDbLinetypeTableRecord
  2
CENTER
 70
0
  3
Center ____ _ ____ _ ____ _ ____ _ ____ _ ____
 72
65
 73
4
 40
50.8000000000000043
 49
31.75
 74
0
 49
-6.3499999999999996
 74
0
 49
6.3499999999999996
 74
0
 49
-6.3499999999999996
 74
0
  0
LTYPE
  5
4F
100
AcDbSymbolTableRecord
100
AcDbLinetypeTableRecord
  2
DASHED2
 70
0
  3
Dashed (.5x) _ _ _ _ _ _ _ _ _ _ _ _ _ _ _ _ _ 
 72
65
 73
2
 40
9.5249999999999986
 49
6.3499999999999996
 74
0
 49
-3.1749999999999998
 74
0
  0
LTYPE
  5
50
100
AcDbSymbolTableRecord
100
AcDbLinetypeTableRecord
  2
ACAD_ISO13W100
 70
0
  3
ISO double-dash double-dot __ __ . . __ __ . . _
 72
65
 73
8
 40
36.0000000000000071
 49
12.0
 74
0
 49
-3.0
 74
0
 49
12.0
 74
0
 49
-2.9500000000000002
 74
0
 49
0.1
 74
0
 49
-2.9000000000000004
 74
0
 49
0.1
 74
0
 49
-2.9500000000000002
 74
0
  0
LTYPE
  5
51
100
AcDbSymbolTableRecord
100
AcDbLinetypeTableRecord
  2
ACAD_ISO02W100
 70
0
  3
ISO dash __ __ __ __ __ __ __ __ __ __ __ __ __
 72
65
 73
2
 40
15.0
 49
12.0
 74
0
 49
-3.0
 74
0
  0
LTYPE
  5
52
100
AcDbSymbolTableRecord
100
AcDbLinetypeTableRecord
  2
ACAD_ISO12W100
 70
0
  3
ISO dash double-dot __ . . __ . . __ . . __ . . 
 72
65
 73
6
 40
21.0
 49
12.0
 74
0
 49
-2.9500000000000002
 74
0
 49
0.1
 74
0
 49
-2.9000000000000004
 74
0
 49
0.1
 74
0
 49
-2.9500000000000002
 74
0
  0
LTYPE
  5
53
100
AcDbSymbolTableRecord
100
AcDbLinetypeTableRecord
  2
ACAD_ISO15W100
 70
0
  3
ISO double-dash triple-dot __ __ . . . __ __ . .
 72
65
 73
10
 40
39.0000000000000071
 49
12.0
 74
0
 49
-3.0
 74
0
 49
12.0
 74
0
 49
-2.9500000000000002
 74
0
 49
0.1
 74
0
 49
-2.9000000000000004
 74
0
 49
0.1
 74
0
 49
-2.9000000000000004
 74
0
 49
0.1
 74
0
 49
-2.9500000000000002
 74
0
  0
LTYPE
  5
54
100
AcDbSymbolTableRecord
100
AcDbLinetypeTableRecord
  2
HIDDENX2
 70
0
  3
Hidden (2x) ____ ____ ____ ____ ____ ____ ____ 
 72
65
 73
2
 40
19.0499999999999972
 49
12.6999999999999993
 74
0
 49
-6.3499999999999996
 74
0
  0
LTYPE
  5
55
100
AcDbSymbolTableRecord
100
AcDbLinetypeTableRecord
  2
ACAD_ISO07W100
 70
0
  3
ISO dot . . . . . . . . . . . . . . . . . . . . 
 72
65
 73
2
 40
3.0
 49
0.1
 74
0
 49
-2.8999999999999999
 74
0
  0
LTYPE
  5
56
100
AcDbSymbolTableRecord
100
AcDbLinetypeTableRecord
  2
HIDDEN
 70
0
  3
Hidden __ __ __ __ __ __ __ __ __ __ __ __ __ __
 72
65
 73
2
 40
9.5249999999999986
 49
6.3499999999999996
 74
0
 49
-3.1749999999999998
 74
0
  0
ENDTAB
  0
TABLE
  2
LAYER
  5
2
100
AcDbSymbolTable
 70
2
  0
LAYER
  5
57
100
AcDbSymbolTableRecord
100
AcDbLayerTableRecord
  2
new-cuts
 70
0
 62
7
420
16777215
  6
Continuous
370
20
390
F
  0
LAYER
  5
10
100
AcDbSymbolTableRecord
100
AcDbLayerTableRecord
  2
0
 70
0
 62
54
420
8421376
  6
Continuous
370
20
390
F
  0
ENDTAB
  0
TABLE
  2
STYLE
  5
3
100
AcDbSymbolTable
 70
1
  0
STYLE
  5
58
100
AcDbSymbolTableRecord
100
AcDbTextStyleTableRecord
  2
Standard
 70
0
 40
0.0
 41
1.0
 50
0.0
 71
0
 42
2.5
  3

  4

1001
ACAD
1000
txt
1071
0
  0
ENDTAB
  0
TABLE
  2
VIEW
  5
6
100
AcDbSymbolTable
 70
0
  0
ENDTAB
  0
TABLE
  2
UCS
  5
7
100
AcDbSymbolTable
 70
0
  0
ENDTAB
  0
TABLE
  2
APPID
  5
9
100
AcDbSymbolTable
 70
1
  0
APPID
  5
12
100
AcDbSymbolTableRecord
100
AcDbRegAppTableRecord
  2
ACAD
 70
0
  0
APPID
  5
59
100
AcDbSymbolTableRecord
100
AcDbRegAppTableRecord
  2
QCAD
 70
0
  0
ENDTAB
  0
TABLE
  2
DIMSTYLE
  5
A
100
AcDbSymbolTable
 70
1
100
AcDbDimStyleTable
 71
0
  0
DIMSTYLE
105
27
100
AcDbSymbolTableRecord
100
AcDbDimStyleTableRecord
  2
Standard
 41
2.5
 42
0.625
 43
3.75
 44
1.25
 70
0
 73
0
 74
0
 77
1
 78
8
140
2.5
141
2.5
143
0.03937007874016
147
0.625
171
3
172
1
271
2
272
2
274
3
278
44
283
0
284
8
340
58
  0
ENDTAB
  0
TABLE
  2
BLOCK_RECORD
  5
1
100
AcDbSymbolTable
 70
1
  0
BLOCK_RECORD
  5
1F
100
AcDbSymbolTableRecord
100
AcDbBlockTableRecord
  2
*Model_Space
340
22
  0
BLOCK_RECORD
  5
1B
100
AcDbSymbolTableRecord
100
AcDbBlockTableRecord
  2
*Paper_Space
340
1E
  0
BLOCK_RECORD
  5
23
100
AcDbSymbolTableRecord
100
AcDbBlockTableRecord
  2
*Paper_Space0
340
26
  0
BLOCK_RECORD
  5
5A
100
AcDbSymbolTableRecord
100
AcDbBlockTableRecord
  2
hole-direct
340
0
  0
BLOCK_RECORD
  5
5B
100
AcDbSymbolTableRecord
100
AcDbBlockTableRecord
  2
hole
340
0
  0
ENDTAB
  0
ENDSEC
  0
SECTION
  2
BLOCKS
  0
BLOCK
  5
20
100
AcDbEntity
  8
0
100
AcDbBlockBegin
  2
*Model_Space
 70
0
 10
0.0
 20
0.0
 30
0.0
  3
*Model_Space
  1

  0
ENDBLK
  5
21
100
AcDbEntity
  8
0
100
AcDbBlockEnd
  0
BLOCK
  5
1C
100
AcDbEntity
 67
1
  8
0
100
AcDbBlockBegin
  2
*Paper_Space
 70
0
 10
0.0
 20
0.0
 30
0.0
  3
*Paper_Space
  1

  0
ENDBLK
  5
1D
100
AcDbEntity
 67
1
  8
0
100
AcDbBlockEnd
  0
BLOCK
  5
24
100
AcDbEntity
  8
0
100
AcDbBlockBegin
  2
*Paper_Space0
 70
0
 10
0.0
 20
0.0
 30
0.0
  3
*Paper_Space0
  1

  0
ENDBLK
  5
25
100
AcDbEntity
  8
0
100
AcDbBlockEnd
  0
BLOCK
  5
5C
100
AcDbEntity
  8
0
100
AcDbBlockBegin
  2
hole-direct
 70
0
 10
0.0
 20
0.0
 30
0.0
  3
hole-direct
  1

  0
CIRCLE
  5
5D
100
AcDbEntity
  8
new-cuts
 62
256
370
-1
 48
1.0
  6
BYLAYER
100
AcDbCircle
 10
0.0
 20
10.0
 30
0.0
 40
1.0
  0
ENDBLK
  5
5E
100
AcDbEntity
  8
0
100
AcDbBlockEnd
  0
BLOCK
  5
5F
100
AcDbEntity
  8
0
100
AcDbBlockBegin
  2
hole
 70
0
 10
0.0
 20
0.0
 30
0.0
  3
hole
  1

  0
CIRCLE
  5
60
100
AcDbEntity
  8
new-cuts
 62
256
370
-1
 48
1.0
  6
BYLAYER
100
AcDbCircle
 10
10.0
 20
10.0
 30
0.0
 40
1.0
  0
ENDBLK
  5
61
100
AcDbEntity
  8
0
100
AcDbBlockEnd
  0
ENDSEC
  0
SECTION
  2
ENTITIES
  0
INSERT
  5
62
100
AcDbEntity
  8
new-cuts
 62
256
370
-1
 48
1.0
  6
BYLAYER
100
AcDbBlockReference
  2
hole
 10
-704.9999999999998863
 20
630.0
 30
0.0
  0
INSERT
  5
63
100
AcDbEntity
  8
new-cuts
 62
256
370
-1
 48
1.0
  6
BYLAYER
100
AcDbBlockReference
  2
hole
 10
-360.0000000000001137
 20
630.0
 30
0.0
 41
1.0
 42
-1.0
 43
1.0
 50
180.0
  0
INSERT
  5
64
100
AcDbEntity
  8
new-cuts
 62
256
370
-1
 48
1.0
  6
BYLAYER
100
AcDbBlockReference
  2
hole
 10
-669.9999999999995453
 20
870.0
 30
0.0
 41
1.0
 42
-1.0
 43
1.0
  0
INSERT
  5
65
100
AcDbEntity
  8
new-cuts
 62
256
370
-1
 48
1.0
  6
BYLAYER
100
AcDbBlockReference
  2
hole
 10
-265.0000000000000568
 20
870.0
 30
0.0
 50
180.0
  0
INSERT
  5
66
100
AcDbEntity
  8
new-cuts
 62
256
370
-1
 48
1.0
  6
BYLAYER
100
AcDbBlockReference
  2
hole
 10
-785.7621151127146959
 20
440.1270048406111073
 30
0.0
 41
1.0
 42
-1.0
 43
1.0
  0
INSERT
  5
67
100
AcDbEntity
  8
new-cuts
 62
256
370
-1
 48
1.0
  6
BYLAYER
100
AcDbBlockReference
  2
hole
 10
-690.7621151127148096
 20
200.1270048406111073
 30
0.0
  0
INSERT
  5
68
100
AcDbEntity
  8
new-cuts
 62
256
370
-1
 48
1.0
  6
BYLAYER
100
AcDbBlockReference
  2
hole
 10
-355.7621151127145254
 20
200.1270048406111073
 30
0.0
 41
1.0
 42
-1.0
 43
1.0
 50
180.0
 44
1.0
 45
1.0
  0
INSERT
  5
69
100
AcDbEntity
  8
new-cuts
 62
256
370
-1
 48
1.0
  6
BYLAYER
100
AcDbBlockReference
  2
hole
 10
-1010.0
 20
630.0
 30
0.0
  0
INSERT
  5
6A
100
AcDbEntity
  8
new-cuts
 62
256
370
-1
 48
1.0
  6
BYLAYER
100
AcDbBlockReference
  2
hole
 10
-50.7621151127145822
 20
200.1270048406111073
 30
0.0
 41
1.0
 42
-1.0
 43
1.0
 50
180.0
  0
INSERT
  5
6B
100
AcDbEntity
  8
new-cuts
 62
256
370
-1
 48
1.0
  6
BYLAYER
100
AcDbBlockReference
  2
hole
 10
-784.9999999999998863
 20
630.0
 30
0.0
 41
1.0
 42
-1.0
 43
1.0
 50
180.0
  0
INSERT
  5
6C
100
AcDbEntity
  8
new-cuts
 62
256
370
-1
 48
1.0
  6
BYLAYER
100
AcDbBlockReference
  2
hole
 10
-265.7621151127145822
 20
200.1270048406111073
 30
0.0
  0
INSERT
  5
6D
100
AcDbEntity
  8
new-cuts
 62
256
370
-1
 48
1.0
  6
BYLAYER
100
AcDbBlockReference
  2
hole-direct
 10
-280.0000000000000568
 20
598.0
 30
0.0
 50
270.0
  0
INSERT
  5
6E
100
AcDbEntity
  8
new-cuts
 62
256
370
-1
 48
1.0
  6
BYLAYER
100
AcDbBlockReference
  2
hole
 10
-265.0000000000000568
 20
870.0
 30
0.0
 50
270.0
  0
INSERT
  5
6F
100
AcDbEntity
  8
new-cuts
 62
256
370
-1
 48
1.0
  6
BYLAYER
100
AcDbBlockReference
  2
hole
 10
-785.7621151127146959
 20
440.1270048406111073
 30
0.0
 41
1.0
 42
-1.0
 43
1.0
 50
270.0
  0
LINE
  5
70
100
AcDbEntity
  8
new-cuts
 62
256
370
-1
 48
1.0
  6
BYLAYER
100
AcDbLine
 10
-844.9999999999998863
 20
563.0883117545687355
 30
0.0
 11
-844.9999999999998863
 21
592.9116882454312645
 31
0.0
  0
LINE
  5
71
100
AcDbEntity
  8
new-cuts
 62
256
370
-1
 48
1.0
  6
BYLAYER
100
AcDbLine
 10
-125.7621151127145822
 20
133.2153165951798428
 30
0.0
 11
-125.7621151127145822
 21
163.0386930860423718
 31
0.0
  0
ARC
  5
72
100
AcDbEntity
  8
new-cuts
 62
256
370
-1
 48
1.0
  6
BYLAYER
100
AcDbCircle
 10
-848.9999999999998863
 20
592.9116882454312645
 30
0.0
 40
4.0
100
AcDbArc
 50
0.0
 51
45.0
  0
ARC
  5
73
100
AcDbEntity
  8
new-cuts
 62
256
370
-1
 48
1.0
  6
BYLAYER
100
AcDbCircle
 10
-129.7621151127145822
 20
163.0386930860423718
 30
0.0
 40
4.0
100
AcDbArc
 50
0.0
 51
45.0
  0
LINE
  5
74
100
AcDbEntity
  8
new-cuts
 62
256
370
-1
 48
1.0
  6
BYLAYER
100
AcDbLine
 10
-846.1715728752536734
 20
595.7401153701774774
 30
0.0
 11
-867.2598846298225226
 21
616.8284271247460993
 31
0.0
  0
LINE
  5
75
100
AcDbEntity
  8
new-cuts
 62
256
370
-1
 48
1.0
  6
BYLAYER
100
AcDbLine
 10
-126.9336879879683693
 20
165.8671202107885847
 30
0.0
 11
-148.0219997425372185
 21
186.9554319653572065
 31
0.0
  0
ARC
  5
76
100
AcDbEntity
  8
new-cuts
 62
256
370
-1
 48
1.0
  6
BYLAYER
100
AcDbCircle
 10
-870.0883117545686218
 20
613.9999999999998863
 30
0.0
 40
4.0
100
AcDbArc
 50
45.0000000000011582
 51
90.0
  0
ARC
  5
77
100
AcDbEntity
  8
new-cuts
 62
256
370
-1
 48
1.0
  6
BYLAYER
100
AcDbCircle
 10
-150.850426867283204
 20
184.1270048406109936
 30
0.0
 40
4.0
100
AcDbArc
 50
45.0000000000011582
 51
90.0
  0
LINE
  5
78
100
AcDbEntity
  8
new-cuts
 62
256
370
-1
 48
1.0
  6
BYLAYER
100
AcDbLine
 10
-870.0883117545686218
 20
617.9999999999998863
 30
0.0
 11
-899.9116882454316055
 21
617.9999999999998863
 31
0.0
  0
LINE
  5
79
100
AcDbEntity
  8
new-cuts
 62
256
370
-1
 48
1.0
  6
BYLAYER
100
AcDbLine
 10
-150.850426867283204
 20
188.1270048406109936
 30
0.0
 11
-180.6738033581461877
 21
188.1270048406109936
 31
0.0
  0
ARC
  5
7A
100
AcDbEntity
  8
new-cuts
 62
256
370
-1
 48
1.0
  6
BYLAYER
100
AcDbCircle
 10
-899.9116882454316055
 20
613.9999999999998863
 30
0.0
 40
4.0
100
AcDbArc
 50
90.0
 51
135.0000000000011369
  0
ARC
  5
7B
100
AcDbEntity
  8
new-cuts
 62
256
370
-1
 48
1.0
  6
BYLAYER
100
AcDbCircle
 10
-180.6738033581461877
 20
184.1270048406109936
 30
0.0
 40
4.0
100
AcDbArc
 50
90.0
 51
135.0000000000011369
  0
LINE
  5
7C
100
AcDbEntity
  8
new-cuts
 62
256
370
-1
 48
1.0
  6
BYLAYER
100
AcDbLine
 10
-902.7401153701778185
 20
616.8284271247459856
 30
0.0
 11
-923.8284271247462129
 21
595.7401153701775911
 31
0.0
  0
LINE
  5
7D
100
AcDbEntity
  8
new-cuts
 62
256
370
-1
 48
1.0
  6
BYLAYER
100
AcDbLine
 10
-183.5022304828924007
 20
186.9554319653570928
 30
0.0
 11
-204.5905422374607951
 21
165.8671202107886984
 31
0.0
  0
ARC
  5
7E
100
AcDbEntity
  8
new-cuts
 62
256
370
-1
 48
1.0
  6
BYLAYER
100
AcDbCircle
 10
-921.0
 20
592.9116882454313782
 30
0.0
 40
4.0
100
AcDbArc
 50
135.0
 51
180.0
  0
ARC
  5
7F
100
AcDbEntity
  8
new-cuts
 62
256
370
-1
 48
1.0
  6
BYLAYER
100
AcDbCircle
 10
-201.7621151127145822
 20
163.0386930860424854
 30
0.0
 40
4.0
100
AcDbArc
 50
135.0
 51
180.0
  0
LINE
  5
80
100
AcDbEntity
  8
new-cuts
 62
256
370
-1
 48
1.0
  6
BYLAYER
100
AcDbLine
 10
-925.0
 20
592.9116882454313782
 30
0.0
 11
-925.0
 21
563.0883117545685081
 31
0.0
  0
LINE
  5
81
100
AcDbEntity
  8
new-cuts
 62
256
370
-1
 48
1.0
  6
BYLAYER
100
AcDbLine
 10
-205.7621151127145822
 20
163.0386930860424854
 30
0.0
 11
-205.7621151127145822
 21
133.2153165951796154
 31
0.0
  0
ARC
  5
82
100
AcDbEntity
  8
new-cuts
 62
256
370
-1
 48
1.0
  6
BYLAYER
100
AcDbCircle
 10
-921.0
 20
563.0883117545685081
 30
0.0
 40
4.0
100
AcDbArc
 50
180.0
 51
224.9999999999988347
  0
ARC
  5
83
100
AcDbEntity
  8
new-cuts
 62
256
370
-1
 48
1.0
  6
BYLAYER
100
AcDbCircle
 10
-201.7621151127145822
 20
133.2153165951796154
 30
0.0
 40
4.0
100
AcDbArc
 50
180.0
 51
224.9999999999988347
  0
LINE
  5
84
100
AcDbEntity
  8
new-cuts
 62
256
370
-1
 48
1.0
  6
BYLAYER
100
AcDbLine
 10
-923.8284271247462129
 20
560.2598846298224089
 30
0.0
 11
-902.7401153701775911
 21
539.1715728752537871
 31
0.0
  0
LINE
  5
85
100
AcDbEntity
  8
new-cuts
 62
256
370
-1
 48
1.0
  6
BYLAYER
100
AcDbLine
 10
-204.5905422374607951
 20
130.3868894704335162
 30
0.0
 11
-183.5022304828921733
 21
109.2985777158648943
 31
0.0
  0
ARC
  5
86
100
AcDbEntity
  8
new-cuts
 62
256
370
-1
 48
1.0
  6
BYLAYER
100
AcDbCircle
 10
-899.9116882454313782
 20
542.0
 30
0.0
 40
4.0
100
AcDbArc
 50
225.0
 51
270.0
  0
ARC
  5
87
100
AcDbEntity
  8
new-cuts
 62
256
370
-1
 48
1.0
  6
BYLAYER
100
AcDbCircle
 10
-180.6738033581459604
 20
112.1270048406111073
 30
0.0
 40
4.0
100
AcDbArc
 50
225.0
 51
270.0
  0
LINE
  5
88
100
AcDbEntity
  8
new-cuts
 62
256
370
-1
 48
1.0
  6
BYLAYER
100
AcDbLine
 10
-899.9116882454313782
 20
538.0
 30
0.0
 11
-870.0883117545687355
 21
538.0
 31
0.0
  0
LINE
  5
89
100
AcDbEntity
  8
new-cuts
 62
256
370
-1
 48
1.0
  6
BYLAYER
100
AcDbLine
 10
-180.6738033581459604
 20
108.1270048406111073
 30
0.0
 11
-150.8504268672834314
 21
108.1270048406111073
 31
0.0
  0
ARC
  5
8A
100
AcDbEntity
  8
new-cuts
 62
256
370
-1
 48
1.0
  6
BYLAYER
100
AcDbCircle
 10
-870.0883117545687355
 20
542.0
 30
0.0
 40
4.0
100
AcDbArc
 50
270.0
 51
315.0000000000011369
  0
ARC
  5
8B
100
AcDbEntity
  8
new-cuts
 62
256
370
-1
 48
1.0
  6
BYLAYER
100
AcDbCircle
 10
-150.8504268672834314
 20
112.1270048406111073
 30
0.0
 40
4.0
100
AcDbArc
 50
270.0
 51
315.0000000000011369
  0
LINE
  5
8C
100
AcDbEntity
  8
new-cuts
 62
256
370
-1
 48
1.0
  6
BYLAYER
100
AcDbLine
 10
-867.2598846298225226
 20
539.1715728752539007
 30
0.0
 11
-846.1715728752536734
 21
560.2598846298225226
 31
0.0
  0
LINE
  5
8D
100
AcDbEntity
  8
new-cuts
 62
256
370
-1
 48
1.0
  6
BYLAYER
100
AcDbLine
 10
-148.0219997425372185
 20
109.298577715865008
 30
0.0
 11
-126.9336879879683693
 21
130.3868894704336299
 31
0.0
  0
ARC
  5
8E
100
AcDbEntity
  8
new-cuts
 62
256
370
-1
 48
1.0
  6
BYLAYER
100
AcDbCircle
 10
-848.9999999999998863
 20
563.0883117545687355
 30
0.0
 40
4.0
100
AcDbArc
 50
315.0
 51
0.0
  0
ARC
  5
8F
100
AcDbEntity
  8
new-cuts
 62
256
370
-1
 48
1.0
  6
BYLAYER
100
AcDbCircle
 10
-129.7621151127145822
 20
133.2153165951798428
 30
0.0
 40
4.0
100
AcDbArc
 50
315.0
 51
0.0
  0
LINE
  5
90
100
AcDbEntity
  8
new-cuts
 62
256
370
-1
 48
1.0
  6
BYLAYER
100
AcDbLine
 10
-926.7621151127146959
 20
50.1270048406111073
 30
0.0
 11
-804.7621151127146959
 21
50.1270048406111073
 31
0.0
  0
ARC
  5
91
100
AcDbEntity
  8
new-cuts
 62
256
370
-1
 48
1.0
  6
BYLAYER
100
AcDbCircle
 10
-804.7621151127146959
 20
54.1270048406111073
 30
0.0
 40
4.0
100
AcDbArc
 50
270.0
 51
0.0
  0
LINE
  5
92
100
AcDbEntity
  8
new-cuts
 62
256
370
-1
 48
1.0
  6
BYLAYER
100
AcDbLine
 10
-800.7621151127146959
 20
54.1270048406111073
 30
0.0
 11
-800.7621151127146959
 21
126.1270048406111073
 31
0.0
  0
ARC
  5
93
100
AcDbEntity
  8
new-cuts
 62
256
370
-1
 48
1.0
  6
BYLAYER
100
AcDbCircle
 10
-804.7621151127146959
 20
126.1270048406111073
 30
0.0
 40
4.0
100
AcDbArc
 50
0.0
 51
90.0
  0
LINE
  5
94
100
AcDbEntity
  8
new-cuts
 62
256
370
-1
 48
1.0
  6
BYLAYER
100
AcDbLine
 10
-804.7621151127146959
 20
130.1270048406111073
 30
0.0
 11
-926.7621151127146959
 21
130.1270048406111073
 31
0.0
  0
ARC
  5
95
100
AcDbEntity
  8
new-cuts
 62
256
370
-1
 48
1.0
  6
BYLAYER
100
AcDbCircle
 10
-926.7621151127146959
 20
126.1270048406111073
 30
0.0
 40
4.0
100
AcDbArc
 50
90.0
 51
180.0
  0
LINE
  5
96
100
AcDbEntity
  8
new-cuts
 62
256
370
-1
 48
1.0
  6
BYLAYER
100
AcDbLine
 10
-930.7621151127146959
 20
126.1270048406111073
 30
0.0
 11
-930.7621151127146959
 21
54.1270048406111073
 31
0.0
  0
ARC
  5
97
100
AcDbEntity
  8
new-cuts
 62
256
370
-1
 48
1.0
  6
BYLAYER
100
AcDbCircle
 10
-926.7621151127146959
 20
54.1270048406111073
 30
0.0
 40
4.0
100
AcDbArc
 50
180.0
 51
270.0
  0
LINE
  5
98
100
AcDbEntity
  8
new-cuts
 62
256
370
-1
 48
1.0
  6
BYLAYER
100
AcDbLine
 10
-246.0000000000000568
 20
480.0
 30
0.0
 11
-124.0000000000000426
 21
480.0
 31
0.0
  0
ARC
  5
99
100
AcDbEntity
  8
new-cuts
 62
256
370
-1
 48
1.0
  6
BYLAYER
100
AcDbCircle
 10
-124.0000000000000426
 20
484.0
 30
0.0
 40
4.0
100
AcDbArc
 50
270.0
 51
0.0
  0
LINE
  5
9A
100
AcDbEntity
  8
new-cuts
 62
256
370
-1
 48
1.0
  6
BYLAYER
100
AcDbLine
 10
-120.0000000000000426
 20
484.0
 30
0.0
 11
-120.0000000000000426
 21
556.0
 31
0.0
  0
ARC
  5
9B
100
AcDbEntity
  8
new-cuts
 62
256
370
-1
 48
1.0
  6
BYLAYER
100
AcDbCircle
 10
-124.0000000000000426
 20
556.0
 30
0.0
 40
4.0
100
AcDbArc
 50
0.0
 51
90.0
  0
LINE
  5
9C
100
AcDbEntity
  8
new-cuts
 62
256
370
-1
 48
1.0
  6
BYLAYER
100
AcDbLine
 10
-124.0000000000000426
 20
560.0
 30
0.0
 11
-246.0000000000000568
 21
560.0
 31
0.0
  0
ARC
  5
9D
100
AcDbEntity
  8
new-cuts
 62
256
370
-1
 48
1.0
  6
BYLAYER
100
AcDbCircle
 10
-246.0000000000000568
 20
556.0
 30
0.0
 40
4.0
100
AcDbArc
 50
90.0
 51
180.0
  0
LINE
  5
9E
100
AcDbEntity
  8
new-cuts
 62
256
370
-1
 48
1.0
  6
BYLAYER
100
AcDbLine
 10
-250.0000000000000568
 20
556.0
 30
0.0
 11
-250.0000000000000568
 21
484.0
 31
0.0
  0
ARC
  5
9F
100
AcDbEntity
  8
new-cuts
 62
256
370
-1
 48
1.0
  6
BYLAYER
100
AcDbCircle
 10
-246.0000000000000568
 20
484.0
 30
0.0
 40
4.0
100
AcDbArc
 50
180.0
 51
270.0
  0
LINE
  5
A0
100
AcDbEntity
  8
new-cuts
 62
256
370
-1
 48
1.0
  6
BYLAYER
100
AcDbLine
 10
-190.0
 20
740.0
 30
0.0
 11
-180.0
 21
750.0
 31
0.0
  0
LINE
  5
A1
100
AcDbEntity
  8
new-cuts
 62
256
370
-1
 48
1.0
  6
BYLAYER
100
AcDbLine
 10
-180.0
 20
750.0
 30
0.0
 11
-130.0
 21
750.0
 31
0.0
  0
LINE
  5
A2
100
AcDbEntity
  8
new-cuts
 62
256
370
-1
 48
1.0
  6
BYLAYER
100
AcDbLine
 10
-130.0
 20
750.0
 30
0.0
 11
-120.0
 21
740.0
 31
0.0
  0
LINE
  5
A3
100
AcDbEntity
  8
new-cuts
 62
256
370
-1
 48
1.0
  6
BYLAYER
100
AcDbLine
 10
-120.0
 20
740.0
 30
0.0
 11
-120.0
 21
690.0
 31
0.0
  0
LINE
  5
A4
100
AcDbEntity
  8
new-cuts
 62
256
370
-1
 48
1.0
  6
BYLAYER
100
AcDbLine
 10
-120.0
 20
690.0
 30
0.0
 11
-130.0
 21
680.0
 31
0.0
  0
LINE
  5
A5
100
AcDbEntity
  8
new-cuts
 62
256
370
-1
 48
1.0
  6
BYLAYER
100
AcDbLine
 10
-130.0
 20
680.0
 30
0.0
 11
-180.0
 21
680.0
 31
0.0
  0
LINE
  5
A6
100
AcDbEntity
  8
new-cuts
 62
256
370
-1
 48
1.0
  6
BYLAYER
100
AcDbLine
 10
-180.0
 20
680.0
 30
0.0
 11
-190.0
 21
690.0
 31
0.0
  0
LINE
  5
A7
100
AcDbEntity
  8
new-cuts
 62
256
370
-1
 48
1.0
  6
BYLAYER
100
AcDbLine
 10
-190.0
 20
690.0
 30
0.0
 11
-190.0
 21
740.0
 31
0.0
  0
LINE
  5
A8
100
AcDbEntity
  8
new-cuts
 62
256
370
-1
 48
1.0
  6
BYLAYER
100
AcDbLine
 10
-930.7621151127145822
 20
310.1270048406111073
 30
0.0
 11
-920.7621151127145822
 21
320.1270048406111073
 31
0.0
  0
LINE
  5
A9
100
AcDbEntity
  8
new-cuts
 62
256
370
-1
 48
1.0
  6
BYLAYER
100
AcDbLine
 10
-920.7621151127145822
 20
320.1270048406111073
 30
0.0
 11
-870.7621151127145822
 21
320.1270048406111073
 31
0.0
  0
LINE
  5
AA
100
AcDbEntity
  8
new-cuts
 62
256
370
-1
 48
1.0
  6
BYLAYER
100
AcDbLine
 10
-870.7621151127145822
 20
320.1270048406111073
 30
0.0
 11
-860.7621151127145822
 21
310.1270048406111073
 31
0.0
  0
LINE
  5
AB
100
AcDbEntity
  8
new-cuts
 62
256
370
-1
 48
1.0
  6
BYLAYER
100
AcDbLine
 10
-860.7621151127145822
 20
310.1270048406111073
 30
0.0
 11
-860.7621151127145822
 21
260.1270048406111073
 31
0.0
  0
LINE
  5
AC
100
AcDbEntity
  8
new-cuts
 62
256
370
-1
 48
1.0
  6
BYLAYER
100
AcDbLine
 10
-860.7621151127145822
 20
260.1270048406111073
 30
0.0
 11
-870.7621151127145822
 21
250.1270048406111073
 31
0.0
  0
LINE
  5
AD
100
AcDbEntity
  8
new-cuts
 62
256
370
-1
 48
1.0
  6
BYLAYER
100
AcDbLine
 10
-870.7621151127145822
 20
250.1270048406111073
 30
0.0
 11
-920.7621151127145822
 21
250.1270048406111073
 31
0.0
  0
LINE
  5
AE
100
AcDbEntity
  8
new-cuts
 62
256
370
-1
 48
1.0
  6
BYLAYER
100
AcDbLine
 10
-920.7621151127145822
 20
250.1270048406111073
 30
0.0
 11
-930.7621151127146959
 21
260.1270048406111073
 31
0.0
  0
LINE
  5
AF
100
AcDbEntity
  8
new-cuts
 62
256
370
-1
 48
1.0
  6
BYLAYER
100
AcDbLine
 10
-930.7621151127146959
 20
260.1270048406111073
 30
0.0
 11
-930.7621151127145822
 21
310.1270048406111073
 31
0.0
  0
LINE
  5
B0
100
AcDbEntity
  8
new-cuts
 62
256
370
-1
 48
1.0
  6
BYLAYER
100
AcDbLine
 10
-180.0
 20
670.0
 30
0.0
 11
-190.0
 21
660.0
 31
0.0
  0
LINE
  5
B1
100
AcDbEntity
  8
new-cuts
 62
256
370
-1
 48
1.0
  6
BYLAYER
100
AcDbLine
 10
-190.0
 20
660.0
 30
0.0
 11
-190.0
 21
580.0
 31
0.0
  0
LINE
  5
B2
100
AcDbEntity
  8
new-cuts
 62
256
370
-1
 48
1.0
  6
BYLAYER
100
AcDbLine
 10
-190.0
 20
580.0
 30
0.0
 11
-180.0
 21
570.0
 31
0.0
  0
LINE
  5
B3
100
AcDbEntity
  8
new-cuts
 62
256
370
-1
 48
1.0
  6
BYLAYER
100
AcDbLine
 10
-180.0
 20
570.0
 30
0.0
 11
-130.0
 21
570.0
 31
0.0
  0
LINE
  5
B4
100
AcDbEntity
  8
new-cuts
 62
256
370
-1
 48
1.0
  6
BYLAYER
100
AcDbLine
 10
-130.0
 20
570.0
 30
0.0
 11
-120.0
 21
580.0
 31
0.0
  0
LINE
  5
B5
100
AcDbEntity
  8
new-cuts
 62
256
370
-1
 48
1.0
  6
BYLAYER
100
AcDbLine
 10
-120.0
 20
580.0
 30
0.0
 11
-120.0
 21
660.0
 31
0.0
  0
LINE
  5
B6
100
AcDbEntity
  8
new-cuts
 62
256
370
-1
 48
1.0
  6
BYLAYER
100
AcDbLine
 10
-120.0
 20
660.0
 30
0.0
 11
-130.0
 21
670.0
 31
0.0
  0
LINE
  5
B7
100
AcDbEntity
  8
new-cuts
 62
256
370
-1
 48
1.0
  6
BYLAYER
100
AcDbLine
 10
-130.0
 20
670.0
 30
0.0
 11
-179.9999999999999432
 21
670.0
 31
0.0
  0
LINE
  5
B8
100
AcDbEntity
  8
new-cuts
 62
256
370
-1
 48
1.0
  6
BYLAYER
100
AcDbLine
 10
-930.7621151127145822
 20
230.1270048406111073
 30
0.0
 11
-920.7621151127145822
 21
240.1270048406111073
 31
0.0
  0
LINE
  5
B9
100
AcDbEntity
  8
new-cuts
 62
256
370
-1
 48
1.0
  6
BYLAYER
100
AcDbLine
 10
-920.7621151127145822
 20
240.1270048406111073
 30
0.0
 11
-880.7621151127145822
 21
240.1270048406111073
 31
0.0
  0
LINE
  5
BA
100
AcDbEntity
  8
new-cuts
 62
256
370
-1
 48
1.0
  6
BYLAYER
100
AcDbLine
 10
-880.7621151127145822
 20
240.1270048406111073
 30
0.0
 11
-870.7621151127145822
 21
230.1270048406111073
 31
0.0
  0
LINE
  5
BB
100
AcDbEntity
  8
new-cuts
 62
256
370
-1
 48
1.0
  6
BYLAYER
100
AcDbLine
 10
-870.7621151127145822
 20
230.1270048406111073
 30
0.0
 11
-870.7621151127145822
 21
150.1270048406111073
 31
0.0
  0
LINE
  5
BC
100
AcDbEntity
  8
new-cuts
 62
256
370
-1
 48
1.0
  6
BYLAYER
100
AcDbLine
 10
-870.7621151127145822
 20
150.1270048406111073
 30
0.0
 11
-880.7621151127145822
 21
140.1270048406111073
 31
0.0
  0
LINE
  5
BD
100
AcDbEntity
  8
new-cuts
 62
256
370
-1
 48
1.0
  6
BYLAYER
100
AcDbLine
 10
-880.7621151127145822
 20
140.1270048406111073
 30
0.0
 11
-920.7621151127145822
 21
140.1270048406111073
 31
0.0
  0
LINE
  5
BE
100
AcDbEntity
  8
new-cuts
 62
256
370
-1
 48
1.0
  6
BYLAYER
100
AcDbLine
 10
-920.7621151127145822
 20
140.1270048406111073
 30
0.0
 11
-930.7621151127145822
 21
150.1270048406111073
 31
0.0
  0
LINE
  5
BF
100
AcDbEntity
  8
new-cuts
 62
256
370
-1
 48
1.0
  6
BYLAYER
100
AcDbLine
 10
-930.7621151127145822
 20
150.1270048406111073
 30
0.0
 11
-930.7621151127145822
 21
230.1270048406111073
 31
0.0
  0
LINE
  5
C0
100
AcDbEntity
  8
new-cuts
 62
256
370
-1
 48
1.0
  6
BYLAYER
100
AcDbLine
 10
-860.7621151127145822
 20
190.1270048406111073
 30
0.0
 11
-850.7621151127145822
 21
200.1270048406111073
 31
0.0
  0
LINE
  5
C1
100
AcDbEntity
  8
new-cuts
 62
256
370
-1
 48
1.0
  6
BYLAYER
100
AcDbLine
 10
-850.7621151127145822
 20
200.1270048406111073
 30
0.0
 11
-810.7621151127145822
 21
200.1270048406111073
 31
0.0
  0
LINE
  5
C2
100
AcDbEntity
  8
new-cuts
 62
256
370
-1
 48
1.0
  6
BYLAYER
100
AcDbLine
 10
-810.7621151127145822
 20
200.1270048406111073
 30
0.0
 11
-800.7621151127145822
 21
190.1270048406111073
 31
0.0
  0
LINE
  5
C3
100
AcDbEntity
  8
new-cuts
 62
256
370
-1
 48
1.0
  6
BYLAYER
100
AcDbLine
 10
-800.7621151127145822
 20
190.1270048406111073
 30
0.0
 11
-800.7621151127145822
 21
150.1270048406111073
 31
0.0
  0
LINE
  5
C4
100
AcDbEntity
  8
new-cuts
 62
256
370
-1
 48
1.0
  6
BYLAYER
100
AcDbLine
 10
-800.7621151127145822
 20
150.1270048406111073
 30
0.0
 11
-810.7621151127145822
 21
140.1270048406111073
 31
0.0
  0
LINE
  5
C5
100
AcDbEntity
  8
new-cuts
 62
256
370
-1
 48
1.0
  6
BYLAYER
100
AcDbLine
 10
-810.7621151127145822
 20
140.1270048406111073
 30
0.0
 11
-850.7621151127145822
 21
140.1270048406111073
 31
0.0
  0
LINE
  5
C6
100
AcDbEntity
  8
new-cuts
 62
256
370
-1
 48
1.0
  6
BYLAYER
100
AcDbLine
 10
-850.7621151127145822
 20
140.1270048406111073
 30
0.0
 11
-860.7621151127145822
 21
150.1270048406111073
 31
0.0
  0
LINE
  5
C7
100
AcDbEntity
  8
new-cuts
 62
256
370
-1
 48
1.0
  6
BYLAYER
100
AcDbLine
 10
-860.7621151127145822
 20
150.1270048406111073
 30
0.0
 11
-860.7621151127145822
 21
190.1270048406111073
 31
0.0
  0
LINE
  5
C8
100
AcDbEntity
  8
new-cuts
 62
256
370
-1
 48
1.0
  6
BYLAYER
100
AcDbLine
 10
-810.7621151127145822
 20
430.1270048406111073
 30
0.0
 11
-810.7621151127145822
 21
420.1270048406111073
 31
0.0
  0
LINE
  5
C9
100
AcDbEntity
  8
new-cuts
 62
256
370
-1
 48
1.0
  6
BYLAYER
100
AcDbLine
 10
-810.7621151127145822
 20
420.1270048406111073
 30
0.0
 11
-800.7621151127145822
 21
420.1270048406111073
 31
0.0
  0
LINE
  5
CA
100
AcDbEntity
  8
new-cuts
 62
256
370
-1
 48
1.0
  6
BYLAYER
100
AcDbLine
 10
-800.7621151127145822
 20
420.1270048406111073
 30
0.0
 11
-800.7621151127145822
 21
270.1270048406111073
 31
0.0
  0
LINE
  5
CB
100
AcDbEntity
  8
new-cuts
 62
256
370
-1
 48
1.0
  6
BYLAYER
100
AcDbLine
 10
-800.7621151127145822
 20
270.1270048406111073
 30
0.0
 11
-810.7621151127145822
 21
270.1270048406111073
 31
0.0
  0
LINE
  5
CC
100
AcDbEntity
  8
new-cuts
 62
256
370
-1
 48
1.0
  6
BYLAYER
100
AcDbLine
 10
-810.7621151127145822
 20
270.1270048406111073
 30
0.0
 11
-810.7621151127148096
 21
260.1270048406111073
 31
0.0
  0
LINE
  5
CD
100
AcDbEntity
  8
new-cuts
 62
256
370
-1
 48
1.0
  6
BYLAYER
100
AcDbLine
 10
-810.7621151127148096
 20
260.1270048406111073
 30
0.0
 11
-850.7621151127145822
 21
260.1270048406111073
 31
0.0
  0
LINE
  5
CE
100
AcDbEntity
  8
new-cuts
 62
256
370
-1
 48
1.0
  6
BYLAYER
100
AcDbLine
 10
-850.7621151127145822
 20
260.1270048406111073
 30
0.0
 11
-850.7621151127145822
 21
330.1270048406111073
 31
0.0
  0
LINE
  5
CF
100
AcDbEntity
  8
new-cuts
 62
256
370
-1
 48
1.0
  6
BYLAYER
100
AcDbLine
 10
-850.7621151127145822
 20
330.1270048406111073
 30
0.0
 11
-920.7621151127145822
 21
330.1270048406111073
 31
0.0
  0
LINE
  5
D0
100
AcDbEntity
  8
new-cuts
 62
256
370
-1
 48
1.0
  6
BYLAYER
100
AcDbLine
 10
-920.7621151127145822
 20
330.1270048406111073
 30
0.0
 11
-920.7621151127145822
 21
340.1270048406111073
 31
0.0
  0
LINE
  5
D1
100
AcDbEntity
  8
new-cuts
 62
256
370
-1
 48
1.0
  6
BYLAYER
100
AcDbLine
 10
-920.7621151127145822
 20
340.1270048406111073
 30
0.0
 11
-930.7621151127145822
 21
340.1270048406111073
 31
0.0
  0
LINE
  5
D2
100
AcDbEntity
  8
new-cuts
 62
256
370
-1
 48
1.0
  6
BYLAYER
100
AcDbLine
 10
-930.7621151127145822
 20
340.1270048406111073
 30
0.0
 11
-930.7621151127145822
 21
420.1270048406111073
 31
0.0
  0
LINE
  5
D3
100
AcDbEntity
  8
new-cuts
 62
256
370
-1
 48
1.0
  6
BYLAYER
100
AcDbLine
 10
-930.7621151127145822
 20
420.1270048406111073
 30
0.0
 11
-920.7621151127145822
 21
420.1270048406111073
 31
0.0
  0
LINE
  5
D4
100
AcDbEntity
  8
new-cuts
 62
256
370
-1
 48
1.0
  6
BYLAYER
100
AcDbLine
 10
-920.7621151127145822
 20
420.1270048406111073
 30
0.0
 11
-920.7621151127145822
 21
430.1270048406111073
 31
0.0
  0
LINE
  5
D5
100
AcDbEntity
  8
new-cuts
 62
256
370
-1
 48
1.0
  6
BYLAYER
100
AcDbLine
 10
-920.7621151127145822
 20
430.1270048406111073
 30
0.0
 11
-810.7621151127145822
 21
430.1270048406111073
 31
0.0
  0
LINE
  5
D6
100
AcDbEntity
  8
new-cuts
 62
256
370
-1
 48
1.0
  6
BYLAYER
100
AcDbLine
 10
-250.0
 20
720.0
 30
0.0
 11
-210.0
 21
720.0
 31
0.0
  0
LINE
  5
D7
100
AcDbEntity
  8
new-cuts
 62
256
370
-1
 48
1.0
  6
BYLAYER
100
AcDbLine
 10
-210.0
 20
720.0
 30
0.0
 11
-210.0
 21
710.0
 31
0.0
  0
LINE
  5
D8
100
AcDbEntity
  8
new-cuts
 62
256
370
-1
 48
1.0
  6
BYLAYER
100
AcDbLine
 10
-210.0
 20
710.0
 30
0.0
 11
-200.0
 21
710.0
 31
0.0
  0
LINE
  5
D9
100
AcDbEntity
  8
new-cuts
 62
256
370
-1
 48
1.0
  6
BYLAYER
100
AcDbLine
 10
-200.0
 20
710.0
 30
0.0
 11
-200.0
 21
640.0
 31
0.0
  0
LINE
  5
DA
100
AcDbEntity
  8
new-cuts
 62
256
370
-1
 48
1.0
  6
BYLAYER
100
AcDbLine
 10
-200.0
 20
640.0
 30
0.0
 11
-240.0
 21
640.0
 31
0.0
  0
LINE
  5
DB
100
AcDbEntity
  8
new-cuts
 62
256
370
-1
 48
1.0
  6
BYLAYER
100
AcDbLine
 10
-240.0
 20
640.0
 30
0.0
 11
-240.0
 21
650.0
 31
0.0
  0
LINE
  5
DC
100
AcDbEntity
  8
new-cuts
 62
256
370
-1
 48
1.0
  6
BYLAYER
100
AcDbLine
 10
-240.0
 20
650.0
 30
0.0
 11
-250.0
 21
650.0
 31
0.0
  0
LINE
  5
DD
100
AcDbEntity
  8
new-cuts
 62
256
370
-1
 48
1.0
  6
BYLAYER
100
AcDbLine
 10
-250.0
 20
650.0
 30
0.0
 11
-250.0
 21
720.0
 31
0.0
  0
LINE
  5
DE
100
AcDbEntity
  8
new-cuts
 62
256
370
-1
 48
1.0
  6
BYLAYER
100
AcDbLine
 10
-785.0
 20
523.0
 30
0.0
 11
-784.9999999999998863
 21
598.0
 31
0.0
  0
LINE
  5
DF
100
AcDbEntity
  8
new-cuts
 62
256
370
-1
 48
1.0
  6
BYLAYER
100
AcDbLine
 10
-275.7621151127145822
 20
93.1270048406111073
 30
0.0
 11
-275.7621151127145822
 21
168.1270048406111073
 31
0.0
  0
LINE
  5
E0
100
AcDbEntity
  8
new-cuts
 62
256
370
-1
 48
1.0
  6
BYLAYER
100
AcDbLine
 10
-785.0
 20
598.0
 30
0.0
 11
-704.9999999999998863
 21
598.0
 31
0.0
  0
LINE
  5
E1
100
AcDbEntity
  8
new-cuts
 62
256
370
-1
 48
1.0
  6
BYLAYER
100
AcDbLine
 10
-704.9999999999998863
 20
598.0
 30
0.0
 11
-705.0
 21
630.0
 31
0.0
  0
LINE
  5
E2
100
AcDbEntity
  8
new-cuts
 62
256
370
-1
 48
1.0
  6
BYLAYER
100
AcDbLine
 10
-705.0
 20
630.0
 30
0.0
 11
-360.0000000000001137
 21
630.0
 31
0.0
  0
LINE
  5
E3
100
AcDbEntity
  8
new-cuts
 62
256
370
-1
 48
1.0
  6
BYLAYER
100
AcDbLine
 10
-360.0000000000001137
 20
630.0
 30
0.0
 11
-360.0000000000001705
 21
598.0
 31
0.0
  0
LINE
  5
E4
100
AcDbEntity
  8
new-cuts
 62
256
370
-1
 48
1.0
  6
BYLAYER
100
AcDbLine
 10
-360.0000000000001705
 20
598.0
 30
0.0
 11
-280.0000000000000568
 21
598.0
 31
0.0
  0
LINE
  5
E5
100
AcDbEntity
  8
new-cuts
 62
256
370
-1
 48
1.0
  6
BYLAYER
100
AcDbLine
 10
-280.0000000000000568
 20
598.0
 30
0.0
 11
-280.0000000000000568
 21
470.0
 31
0.0
  0
LINE
  5
E6
100
AcDbEntity
  8
new-cuts
 62
256
370
-1
 48
1.0
  6
BYLAYER
100
AcDbLine
 10
-770.7621151127146959
 20
40.1270048406111073
 30
0.0
 11
-770.7621151127146959
 21
168.1270048406111073
 31
0.0
  0
LINE
  5
E7
100
AcDbEntity
  8
new-cuts
 62
256
370
-1
 48
1.0
  6
BYLAYER
100
AcDbLine
 10
-770.7621151127146959
 20
168.1270048406111073
 30
0.0
 11
-690.7621151127148096
 21
168.1270048406111073
 31
0.0
  0
LINE
  5
E8
100
AcDbEntity
  8
new-cuts
 62
256
370
-1
 48
1.0
  6
BYLAYER
100
AcDbLine
 10
-690.7621151127148096
 20
168.1270048406111073
 30
0.0
 11
-690.7621151127148096
 21
200.1270048406111073
 31
0.0
  0
LINE
  5
E9
100
AcDbEntity
  8
new-cuts
 62
256
370
-1
 48
1.0
  6
BYLAYER
100
AcDbLine
 10
-690.7621151127148096
 20
200.1270048406111073
 30
0.0
 11
-355.7621151127145254
 21
200.1270048406111073
 31
0.0
  0
LINE
  5
EA
100
AcDbEntity
  8
new-cuts
 62
256
370
-1
 48
1.0
  6
BYLAYER
100
AcDbLine
 10
-355.7621151127145254
 20
200.1270048406111073
 30
0.0
 11
-355.7621151127145254
 21
168.1270048406111073
 31
0.0
  0
LINE
  5
EB
100
AcDbEntity
  8
new-cuts
 62
256
370
-1
 48
1.0
  6
BYLAYER
100
AcDbLine
 10
-355.7621151127145254
 20
168.1270048406111073
 30
0.0
 11
-275.7621151127145822
 21
168.1270048406111073
 31
0.0
  0
LINE
  5
EC
100
AcDbEntity
  8
new-cuts
 62
256
370
-1
 48
1.0
  6
BYLAYER
100
AcDbLine
 10
-655.0
 20
662.5000000000001137
 30
0.0
 11
-480.0
 21
662.5000000000001137
 31
0.0
  0
LINE
  5
ED
100
AcDbEntity
  8
new-cuts
 62
256
370
-1
 48
1.0
  6
BYLAYER
100
AcDbLine
 10
-480.0
 20
662.5000000000001137
 30
0.0
 11
-480.0
 21
837.5000000000001137
 31
0.0
  0
LINE
  5
EE
100
AcDbEntity
  8
new-cuts
 62
256
370
-1
 48
1.0
  6
BYLAYER
100
AcDbLine
 10
-480.0
 20
837.5000000000001137
 30
0.0
 11
-655.0
 21
837.5000000000001137
 31
0.0
  0
LINE
  5
EF
100
AcDbEntity
  8
new-cuts
 62
256
370
-1
 48
1.0
  6
BYLAYER
100
AcDbLine
 10
-655.0
 20
837.5000000000001137
 30
0.0
 11
-655.0
 21
662.5000000000001137
 31
0.0
  0
LINE
  5
F0
100
AcDbEntity
  8
new-cuts
 62
256
370
-1
 48
1.0
  6
BYLAYER
100
AcDbLine
 10
-395.7621151127144117
 20
407.6270048406111073
 30
0.0
 11
-395.7621151127144117
 21
232.6270048406111073
 31
0.0
  0
LINE
  5
F1
100
AcDbEntity
  8
new-cuts
 62
256
370
-1
 48
1.0
  6
BYLAYER
100
AcDbLine
 10
-462.0
 20
662.5000000000002274
 30
0.0
 11
-287.0
 21
662.5000000000002274
 31
0.0
  0
LINE
  5
F2
100
AcDbEntity
  8
new-cuts
 62
256
370
-1
 48
1.0
  6
BYLAYER
100
AcDbLine
 10
-287.0
 20
662.5000000000002274
 30
0.0
 11
-287.0
 21
837.5000000000002274
 31
0.0
  0
LINE
  5
F3
100
AcDbEntity
  8
new-cuts
 62
256
370
-1
 48
1.0
  6
BYLAYER
100
AcDbLine
 10
-287.0
 20
837.5000000000002274
 30
0.0
 11
-462.0
 21
837.5000000000002274
 31
0.0
  0
LINE
  5
F4
100
AcDbEntity
  8
new-cuts
 62
256
370
-1
 48
1.0
  6
BYLAYER
100
AcDbLine
 10
-462.0
 20
837.5000000000002274
 30
0.0
 11
-462.0
 21
662.5000000000002274
 31
0.0
  0
LINE
  5
F5
100
AcDbEntity
  8
new-cuts
 62
256
370
-1
 48
1.0
  6
BYLAYER
100
AcDbLine
 10
-87.5
 20
675.0
 30
0.0
 11
87.5
 21
675.0
 31
0.0
  0
LINE
  5
F6
100
AcDbEntity
  8
new-cuts
 62
256
370
-1
 48
1.0
  6
BYLAYER
100
AcDbLine
 10
87.5
 20
675.0
 30
0.0
 11
87.5
 21
850.0
 31
0.0
  0
LINE
  5
F7
100
AcDbEntity
  8
new-cuts
 62
256
370
-1
 48
1.0
  6
BYLAYER
100
AcDbLine
 10
87.5
 20
850.0
 30
0.0
 11
-87.5
 21
850.0
 31
0.0
  0
LINE
  5
F8
100
AcDbEntity
  8
new-cuts
 62
256
370
-1
 48
1.0
  6
BYLAYER
100
AcDbLine
 10
-87.5
 20
850.0
 30
0.0
 11
-87.5
 21
675.0
 31
0.0
  0
LINE
  5
F9
100
AcDbEntity
  8
new-cuts
 62
256
370
-1
 48
1.0
  6
BYLAYER
100
AcDbLine
 10
-87.5
 20
481.9999999999998863
 30
0.0
 11
87.5
 21
481.9999999999998863
 31
0.0
  0
LINE
  5
FA
100
AcDbEntity
  8
new-cuts
 62
256
370
-1
 48
1.0
  6
BYLAYER
100
AcDbLine
 10
87.5
 20
481.9999999999998863
 30
0.0
 11
87.5
 21
657.0
 31
0.0
  0
LINE
  5
FB
100
AcDbEntity
  8
new-cuts
 62
256
370
-1
 48
1.0
  6
BYLAYER
100
AcDbLine
 10
87.5
 20
657.0
 30
0.0
 11
-87.5
 21
657.0
 31
0.0
  0
LINE
  5
FC
100
AcDbEntity
  8
new-cuts
 62
256
370
-1
 48
1.0
  6
BYLAYER
100
AcDbLine
 10
-87.5
 20
657.0
 30
0.0
 11
-87.5
 21
481.9999999999998863
 31
0.0
  0
LINE
  5
FD
100
AcDbEntity
  8
new-cuts
 62
256
370
-1
 48
1.0
  6
BYLAYER
100
AcDbLine
 10
-763.7621151127145822
 20
232.6270048406111073
 30
0.0
 11
-588.7621151127145822
 21
232.6270048406111073
 31
0.0
  0
LINE
  5
FE
100
AcDbEntity
  8
new-cuts
 62
256
370
-1
 48
1.0
  6
BYLAYER
100
AcDbLine
 10
-588.7621151127145822
 20
232.6270048406111073
 30
0.0
 11
-588.7621151127145822
 21
407.627004840611221
 31
0.0
  0
LINE
  5
FF
100
AcDbEntity
  8
new-cuts
 62
256
370
-1
 48
1.0
  6
BYLAYER
100
AcDbLine
 10
-588.7621151127145822
 20
407.627004840611221
 30
0.0
 11
-763.7621151127145822
 21
407.627004840611221
 31
0.0
  0
LINE
  5
100
100
AcDbEntity
  8
new-cuts
 62
256
370
-1
 48
1.0
  6
BYLAYER
100
AcDbLine
 10
-763.7621151127145822
 20
407.627004840611221
 30
0.0
 11
-763.7621151127145822
 21
232.6270048406111073
 31
0.0
  0
LINE
  5
101
100
AcDbEntity
  8
new-cuts
 62
256
370
-1
 48
1.0
  6
BYLAYER
100
AcDbLine
 10
-570.7621151127146959
 20
232.6270048406111073
 30
0.0
 11
-395.7621151127146391
 21
232.6270048406111073
 31
0.0
  0
LINE
  5
102
100
AcDbEntity
  8
new-cuts
 62
256
370
-1
 48
1.0
  6
BYLAYER
100
AcDbLine
 10
-395.7621151127146391
 20
407.6270048406113347
 30
0.0
 11
-570.7621151127146959
 21
407.6270048406113347
 31
0.0
  0
LINE
  5
103
100
AcDbEntity
  8
new-cuts
 62
256
370
-1
 48
1.0
  6
BYLAYER
100
AcDbLine
 10
-570.7621151127146959
 20
407.6270048406113347
 30
0.0
 11
-570.7621151127146959
 21
232.6270048406111073
 31
0.0
  0
LINE
  5
104
100
AcDbEntity
  8
new-cuts
 62
256
370
-1
 48
1.0
  6
BYLAYER
100
AcDbLine
 10
-774.9999999999998863
 20
750.0
 30
0.0
 11
-669.9999999999998863
 21
750.0000000000001137
 31
0.0
  0
LINE
  5
105
100
AcDbEntity
  8
new-cuts
 62
256
370
-1
 48
1.0
  6
BYLAYER
100
AcDbLine
 10
-275.7621151127145822
 20
320.1270048406109936
 30
0.0
 11
-380.7621151127146391
 21
320.1270048406111073
 31
0.0
  0
LINE
  5
106
100
AcDbEntity
  8
new-cuts
 62
256
370
-1
 48
1.0
  6
BYLAYER
100
AcDbLine
 10
-669.9999999999998863
 20
750.0
 30
0.0
 11
-669.9999999999998863
 21
822.5000000000001137
 31
0.0
  0
LINE
  5
107
100
AcDbEntity
  8
new-cuts
 62
256
370
-1
 48
1.0
  6
BYLAYER
100
AcDbLine
 10
-380.7621151127146391
 20
320.1270048406109936
 30
0.0
 11
-380.7621151127146391
 21
392.6270048406111073
 31
0.0
  0
LINE
  5
108
100
AcDbEntity
  8
new-cuts
 62
256
370
-1
 48
1.0
  6
BYLAYER
100
AcDbLine
 10
-760.0000000000002274
 20
845.0
 30
0.0
 11
-669.9999999999998863
 21
870.0
 31
0.0
  0
LINE
  5
109
100
AcDbEntity
  8
new-cuts
 62
256
370
-1
 48
1.0
  6
BYLAYER
100
AcDbLine
 10
-290.7621151127141275
 20
415.1270048406109936
 30
0.0
 11
-380.7621151127146391
 21
440.1270048406109936
 31
0.0
  0
LINE
  5
10A
100
AcDbEntity
  8
new-cuts
 62
256
370
-1
 48
1.0
  6
BYLAYER
100
AcDbLine
 10
-760.0
 20
845.0
 30
0.0
 11
-862.9999999999997726
 21
703.0
 31
0.0
  0
LINE
  5
10B
100
AcDbEntity
  8
new-cuts
 62
256
370
-1
 48
1.0
  6
BYLAYER
100
AcDbLine
 10
-290.7621151127143548
 20
415.1270048406109936
 30
0.0
 11
-187.7621151127148096
 21
273.1270048406109936
 31
0.0
  0
LINE
  5
10C
100
AcDbEntity
  8
new-cuts
 62
256
370
-1
 48
1.0
  6
BYLAYER
100
AcDbLine
 10
-774.9999999999998863
 20
750.0
 30
0.0
 11
-775.0
 21
798.7734445398356229
 31
0.0
  0
LINE
  5
10D
100
AcDbEntity
  8
new-cuts
 62
256
370
-1
 48
1.0
  6
BYLAYER
100
AcDbLine
 10
-275.7621151127145822
 20
320.1270048406109936
 30
0.0
 11
-275.7621151127143548
 21
368.9004493804466165
 31
0.0
  0
LINE
  5
10E
100
AcDbEntity
  8
new-cuts
 62
256
370
-1
 48
1.0
  6
BYLAYER
100
AcDbLine
 10
-775.0
 20
798.7734445398356229
 30
0.0
 11
-762.0151809222434167
 21
816.6748455984903785
 31
0.0
  0
LINE
  5
10F
100
AcDbEntity
  8
new-cuts
 62
256
370
-1
 48
1.0
  6
BYLAYER
100
AcDbLine
 10
-275.7621151127143548
 20
368.9004493804466165
 30
0.0
 11
-288.7469341904709381
 21
386.8018504391013721
 31
0.0
  0
LINE
  5
110
100
AcDbEntity
  8
new-cuts
 62
256
370
-1
 48
1.0
  6
BYLAYER
100
AcDbLine
 10
-762.0151809222434167
 20
816.6748455984903785
 30
0.0
 11
-689.014657956791325
 21
836.9527686444491792
 31
0.0
  0
LINE
  5
111
100
AcDbEntity
  8
new-cuts
 62
256
370
-1
 48
1.0
  6
BYLAYER
100
AcDbLine
 10
-288.7469341904709381
 20
386.8018504391013721
 30
0.0
 11
-361.7474571559230867
 21
407.0797734850602865
 31
0.0
  0
ARC
  5
112
100
AcDbEntity
  8
new-cuts
 62
256
370
-1
 48
1.0
  6
BYLAYER
100
AcDbCircle
 10
-684.9999999999998863
 20
822.5000000000001137
 30
0.0
 40
15.0
100
AcDbArc
 50
0.0
 51
105.5241109967543878
  0
ARC
  5
113
100
AcDbEntity
  8
new-cuts
 62
256
370
-1
 48
1.0
  6
BYLAYER
100
AcDbCircle
 10
-365.7621151127146391
 20
392.6270048406111073
 30
0.0
 40
15.0
100
AcDbArc
 50
74.4758890032456264
 51
180.0
  0
LINE
  5
114
100
AcDbEntity
  8
new-cuts
 62
256
370
-1
 48
1.0
  6
BYLAYER
100
AcDbLine
 10
-1010.0
 20
653.0
 30
0.0
 11
-832.0
 21
653.0
 31
0.0
  0
LINE
  5
115
100
AcDbEntity
  8
new-cuts
 62
256
370
-1
 48
1.0
  6
BYLAYER
100
AcDbLine
 10
-832.0
 20
703.0
 30
0.0
 11
-862.9999999999997726
 21
703.0
 31
0.0
  0
LINE
  5
116
100
AcDbEntity
  8
new-cuts
 62
256
370
-1
 48
1.0
  6
BYLAYER
100
AcDbLine
 10
-218.7621151127143548
 20
273.1270048406109936
 30
0.0
 11
-187.7621151127148096
 21
273.1270048406109936
 31
0.0
  0
ARC
  5
117
100
AcDbEntity
  8
new-cuts
 62
256
370
-1
 48
1.0
  6
BYLAYER
100
AcDbCircle
 10
-832.0
 20
678.0
 30
0.0
 40
25.0
100
AcDbArc
 50
270.0
 51
90.0
  0
ARC
  5
118
100
AcDbEntity
  8
new-cuts
 62
256
370
-1
 48
1.0
  6
BYLAYER
100
AcDbCircle
 10
-218.7621151127143548
 20
248.1270048406109936
 30
0.0
 40
25.0
100
AcDbArc
 50
90.0
 51
270.0
  0
LINE
  5
119
100
AcDbEntity
  8
new-cuts
 62
256
370
-1
 48
1.0
  6
BYLAYER
100
AcDbLine
 10
-218.7621151127143548
 20
223.1270048406109936
 30
0.0
 11
-50.7621151127145822
 21
223.1270048406111073
 31
0.0
  0
LINE
  5
11A
100
AcDbEntity
  8
new-cuts
 62
256
370
-1
 48
1.0
  6
BYLAYER
100
AcDbLine
 10
-50.7621151127145822
 20
223.1270048406111073
 30
0.0
 11
-10.7621151127145822
 21
93.1270048406111073
 31
0.0
  0
LINE
  5
11B
100
AcDbEntity
  8
new-cuts
 62
256
370
-1
 48
1.0
  6
BYLAYER
100
AcDbLine
 10
-1010.0
 20
653.0
 30
0.0
 11
-1047.9643347050755438
 21
529.6159122085048239
 31
0.0
  0
LINE
  5
11C
100
AcDbEntity
  8
new-cuts
 62
256
370
-1
 48
1.0
  6
BYLAYER
100
AcDbLine
 10
-1047.9643347050755438
 20
529.6159122085048239
 30
0.0
 11
-784.9999999999998863
 21
480.0
 31
0.0
  0
LINE
  5
11D
100
AcDbEntity
  8
new-cuts
 62
256
370
-1
 48
1.0
  6
BYLAYER
100
AcDbLine
 10
-784.9999999999998863
 20
480.0
 30
0.0
 11
-784.9999999999998863
 21
523.0
 31
0.0
  0
LINE
  5
11E
100
AcDbEntity
  8
new-cuts
 62
256
370
-1
 48
1.0
  6
BYLAYER
100
AcDbLine
 10
-275.7621151127145822
 20
93.1270048406111073
 30
0.0
 11
-275.7621151127145822
 21
40.1270048406111073
 31
0.0
  0
LINE
  5
11F
100
AcDbEntity
  8
new-cuts
 62
256
370
-1
 48
1.0
  6
BYLAYER
100
AcDbLine
 10
-275.7621151127145822
 20
40.1270048406111073
 30
0.0
 11
-10.7621151127145822
 21
85.1270048406111073
 31
0.0
  0
LINE
  5
120
100
AcDbEntity
  8
new-cuts
 62
256
370
-1
 48
1.0
  6
BYLAYER
100
AcDbLine
 10
-10.7621151127145822
 20
85.1270048406111073
 30
0.0
 11
-10.7621151127145822
 21
93.1270048406111073
 31
0.0
  0
INSERT
  5
121
100
AcDbEntity
  8
new-cuts
 62
256
370
-1
 48
1.0
  6
BYLAYER
100
AcDbBlockReference
  2
hole
 10
-380.7621151127146391
 20
440.1270048406111073
 30
0.0
 50
180.0
  0
INSERT
  5
122
100
AcDbEntity
  8
new-cuts
 62
256
370
-1
 48
1.0
  6
BYLAYER
100
AcDbBlockReference
  2
hole-direct
 10
-770.7621151127146959
 20
168.1270048406111073
 30
0.0
 41
1.0
 42
-1.0
 43
1.0
 50
270.0
  0
LINE
  5
123
100
AcDbEntity
  8
new-cuts
 62
256
370
-1
 48
1.0
  6
BYLAYER
100
AcDbLine
 10
-380.762115112715037
 20
440.1270048406111073
 30
0.0
 11
-950.7621151127145822
 21
440.1270048406111073
 31
0.0
  0
LINE
  5
124
100
AcDbEntity
  8
new-cuts
 62
256
370
-1
 48
1.0
  6
BYLAYER
100
AcDbLine
 10
-950.7621151127145822
 20
440.1270048406111073
 30
0.0
 11
-950.7621151127145822
 21
40.1270048406111073
 31
0.0
  0
LINE
  5
125
100
AcDbEntity
  8
new-cuts
 62
256
370
-1
 48
1.0
  6
BYLAYER
100
AcDbLine
 10
-950.7621151127145822
 20
40.1270048406111073
 30
0.0
 11
-770.7621151127146959
 21
40.1270048406111073
 31
0.0
  0
LINE
  5
126
100
AcDbEntity
  8
new-cuts
 62
256
370
-1
 48
1.0
  6
BYLAYER
100
AcDbLine
 10
-669.9999999999995453
 20
870.0
 30
0.0
 11
100.0
 21
870.0
 31
0.0
  0
LINE
  5
127
100
AcDbEntity
  8
new-cuts
 62
256
370
-1
 48
1.0
  6
BYLAYER
100
AcDbLine
 10
100.0
 20
870.0
 30
0.0
 11
100.0
 21
470.0
 31
0.0
  0
LINE
  5
128
100
AcDbEntity
  8
new-cuts
 62
256
370
-1
 48
1.0
  6
BYLAYER
100
AcDbLine
 10
100.0
 20
470.0
 30
0.0
 11
-280.0000000000000568
 21
470.0
 31
0.0
  0
ENDSEC
  0
SECTION
  2
OBJECTS
  0
DICTIONARY
  5
C
100
AcDbDictionary
280
0
281
1
  3
ACAD_GROUP
350
D
  3
ACAD_LAYOUT
350
1A
  3
ACAD_MLINESTYLE
350
17
  3
ACAD_PLOTSETTINGS
350
19
  3
ACAD_PLOTSTYLENAME
350
E
  3
AcDbVariableDictionary
350
129
  3
QCAD_OBJECTS
350
12A
  0
DICTIONARY
  5
D
100
AcDbDictionary
280
0
281
1
  0
ACDBDICTIONARYWDFLT
  5
E
100
AcDbDictionary
281
1
  3
Normal
350
F
100
AcDbDictionaryWithDefault
340
F
  0
ACDBPLACEHOLDER
  5
F
  0
DICTIONARY
  5
17
100
AcDbDictionary
280
0
281
1
  3
Standard
350
18
  0
MLINESTYLE
  5
18
100
AcDbMlineStyle
  2
STANDARD
 70
0
  3

 62
256
 51
90.0
 52
90.0
 71
2
 49
0.5
 62
256
  6
BYLAYER
 49
-0.5
 62
256
  6
BYLAYER
  0
DICTIONARY
  5
19
100
AcDbDictionary
280
0
281
1
  0
DICTIONARY
  5
1A
100
AcDbDictionary
281
1
  3
Layout1
350
1E
  3
Layout2
350
26
  3
Model
350
22
  0
LAYOUT
  5
1E
100
AcDbPlotSettings
  1

  2
none_device
  4

  6

 40
0.0
 41
0.0
 42
0.0
 43
0.0
 44
0.0
 45
0.0
 46
0.0
 47
0.0
 48
0.0
 49
0.0
140
0.0
141
0.0
142
1.0
143
1.0
 70
688
 72
0
 73
0
 74
5
  7

 75
16
147
1.0
148
0.0
149
0.0
100
AcDbLayout
  1
Layout1
 70
1
 71
1
 10
0.0
 20
0.0
 11
420.0
 21
297.0
 12
0.0
 22
0.0
 32
0.0
 14
100000000000000000000.0
 24
100000000000000000000.0
 34
100000000000000000000.0
 15
-100000000000000000000.0
 25
-100000000000000000000.0
 35
-100000000000000000000.0
146
0.0
 13
0.0
 23
0.0
 33
0.0
 16
1.0
 26
0.0
 36
0.0
 17
0.0
 27
1.0
 37
0.0
 76
0
330
1B
  0
LAYOUT
  5
22
100
AcDbPlotSettings
  1

  2
none_device
  4

  6

 40
0.0
 41
0.0
 42
0.0
 43
0.0
 44
0.0
 45
0.0
 46
0.0
 47
0.0
 48
0.0
 49
0.0
140
0.0
141
0.0
142
1.0
143
1.0
 70
1712
 72
0
 73
0
 74
0
  7

 75
0
147
1.0
148
0.0
149
0.0
100
AcDbLayout
  1
Model
 70
1
 71
0
 10
0.0
 20
0.0
 11
12.0
 21
9.0
 12
0.0
 22
0.0
 32
0.0
 14
0.0
 24
0.0
 34
0.0
 15
0.0
 25
0.0
 35
0.0
146
0.0
 13
0.0
 23
0.0
 33
0.0
 16
1.0
 26
0.0
 36
0.0
 17
0.0
 27
1.0
 37
0.0
 76
0
330
1F
  0
LAYOUT
  5
26
100
AcDbPlotSettings
  1

  2
none_device
  4

  6

 40
0.0
 41
0.0
 42
0.0
 43
0.0
 44
0.0
 45
0.0
 46
0.0
 47
0.0
 48
0.0
 49
0.0
140
0.0
141
0.0
142
1.0
143
1.0
 70
688
 72
0
 73
0
 74
5
  7

 75
16
147
1.0
148
0.0
149
0.0
100
AcDbLayout
  1
Layout2
 70
1
 71
2
 10
0.0
 20
0.0
 11
12.0
 21
9.0
 12
0.0
 22
0.0
 32
0.0
 14
0.0
 24
0.0
 34
0.0
 15
0.0
 25
0.0
 35
0.0
146
0.0
 13
0.0
 23
0.0
 33
0.0
 16
1.0
 26
0.0
 36
0.0
 17
0.0
 27
1.0
 37
0.0
 76
0
330
23
  0
DICTIONARY
  5
129
100
AcDbDictionary
281
1
  3
DIMASSOC
350
12C
  3
HIDETEXT
350
12B
  0
DICTIONARYVAR
  5
12B
100
DictionaryVariables
280
0
  1
2
  0
DICTIONARYVAR
  5
12C
100
DictionaryVariables
280
0
  1
1
  0
DICTIONARY
  5
12A
100
AcDbDictionary
281
1
  3
ColorSettings/BackgroundColor
350
12D
  3
ColorSettings/ColorMode
350
12E
  3
Grid/DisplayGrid00
350
12F
  3
Grid/DisplayGrid01
350
130
  3
Grid/DisplayGrid02
350
131
  3
Grid/DisplayGrid03
350
132
  3
Grid/GridSpacingX00
350
133
  3
Grid/GridSpacingX01
350
134
  3
Grid/GridSpacingX02
350
135
  3
Grid/GridSpacingX03
350
136
  3
Grid/GridSpacingY00
350
137
  3
Grid/GridSpacingY01
350
138
  3
Grid/GridSpacingY02
350
139
  3
Grid/GridSpacingY03
350
13A
  3
Grid/IsometricGrid00
350
13B
  3
Grid/IsometricGrid01
350
13C
  3
Grid/IsometricGrid02
350
13D
  3
Grid/IsometricGrid03
350
13E
  3
Grid/IsometricProjection00
350
13F
  3
Grid/IsometricProjection01
350
140
  3
Grid/IsometricProjection02
350
141
  3
Grid/IsometricProjection03
350
142
  3
Grid/MetaGridSpacingX00
350
143
  3
Grid/MetaGridSpacingX01
350
144
  3
Grid/MetaGridSpacingX02
350
145
  3
Grid/MetaGridSpacingX03
350
146
  3
Grid/MetaGridSpacingY00
350
147
  3
Grid/MetaGridSpacingY01
350
148
  3
Grid/MetaGridSpacingY02
350
149
  3
Grid/MetaGridSpacingY03
350
14A
  3
MultiPageSettings/Columns
350
14B
  3
MultiPageSettings/GlueMarginsBottom
350
14C
  3
MultiPageSettings/GlueMarginsLeft
350
14D
  3
MultiPageSettings/GlueMarginsRight
350
14E
  3
MultiPageSettings/GlueMarginsTop
350
14F
  3
MultiPageSettings/PrintCropMarks
350
150
  3
MultiPageSettings/Rows
350
151
  3
PageSettings/OffsetX
350
152
  3
PageSettings/OffsetY
350
153
  3
PageSettings/PageOrientation
350
154
  3
PageSettings/PaperHeight
350
155
  3
PageSettings/PaperWidth
350
156
  3
PageSettings/Scale
350
157
  3
PageSettings/ShowPaperBorders
350
158
  3
PageTagSettings/EnablePageTags
350
159
  3
PageTagSettings/TagAlignment
350
15A
  3
PageTagSettings/TagFont
350
15B
  3
PageTagSettings/TagPosition
350
15C
  3
QCADVersion
350
15D
  3
UnitSettings/PaperUnit
350
15E
  3
ViewportCenter
350
15F
  3
ViewportHeight
350
160
  3
ViewportWidth
350
161
  0
XRECORD
  5
12D
330
12A
100
AcDbXrecord
280
1
1000
White
  0
XRECORD
  5
12E
330
12A
100
AcDbXrecord
280
1
1000
FullColor
  0
XRECORD
  5
12F
330
12A
100
AcDbXrecord
280
1
290
1
  0
XRECORD
  5
130
330
12A
100
AcDbXrecord
280
1
290
1
  0
XRECORD
  5
131
330
12A
100
AcDbXrecord
280
1
290
1
  0
XRECORD
  5
132
330
12A
100
AcDbXrecord
280
1
290
1
  0
XRECORD
  5
133
330
12A
100
AcDbXrecord
280
1
1000
auto
  0
XRECORD
  5
134
330
12A
100
AcDbXrecord
280
1
1000
auto
  0
XRECORD
  5
135
330
12A
100
AcDbXrecord
280
1
1000
auto
  0
XRECORD
  5
136
330
12A
100
AcDbXrecord
280
1
1000
auto
  0
XRECORD
  5
137
330
12A
100
AcDbXrecord
280
1
1000
auto
  0
XRECORD
  5
138
330
12A
100
AcDbXrecord
280
1
1000
auto
  0
XRECORD
  5
139
330
12A
100
AcDbXrecord
280
1
1000
auto
  0
XRECORD
  5
13A
330
12A
100
AcDbXrecord
280
1
1000
auto
  0
XRECORD
  5
13B
330
12A
100
AcDbXrecord
280
1
290
0
  0
XRECORD
  5
13C
330
12A
100
AcDbXrecord
280
1
290
0
  0
XRECORD
  5
13D
330
12A
100
AcDbXrecord
280
1
290
0
  0
XRECORD
  5
13E
330
12A
100
AcDbXrecord
280
1
290
0
  0
XRECORD
  5
13F
330
12A
100
AcDbXrecord
280
1
 90
65552
  0
XRECORD
  5
140
330
12A
100
AcDbXrecord
280
1
 90
65537
  0
XRECORD
  5
141
330
12A
100
AcDbXrecord
280
1
 90
65537
  0
XRECORD
  5
142
330
12A
100
AcDbXrecord
280
1
 90
65537
  0
XRECORD
  5
143
330
12A
100
AcDbXrecord
280
1
1000
auto
  0
XRECORD
  5
144
330
12A
100
AcDbXrecord
280
1
1000
auto
  0
XRECORD
  5
145
330
12A
100
AcDbXrecord
280
1
1000
auto
  0
XRECORD
  5
146
330
12A
100
AcDbXrecord
280
1
1000
auto
  0
XRECORD
  5
147
330
12A
100
AcDbXrecord
280
1
1000
auto
  0
XRECORD
  5
148
330
12A
100
AcDbXrecord
280
1
1000
auto
  0
XRECORD
  5
149
330
12A
100
AcDbXrecord
280
1
1000
auto
  0
XRECORD
  5
14A
330
12A
100
AcDbXrecord
280
1
1000
auto
  0
XRECORD
  5
14B
330
12A
100
AcDbXrecord
280
1
 90
1
  0
XRECORD
  5
14C
330
12A
100
AcDbXrecord
280
1
 40
10.0
  0
XRECORD
  5
14D
330
12A
100
AcDbXrecord
280
1
 40
10.0
  0
XRECORD
  5
14E
330
12A
100
AcDbXrecord
280
1
 40
10.0
  0
XRECORD
  5
14F
330
12A
100
AcDbXrecord
280
1
 40
10.0
  0
XRECORD
  5
150
330
12A
100
AcDbXrecord
280
1
290
0
  0
XRECORD
  5
151
330
12A
100
AcDbXrecord
280
1
 90
1
  0
XRECORD
  5
152
330
12A
100
AcDbXrecord
280
1
 40
0.0
  0
XRECORD
  5
153
330
12A
100
AcDbXrecord
280
1
 40
0.0
  0
XRECORD
  5
154
330
12A
100
AcDbXrecord
280
1
1000
Portrait
  0
XRECORD
  5
155
330
12A
100
AcDbXrecord
280
1
 40
297.0
  0
XRECORD
  5
156
330
12A
100
AcDbXrecord
280
1
 40
210.0
  0
XRECORD
  5
157
330
12A
100
AcDbXrecord
280
1
1000
1:1
  0
XRECORD
  5
158
330
12A
100
AcDbXrecord
280
1
290
1
  0
XRECORD
  5
159
330
12A
100
AcDbXrecord
280
1
290
0
  0
XRECORD
  5
15A
330
12A
100
AcDbXrecord
280
1
1000
Inside
  0
XRECORD
  5
15B
330
12A
100
AcDbXrecord
280
1
1000
Arial,10,-1,5,50,0,0,0,0,0
  0
XRECORD
  5
15C
330
12A
100
AcDbXrecord
280
1
1000
TopLeft
  0
XRECORD
  5
15D
330
12A
100
AcDbXrecord
280
1
1000
3.32.4
  0
XRECORD
  5
15E
330
12A
100
AcDbXrecord
280
1
 90
4
  0
XRECORD
  5
160
330
12A
100
AcDbXrecord
280
1
 40
1096.7719819475212262
  0
XRECORD
  5
161
330
12A
100
AcDbXrecord
280
1
 40
1836.5410033282319091
  0
ENDSEC
  0
EOF
